<svg width="68" height="79" viewBox="0 0 68 79" fill="none" xmlns="http://www.w3.org/2000/svg">
<path d="M67.3241 68.5541V50.7968C67.3241 48.7457 66.5302 46.7436 65.0489 45.059C63.5676 43.3743 61.4697 42.0875 59.0364 41.3712L45.9748 37.5258C44.7581 37.1677 43.7091 36.5243 42.9685 35.6819C42.2278 34.8396 41.8309 33.8385 41.8309 32.813V29.3113H26.1693V32.813C26.1693 33.8385 25.7724 34.8396 25.0317 35.6819C24.2911 36.5243 23.2421 37.1677 22.0254 37.5258L8.96379 41.3712C6.53049 42.0875 4.43257 43.3743 2.95127 45.059C1.46998 46.7436 0.676097 48.7457 0.676052 50.7968V76.9724C0.676052 77.2554 0.818362 77.5267 1.07167 77.7268C1.32499 77.9269 1.66855 78.0393 2.02679 78.0393H13.0419L67.3241 68.5541Z" fill="#343239"/>
<path d="M43.044 35.7662C42.255 34.9077 41.8303 33.8739 41.8308 32.813V29.3113H26.1692V32.813C26.1696 33.8972 25.7261 34.9524 24.9047 35.8211C24.1882 36.5795 33.9998 40.1949 33.9998 40.1949C33.9998 40.1949 43.7641 36.5504 43.044 35.7662Z" fill="#D29D89"/>
<path d="M26.1696 29.3113V31.8572C27.8255 34.0037 30.4678 35.5615 33.5441 36.2049C36.6204 36.8484 39.8925 36.5277 42.6764 35.3099C42.1234 34.5502 41.8319 33.6893 41.831 32.813V29.3113H26.1696Z" fill="#A17259"/>
<path d="M52.1082 51.2406V46.9608H54.8097V52.3075L52.1082 51.2406ZM13.964 52.3075V46.9608H16.6655V51.2406L13.964 52.3075Z" fill="#313848"/>
<path d="M13.0412 78.0393V52.7648C13.0412 52.3606 13.2445 51.9729 13.6064 51.6871C13.9683 51.4012 14.4591 51.2407 14.9708 51.2407H53.8024C54.3142 51.2407 54.805 51.4012 55.1669 51.6871C55.5288 51.9729 55.7321 52.3606 55.7321 52.7648V76.9724C55.7321 77.2554 55.5897 77.5267 55.3364 77.7268C55.0831 77.9269 54.7396 78.0393 54.3813 78.0393H13.0412Z" fill="#0E7490"/>
<path d="M55.732 68.4589L54.3938 68.8815V69.5704L47.0846 73.9892L33.774 70.6772H33.2635L30.6421 66.378L31.6474 65.9197C31.9376 65.7874 32.192 65.6112 32.396 65.4012C32.6 65.1912 32.7496 64.9515 32.8363 64.6959C32.923 64.4402 32.9452 64.1736 32.9014 63.9112C32.8577 63.6488 32.7489 63.3957 32.5813 63.1665L27.6704 56.4482C27.6198 56.3788 27.5523 56.318 27.4718 56.2693C27.3914 56.2205 27.2996 56.1848 27.2017 56.1641C27.1038 56.1434 27.0016 56.1381 26.9011 56.1485C26.8006 56.159 26.7037 56.185 26.6159 56.225L17.7385 60.2733C17.5612 60.3541 17.4318 60.4873 17.3789 60.6434C17.3259 60.7996 17.3536 60.966 17.456 61.1061L22.3669 67.8245C22.5344 68.0538 22.7575 68.2547 23.0233 68.4158C23.2891 68.5769 23.5926 68.6951 23.9163 68.7636C24.2399 68.8321 24.5775 68.8496 24.9098 68.815C25.242 68.7805 25.5623 68.6946 25.8525 68.5622L26.8498 68.1074L29.0704 70.6772H27.961C27.6403 70.6773 27.3244 70.7384 27.0398 70.8552C26.7553 70.972 26.5105 71.1411 26.3261 71.3484C26.1417 71.5556 26.0231 71.7948 25.9803 72.0459C25.9376 72.2969 25.9719 72.5524 26.0804 72.7907L28.0016 77.0135C28.1228 77.28 28.3325 77.5158 28.6088 77.6963C28.8851 77.8768 29.2177 77.9953 29.5719 78.0394H37.7523L37.6784 77.9182C37.8357 77.8659 37.9848 77.7995 38.123 77.7205L38.8966 77.277C39.2796 77.0573 39.7407 76.939 40.214 76.9389H42.2053L55.732 76.5541V68.4589Z" fill="#313848"/>
<path d="M0.675821 61.5809H13.0412V78.0393H2.02694C1.66871 78.0393 1.32514 77.9269 1.07183 77.7268C0.818517 77.5267 0.676207 77.2554 0.676207 76.9724L0.675821 61.5809ZM67.3243 59.8902V64.9838H55.7321L55.7323 59.8902H67.3243Z" fill="#D29D89"/>
<path d="M46.3342 21.2456V15.1827H48.2314C48.4928 15.1828 48.7509 15.2283 48.9874 15.316C49.224 15.4037 49.4332 15.5315 49.6002 15.6903C49.7672 15.849 49.888 16.0349 49.9538 16.2347C50.0196 16.4344 50.029 16.6432 49.9812 16.8461L49.4236 19.2167C49.2896 19.7866 48.9073 20.3015 48.343 20.6721C47.7788 21.0427 47.0681 21.2456 46.3342 21.2456ZM22.0134 21.2456V15.1827H20.1162C19.8549 15.1828 19.5968 15.2283 19.3602 15.316C19.1237 15.4037 18.9144 15.5315 18.7474 15.6903C18.5804 15.849 18.4597 16.0349 18.3939 16.2347C18.328 16.4344 18.3187 16.6432 18.3664 16.8461L18.9243 19.2167C19.0583 19.7866 19.4405 20.3015 20.0047 20.672C20.569 21.0426 21.2796 21.2456 22.0134 21.2456Z" fill="#A17259"/>
<path d="M21.6662 13.9917V23.583C21.6658 24.8626 21.9846 26.1297 22.6042 27.312C23.2239 28.4943 24.1323 29.5687 25.2776 30.4737C26.4228 31.3787 27.7826 32.0967 29.2792 32.5866C30.7758 33.0766 32.3799 33.3289 34 33.3291C35.62 33.3289 37.2242 33.0766 38.7208 32.5867C40.2174 32.0968 41.5772 31.3788 42.7226 30.4738C43.8679 29.5688 44.7763 28.4945 45.396 27.3122C46.0157 26.1299 46.3345 24.8628 46.3341 23.5832V13.9919L21.6662 13.9917Z" fill="#D29D89"/>
<path d="M21.6662 13.9917H46.3343V16.4472H21.6662V13.9917ZM36.3825 23.2707V24.5083C36.3825 24.9346 36.1681 25.3435 35.7864 25.645C35.4047 25.9464 34.8871 26.1158 34.3473 26.1158C33.8075 26.1158 33.2899 25.9464 32.9082 25.645C32.5265 25.3435 32.3121 24.9346 32.3121 24.5083V23.2707C32.3121 23.1494 32.3731 23.0331 32.4817 22.9474C32.5902 22.8616 32.7375 22.8135 32.891 22.8135H35.8036C35.9571 22.8135 36.1044 22.8616 36.2129 22.9474C36.3215 23.0331 36.3825 23.1494 36.3825 23.2707Z" fill="#A17259"/>
<path d="M67.3244 59.8901V69.236C67.3247 70.5494 66.6798 71.8116 65.5256 72.757C64.3714 73.7025 62.7978 74.2574 61.1361 74.3049L43.5563 74.8051L55.7448 67.4365V63.5469L67.3244 59.8901Z" fill="#D29D89"/>
<path d="M39.0936 77.4103C38.8965 77.5003 38.6636 77.528 38.4416 77.488C38.2196 77.448 38.025 77.3433 37.8967 77.1947L27.9261 65.6563L31.7391 63.8281L39.4556 76.4837C39.5544 76.6457 39.572 76.8313 39.5049 77.0031C39.4378 77.175 39.2909 77.3204 39.0936 77.4103Z" fill="#FDC857"/>
<path d="M19.0893 58.1395L27.9667 54.0913C28.144 54.0104 28.3546 53.9885 28.5524 54.0304C28.7501 54.0722 28.9187 54.1744 29.021 54.3144L33.9319 61.0327C34.0995 61.2619 34.2083 61.515 34.252 61.7774C34.2958 62.0398 34.2737 62.3064 34.1869 62.5621C34.1002 62.8178 33.9506 63.0574 33.7466 63.2674C33.5426 63.4774 33.2882 63.6536 32.998 63.7859L27.2033 66.4284C26.9131 66.5608 26.5928 66.6467 26.2606 66.6812C25.9283 66.7158 25.5907 66.6983 25.2671 66.6298C24.9434 66.5613 24.64 66.4431 24.3741 66.282C24.1083 66.1209 23.8852 65.92 23.7177 65.6907L18.8068 58.9724C18.7561 58.9031 18.7231 58.8265 18.7099 58.7471C18.6966 58.6677 18.7033 58.5871 18.7296 58.5097C18.7558 58.4324 18.8011 58.3599 18.8628 58.2963C18.9245 58.2328 19.0015 58.1795 19.0893 58.1395Z" fill="#FDC857"/>
<path d="M27.2034 66.4285L32.998 63.7859C33.2882 63.6535 33.5426 63.4773 33.7466 63.2674C33.9506 63.0574 34.1002 62.8177 34.187 62.5621C34.2737 62.3064 34.2958 62.0397 34.252 61.7773C34.2083 61.5149 34.0995 61.2619 33.932 61.0327L33.601 60.58L23.3868 65.2379L23.7177 65.6907C23.8852 65.9199 24.1083 66.1208 24.3741 66.282C24.64 66.4431 24.9434 66.5613 25.2671 66.6298C25.5908 66.6983 25.9284 66.7158 26.2606 66.6812C26.5928 66.6466 26.9132 66.5607 27.2034 66.4284V66.4285Z" fill="#40B49A"/>
<path d="M43.5561 74.8051H41.5647C41.0914 74.8051 40.6303 74.9235 40.2473 75.1431L39.4738 75.5867C39.0908 75.8063 38.6297 75.9247 38.1564 75.9247H31.2329C30.8213 75.9247 30.4198 75.8243 30.0832 75.6372C29.7465 75.4502 29.4912 75.1856 29.3521 74.8796L27.431 70.6569C27.3225 70.4185 27.2881 70.1631 27.3309 69.912C27.3736 69.661 27.4922 69.4218 27.6766 69.2145C27.861 69.0073 28.1058 68.8381 28.3904 68.7213C28.6749 68.6045 28.9909 68.5435 29.3116 68.5434H35.1246L55.4374 73.5975L43.5561 74.8051Z" fill="#D29D89"/>
<path d="M57.7227 66.7375L39.5588 68.7889L37.4549 66.4947C37.2169 66.2351 36.9043 66.0237 36.5429 65.878C36.1814 65.7322 35.7814 65.6562 35.3755 65.6563H32.8568L34.6164 68.5434L42.5196 73.9621L47.4982 74.5036L57.7227 66.7375Z" fill="#D29D89"/>
<path d="M34.3474 2.8239C35.1466 2.8239 35.7946 2.31212 35.7946 1.68081C35.7946 1.0495 35.1466 0.53772 34.3474 0.53772C33.5481 0.53772 32.9001 1.0495 32.9001 1.68081C32.9001 2.31212 33.5481 2.8239 34.3474 2.8239Z" fill="#333353"/>
<path d="M23.5818 11.0691L13.8584 11.3088C13.0528 11.3262 12.2802 11.5655 11.6744 11.9852C11.0685 12.405 10.6675 12.9788 10.5406 13.6074L10.3237 14.6819C10.3105 14.7472 10.3154 14.814 10.3381 14.8776C10.3608 14.9413 10.4007 15.0003 10.455 15.0506C10.5094 15.1009 10.5769 15.1413 10.6529 15.169C10.729 15.1967 10.8117 15.2111 10.8954 15.211H26.5752L23.5818 11.0691Z" fill="#333353"/>
<path d="M31.8544 2.82385H36.8404C39.4504 2.82385 41.9535 3.64279 43.7991 5.10052C45.6446 6.55824 46.6815 8.53534 46.6815 10.5969V15.211H22.0131V10.5969C22.0131 8.53534 23.05 6.55824 24.8955 5.10052C26.7411 3.64279 29.2444 2.82385 31.8544 2.82385ZM52.151 48.0276H54.7672C55.023 48.0276 55.2685 47.9473 55.4494 47.8044C55.6303 47.6615 55.732 47.4677 55.732 47.2656V39.71C55.732 39.5458 55.6648 39.386 55.5405 39.2543C55.4161 39.1227 55.2413 39.0263 55.0419 38.9795L52.4258 38.3655C52.2818 38.3317 52.1298 38.3249 51.9819 38.3457C51.8341 38.3665 51.6944 38.4142 51.574 38.4852C51.4536 38.5561 51.3559 38.6483 51.2886 38.7543C51.2212 38.8604 51.1862 38.9773 51.1862 39.096V47.2656C51.1862 47.4677 51.2878 47.6615 51.4688 47.8044C51.6497 47.9473 51.8951 48.0276 52.151 48.0276ZM16.6229 48.0276H14.0067C13.7508 48.0276 13.5054 47.9473 13.3245 47.8044C13.1436 47.6615 13.0419 47.4677 13.0419 47.2656V39.71C13.0419 39.5458 13.1091 39.386 13.2334 39.2543C13.3578 39.1227 13.5326 39.0263 13.7319 38.9795L16.3481 38.3655C16.4921 38.3317 16.6441 38.3249 16.7919 38.3457C16.9398 38.3665 17.0795 38.4142 17.1999 38.4852C17.3202 38.5561 17.418 38.6483 17.4853 38.7543C17.5527 38.8604 17.5877 38.9773 17.5877 39.096V47.2656C17.5877 47.4677 17.4861 47.6615 17.3051 47.8044C17.1242 47.9473 16.8788 48.0276 16.6229 48.0276Z" fill="#0E7490"/>
<path d="M31.4122 40.1765H36.5879V51.2408H31.4122V40.1765Z" fill="#343239"/>
<path d="M40.7329 44.6968L45.3916 37.3241C44.4546 36.9607 43.6453 36.4207 43.0351 35.7518L41.8394 35.1686L34.0003 40.195V42.3288L39.0501 45.039C39.186 45.112 39.3401 45.1612 39.5021 45.1835C39.664 45.2057 39.8301 45.2005 39.9892 45.1681C40.1484 45.1357 40.297 45.077 40.4252 44.9957C40.5534 44.9145 40.6582 44.8126 40.7327 44.6968H40.7329ZM27.2676 44.6968C27.3421 44.8126 27.4469 44.9146 27.5751 44.9958C27.7033 45.0771 27.852 45.1359 28.0112 45.1683C28.1704 45.2007 28.3366 45.2059 28.4986 45.1836C28.6605 45.1613 28.8146 45.112 28.9506 45.039L34.0001 42.3287V40.1949L26.1615 35.1693L24.9389 35.7795C24.3225 36.4464 23.5074 36.9829 22.5657 37.3414L27.2674 44.6968H27.2676Z" fill="#343239"/>
<path d="M39.0499 42.9052L34.0002 40.1949L41.8393 33.0349L44.4183 36.8333L40.7327 42.5631C40.6582 42.6788 40.5534 42.7807 40.4252 42.8619C40.297 42.9432 40.1484 43.002 39.9892 43.0343C39.83 43.0667 39.664 43.0719 39.502 43.0497C39.3401 43.0274 39.1858 42.9782 39.0499 42.9052Z" fill="#343239"/>
<path d="M40.5885 36.034C41.509 35.7916 42.3895 35.4628 43.2108 35.0546L41.8404 33.0364L41.8394 33.0349L38.0805 36.4679C38.9336 36.3937 39.7743 36.2483 40.5885 36.034Z" fill="#343239"/>
<path d="M28.9504 42.9052L33.9999 40.1949L26.1614 33.0355L23.5818 36.8333L27.2674 42.563C27.3419 42.6788 27.4467 42.7807 27.5749 42.8619C27.7031 42.9432 27.8517 43.002 28.0109 43.0343C28.1701 43.0667 28.3361 43.0719 28.4981 43.0497C28.66 43.0274 28.8141 42.9782 28.95 42.9052H28.9504Z" fill="#343239"/>
<path d="M30.6102 11.831H38.085C38.5968 11.831 39.0876 11.9916 39.4494 12.2774C39.8113 12.5632 40.0146 12.9509 40.0146 13.3551V15.211H28.6806V13.3551C28.6806 12.9509 28.8839 12.5632 29.2458 12.2774C29.6076 11.9916 30.0984 11.831 30.6102 11.831Z" fill="#313848"/>
<path d="M55.7321 66.9625L58.2339 67.5342C58.3127 67.5522 58.3967 67.5499 58.4738 67.5276C58.5508 67.5053 58.6169 67.4643 58.6624 67.4103C58.7078 67.3564 58.7304 67.2924 58.7267 67.2276C58.723 67.1629 58.6933 67.1008 58.6418 67.0503L55.7447 64.2089L55.7321 66.9625Z" fill="#A17259"/>
<path d="M59.2727 40.8705L56.4072 40.0277V39.7101C56.4056 39.4312 56.2908 39.1601 56.0797 38.9366C55.8686 38.713 55.5723 38.5488 55.2344 38.4681L52.618 37.8542C52.3733 37.796 52.1148 37.7841 51.8632 37.8194C51.6117 37.8548 51.3742 37.9365 51.17 38.0578C51.0215 38.1453 50.8927 38.2519 50.7891 38.3733L46.2105 37.0249C45.7689 36.8947 45.3499 36.7209 44.9635 36.5077L42.5077 32.8905C42.5073 32.8645 42.5058 32.8383 42.5058 32.8125V31.3579C42.7446 31.1957 42.9761 31.0268 43.1997 30.8516C44.4113 29.8989 45.3719 28.7659 46.0258 27.5182C46.6798 26.2705 47.0141 24.9328 47.0095 23.5824V21.7317C47.7725 21.623 48.4756 21.3336 49.0254 20.9017C49.5751 20.4699 49.9455 19.9162 50.0873 19.3141L50.6451 16.9437C50.7111 16.6637 50.6982 16.3757 50.6074 16.1002C50.5165 15.8246 50.35 15.5682 50.1196 15.3492C49.8892 15.1302 49.6006 14.9539 49.2743 14.8329C48.9479 14.7119 48.5919 14.6492 48.2314 14.6491H47.3569V10.5969C47.3537 8.39466 46.2447 6.28333 44.2732 4.72611C42.3016 3.16889 39.6286 2.29294 36.8404 2.29044H36.3225C36.4491 2.03623 36.4952 1.76143 36.4567 1.48994C36.4182 1.21846 36.2963 0.958514 36.1016 0.732731C35.9069 0.506947 35.6453 0.322164 35.3396 0.19446C35.0338 0.0667563 34.6932 0 34.3473 0C34.0015 0 33.6608 0.0667563 33.3551 0.19446C33.0493 0.322164 32.7877 0.506947 32.593 0.732731C32.3983 0.958514 32.2764 1.21846 32.2379 1.48994C32.1994 1.76143 32.2455 2.03623 32.3722 2.29044H31.8544C29.0677 2.29294 26.3959 3.16799 24.4247 4.7238C22.4534 6.27961 21.3435 8.38926 21.3382 10.5904L13.8397 10.7754C12.877 10.7965 11.9539 11.0826 11.2299 11.5842C10.506 12.0858 10.0266 12.7715 9.87466 13.5226L9.65662 14.5976C9.62816 14.739 9.63887 14.8836 9.688 15.0215C9.73712 15.1593 9.8235 15.2871 9.94117 15.396C10.0588 15.505 10.205 15.5925 10.3696 15.6525C10.5342 15.7125 10.7134 15.7436 10.8947 15.7437H17.9117C17.6805 16.1154 17.607 16.536 17.7022 16.9432L18.2599 19.3153C18.3945 19.8688 18.7211 20.3818 19.2033 20.7973C19.6854 21.2127 20.3041 21.5143 20.9905 21.6683V23.5826C20.9903 25.057 21.3925 26.5142 22.1697 27.8548C22.9469 29.1953 24.0808 30.3878 25.4942 31.351V32.8125C25.4942 32.8393 25.4927 32.8662 25.4923 32.893L23.0361 36.5088C22.6493 36.7214 22.2303 36.8949 21.7889 37.0252L17.8027 38.1983C17.7413 38.1473 17.6749 38.1003 17.604 38.0578C17.3998 37.9364 17.1623 37.8547 16.9107 37.8193C16.6591 37.784 16.4005 37.7959 16.1558 37.8542L13.5396 38.4684C13.2016 38.549 12.9052 38.7131 12.6941 38.9366C12.483 39.1601 12.3682 39.4312 12.3666 39.7101V39.7992L8.72712 40.8707C6.16949 41.6309 3.96504 42.9875 2.40633 44.7604C0.847632 46.5333 0.00839239 48.6387 0 50.7972V77.5059C0 77.6473 0.0711542 77.783 0.19781 77.8831C0.324467 77.9831 0.49625 78.0393 0.675369 78.0393C0.854488 78.0393 1.02627 77.9831 1.15293 77.8831C1.27958 77.783 1.35074 77.6473 1.35074 77.5059V62.1145H12.3658V77.5059C12.3658 77.6473 12.437 77.783 12.5636 77.8831C12.6903 77.9831 12.8621 78.0393 13.0412 78.0393H13.042C13.2211 78.0393 13.3929 77.9831 13.5195 77.8831C13.6462 77.783 13.7173 77.6473 13.7173 77.5059V52.8783C13.7173 52.8764 13.7165 52.8745 13.7165 52.8724V52.7648C13.717 52.5022 13.8492 52.2504 14.0844 52.0646C14.3195 51.8789 14.6383 51.7744 14.9708 51.7741H53.8024C54.1349 51.7744 54.4537 51.8789 54.6888 52.0646C54.924 52.2504 55.0562 52.5022 55.0566 52.7648V66.4999L39.8666 68.2153L38.0019 66.1818C37.7007 65.8543 37.3058 65.5877 36.8494 65.4037C36.3931 65.2196 35.8881 65.1234 35.3756 65.1228H33.3393C33.32 65.1228 33.3021 65.126 33.2833 65.1274L32.8754 64.4577L33.3356 64.2478C34.0761 63.9093 34.6163 63.3526 34.8378 62.6998C35.0592 62.0471 34.9439 61.3516 34.5169 60.766L29.2201 53.5197C29.1758 53.459 29.1167 53.4058 29.0463 53.3632C28.976 53.3205 28.8956 53.2892 28.81 53.2711C28.7243 53.253 28.6349 53.2483 28.5469 53.2575C28.459 53.2667 28.3742 53.2894 28.2974 53.3245L18.0831 57.9823C18.0063 58.0173 17.9389 58.064 17.8849 58.1196C17.8309 58.1752 17.7913 58.2386 17.7683 58.3063C17.7454 58.374 17.7395 58.4446 17.7511 58.514C17.7627 58.5835 17.7915 58.6505 17.8359 58.7112L22.8012 65.5039L22.8018 65.5048L22.8028 65.5058L23.1327 65.9574C23.3437 66.2479 23.6255 66.5024 23.9618 66.7062C24.2981 66.9101 24.6823 67.0592 25.0921 67.145C25.5013 67.2325 25.9284 67.255 26.3487 67.2113C26.769 67.1677 27.1741 67.0586 27.5408 66.8905L28.0004 66.6808L29.1549 68.0181C28.74 68.0364 28.3362 68.131 27.9758 68.2944C27.6155 68.4579 27.3084 68.6856 27.0793 68.9594C26.8501 69.2332 26.7051 69.5456 26.6559 69.8715C26.6068 70.1974 26.6547 70.5279 26.7959 70.8366L28.7161 75.0604C28.9032 75.4693 29.2451 75.8229 29.6954 76.073C30.1456 76.3232 30.6824 76.4579 31.2329 76.4588H36.4429L37.3382 77.4958C37.484 77.6635 37.6794 77.8005 37.9074 77.8951C38.1354 77.9896 38.3892 78.0388 38.6467 78.0384C38.9221 78.0387 39.1927 77.9814 39.4309 77.8723C39.7745 77.7142 40.0304 77.4599 40.1476 77.1597C40.2649 76.8596 40.235 76.5356 40.0638 76.2521L39.9087 75.9971L40.6454 75.575C40.9127 75.4221 41.2341 75.3395 41.5641 75.3387H45.7263C45.8422 75.3381 45.956 75.3137 46.0563 75.2678L55.0566 75.0118V77.5059C55.0566 77.6473 55.1278 77.783 55.2545 77.8831C55.3811 77.9831 55.5529 78.0393 55.732 78.0393C55.9111 78.0393 56.0829 77.9831 56.2096 77.8831C56.3362 77.783 56.4074 77.6473 56.4074 77.5059V74.9734L61.1601 74.838C62.9987 74.7905 64.7416 74.1788 66.0186 73.1328C67.2956 72.0868 68.0062 70.6889 67.9996 69.2358V68.5584L68 68.5547V50.7972C67.9916 48.6387 67.1523 46.5333 65.5936 44.7603C64.0348 42.9874 61.8303 41.6308 59.2727 40.8705ZM47.0095 15.716H48.2314C48.3936 15.716 48.5538 15.7443 48.7006 15.7988C48.8474 15.8533 48.9772 15.9326 49.0809 16.0311C49.1845 16.1297 49.2594 16.2451 49.3002 16.3691C49.3411 16.493 49.3469 16.6226 49.3172 16.7486L48.7595 19.1192C48.6754 19.4757 48.467 19.8066 48.1579 20.0748C47.8487 20.3429 47.4509 20.5376 47.0093 20.6369L47.0095 15.716ZM20.9905 20.5351C20.6311 20.4042 20.3164 20.2075 20.0725 19.9614C19.8286 19.7153 19.6624 19.4268 19.5878 19.1198L19.0302 16.7483C18.9795 16.5306 19.0353 16.3058 19.1863 16.1194C19.3374 15.9329 19.5724 15.7987 19.8439 15.7439H20.9905V20.5351ZM21.3378 14.677H11.0085L11.2086 13.6906C11.3111 13.1848 11.6341 12.7232 12.1218 12.3856C12.6096 12.048 13.2313 11.8556 13.8796 11.8418L21.338 11.6577L21.3378 14.677ZM13.2893 51.1959C13.0001 51.3885 12.7676 51.6287 12.6081 51.8997C12.4486 52.1707 12.3659 52.466 12.3658 52.7648V61.0476H1.35074V50.7972C1.35833 48.8561 2.11308 46.9627 3.51483 45.3683C4.91658 43.774 6.89904 42.554 9.1991 41.8704L12.3666 40.9376V47.2656C12.3671 47.5083 12.4538 47.746 12.6169 47.9516C12.7801 48.1573 13.013 48.3226 13.2893 48.4288V51.1959ZM43.6564 36.84L40.1308 42.3214C40.0998 42.3696 40.0561 42.4121 40.0027 42.4459C39.9493 42.4798 39.8874 42.5043 39.821 42.5178C39.7547 42.5314 39.6855 42.5336 39.618 42.5243C39.5505 42.515 39.4863 42.4945 39.4296 42.4642L35.0073 40.0907L41.7081 33.9702L43.6564 36.84ZM41.1558 32.8438L34.0002 39.3795L26.8442 32.8433C26.8442 32.8329 26.8449 32.8227 26.8449 32.8125V32.1622C28.9673 33.2699 31.4546 33.8611 33.9984 33.8626C36.5422 33.8641 39.0306 33.2758 41.155 32.1706V32.8125C41.155 32.8229 41.1558 32.8334 41.1558 32.8438ZM46.0061 10.5969V14.6774H43.2628C43.4039 13.952 43.4747 13.2192 43.4745 12.4853C43.4745 8.6032 41.5213 5.22179 38.6554 3.50059C40.7281 3.83363 42.5915 4.72171 43.9309 6.0147C45.2702 7.30769 46.0033 8.92629 46.0061 10.5969ZM42.1237 12.4853C42.1229 13.2198 42.045 13.9531 41.8908 14.6774H40.6898V13.3551C40.689 12.8096 40.4144 12.2866 39.926 11.9009C39.4376 11.5151 38.7755 11.2982 38.0848 11.2975H35.0225L35.0227 3.39391C38.9954 3.79734 42.1237 7.71936 42.1237 12.4853ZM39.3391 13.3551V14.6774H29.3558V13.3551C29.3562 13.0925 29.4885 12.8407 29.7236 12.655C29.9587 12.4692 30.2775 12.3648 30.61 12.3644H38.0848C38.4173 12.3648 38.7361 12.4692 38.9713 12.655C39.2064 12.8407 39.3387 13.0925 39.3391 13.3551ZM34.3473 1.07114C34.5 1.07114 34.6492 1.1069 34.7761 1.17389C34.9031 1.24088 35.002 1.33609 35.0604 1.44749C35.1188 1.55889 35.1341 1.68147 35.1044 1.79973C35.0746 1.91799 35.0011 2.02662 34.8931 2.11188C34.7852 2.19714 34.6476 2.2552 34.4979 2.27873C34.3482 2.30225 34.193 2.29018 34.052 2.24404C33.9109 2.19789 33.7904 2.11975 33.7056 2.0195C33.6207 1.91924 33.5755 1.80137 33.5755 1.68079C33.5757 1.51915 33.6571 1.36418 33.8018 1.24988C33.9465 1.13559 34.1427 1.07131 34.3473 1.07114ZM33.672 3.39391V11.2975H30.61C29.9194 11.2982 29.2572 11.5151 28.7689 11.9009C28.2805 12.2866 28.0058 12.8096 28.005 13.3551V14.6774H26.7996C26.7842 14.604 26.7683 14.5307 26.7544 14.456C26.6316 13.8036 26.5703 13.1449 26.5709 12.4853C26.5709 7.71936 29.6994 3.79719 33.672 3.39391ZM22.6885 10.5969C22.6914 8.92629 23.4244 7.30769 24.7638 6.0147C26.1031 4.72171 27.9666 3.83363 30.0392 3.50059C27.1734 5.22179 25.2202 8.60305 25.2202 12.4853C25.2195 13.1973 25.2857 13.9083 25.4184 14.6125C25.4224 14.6343 25.4274 14.6558 25.4319 14.6774H22.6885V10.5969ZM22.3412 23.5824V15.7443H45.6588V23.5824C45.6588 24.7917 45.3572 25.9892 44.7713 27.1065C44.1854 28.2237 43.3266 29.2389 42.244 30.094C41.1614 30.9491 39.8761 31.6274 38.4616 32.0902C37.0471 32.553 35.5311 32.7912 34 32.7912C32.4689 32.7912 30.9529 32.553 29.5384 32.0902C28.1239 31.6274 26.8386 30.9491 25.756 30.094C24.6734 29.2389 23.8146 28.2237 23.2287 27.1065C22.6428 25.9892 22.3412 24.7917 22.3412 23.5824ZM15.9908 50.7072H14.9708C14.8602 50.7078 14.7497 50.714 14.6401 50.7257V48.5613H15.9908V50.7072ZM16.9124 47.2656C16.9123 47.3262 16.8818 47.3843 16.8275 47.4272C16.7732 47.47 16.6997 47.4941 16.6229 47.4942H14.0068C13.93 47.4941 13.8565 47.47 13.8022 47.4272C13.7479 47.3843 13.7174 47.3262 13.7173 47.2656V39.7101C13.7176 39.6608 13.7378 39.613 13.7751 39.5735C13.8124 39.5341 13.8647 39.5051 13.9244 39.4909L16.5406 38.877C16.5679 38.8704 16.5964 38.867 16.6251 38.8669C16.6868 38.8674 16.7467 38.8834 16.796 38.9128C16.8325 38.9338 16.862 38.9614 16.8822 38.9933C16.9025 39.0252 16.9128 39.0604 16.9124 39.096V47.2656ZM31.1229 50.7071H17.3415V48.4284C17.6175 48.3221 17.8502 48.1567 18.0132 47.9511C18.1761 47.7456 18.2627 47.508 18.2631 47.2655V39.2013L22.26 38.0252C22.6311 37.9151 22.9898 37.7804 23.3321 37.6225L26.6655 42.8048C26.7834 42.9881 26.9494 43.1494 27.1524 43.2781C27.3554 43.4068 27.5907 43.4998 27.8428 43.5511C28.0948 43.6023 28.3578 43.6106 28.6142 43.5754C28.8706 43.5401 29.1146 43.4621 29.3299 43.3466V43.3465L31.1229 42.3842V50.7071ZM31.418 40.9359L28.5708 42.4642C28.5141 42.4945 28.4499 42.5151 28.3824 42.5243C28.3149 42.5336 28.2457 42.5314 28.1794 42.5179C28.1131 42.5044 28.0511 42.4799 27.9977 42.4461C27.9443 42.4122 27.9006 42.3697 27.8696 42.3215L24.344 36.84L26.2929 33.9707L32.9931 40.0907L31.4236 40.933L31.418 40.9359ZM36.2982 50.7071H32.4737V41.6593L34.0002 40.8399L36.2984 42.0732L36.2982 50.7071ZM51.4322 50.7071H37.6489V42.7984L38.6703 43.3465V43.3466C38.8856 43.4622 39.1296 43.5402 39.3861 43.5755C39.6426 43.6107 39.9056 43.6024 40.1577 43.5512C40.4098 43.4999 40.6452 43.4068 40.8482 43.2781C41.0512 43.1494 41.2172 42.988 41.3351 42.8047L44.6683 37.6223C45.0102 37.7803 45.3684 37.915 45.7393 38.0249L50.5106 39.4301V47.2656C50.5111 47.5081 50.5977 47.7457 50.7607 47.9512C50.9236 48.1568 51.1562 48.3221 51.4322 48.4284V50.7071ZM54.1337 50.7258C54.0239 50.7141 53.9132 50.7079 53.8024 50.7072H52.783V48.5611H54.1337V50.7258ZM54.7672 47.4942H52.1508C52.0741 47.4941 52.0005 47.47 51.9463 47.4272C51.892 47.3843 51.8615 47.3262 51.8614 47.2656V39.096C51.861 39.0604 51.8713 39.0252 51.8915 38.9933C51.9118 38.9614 51.9413 38.9338 51.9777 38.9128C52.0271 38.8835 52.0871 38.8674 52.1489 38.8671C52.1775 38.8671 52.206 38.8704 52.2334 38.877L54.8494 39.4908C54.9091 39.505 54.9615 39.534 54.9988 39.5734C55.0361 39.6129 55.0564 39.6608 55.0566 39.7101V47.2656C55.0565 47.3262 55.026 47.3843 54.9718 47.4272C54.9175 47.47 54.8439 47.4941 54.7672 47.4942ZM33.5411 68.0106H30.7831L29.1734 66.146L31.7024 64.9927L33.5411 68.0106ZM23.6341 64.5092L19.3433 58.6397L28.3879 54.5151L32.6784 60.3848L23.6341 64.5092ZM27.8676 65.5094L27.8675 65.5095L26.8654 65.9664C26.4366 66.1621 25.9272 66.2158 25.4484 66.1159C24.9697 66.016 24.5604 65.7704 24.31 65.433L33.3532 61.309C33.5972 61.6492 33.6614 62.0517 33.5317 62.429C33.4019 62.8064 33.0888 63.128 32.6604 63.3239L31.6586 63.7807L31.6574 63.781L27.8676 65.5094ZM38.7554 76.9485C38.7057 76.971 38.6471 76.978 38.5912 76.9679C38.5353 76.9579 38.4863 76.9317 38.4538 76.8944L38.0777 76.4588H38.1564C38.328 76.4581 38.4991 76.4454 38.6678 76.4207L38.8461 76.7139C38.8711 76.7549 38.8757 76.8018 38.8589 76.8453C38.8421 76.8887 38.8051 76.9256 38.7554 76.9485ZM66.6489 69.2358C66.6543 70.4123 66.079 71.5442 65.045 72.3911C64.0111 73.238 62.6 73.7333 61.1112 73.7718L43.542 74.2717H41.5641C40.9484 74.2707 40.3484 74.4248 39.8512 74.7117L39.079 75.1543C38.9823 75.2092 38.8784 75.2558 38.7691 75.2931C38.5752 75.358 38.3668 75.3916 38.1562 75.3919H31.2327C30.9602 75.3914 30.6945 75.3246 30.4717 75.2008C30.2488 75.0769 30.0796 74.9019 29.987 74.6995L28.0668 70.4757C27.9948 70.318 27.972 70.149 28.0002 69.9829C28.0284 69.8167 28.1068 69.6584 28.2288 69.5213C28.3509 69.3841 28.5129 69.2722 28.7012 69.195C28.8895 69.1177 29.0986 69.0774 29.3108 69.0775H34.613L34.6157 69.0776H35.1248C35.3039 69.0776 35.4757 69.0214 35.6023 68.9214C35.729 68.8213 35.8001 68.6857 35.8001 68.5442C35.8001 68.4027 35.729 68.267 35.6023 68.167C35.4757 68.0669 35.3039 68.0107 35.1248 68.0107H35.0399L33.9303 66.1897H35.3754C35.6744 66.1901 35.9691 66.2462 36.2353 66.3536C36.5016 66.461 36.732 66.6165 36.9077 66.8076L39.0118 69.1017C39.0744 69.17 39.1566 69.2256 39.2516 69.264C39.3467 69.3024 39.4519 69.3224 39.5587 69.3224C39.5907 69.3223 39.6227 69.3205 39.6544 69.3169L57.8183 67.2656C57.9061 67.2557 57.9906 67.2322 58.0669 67.1965C58.1432 67.1608 58.2099 67.1135 58.2631 67.0575C58.3163 67.0014 58.355 66.9376 58.377 66.8697C58.3989 66.8019 58.4038 66.7312 58.3912 66.6619C58.3787 66.5925 58.3489 66.5258 58.3037 66.4655C58.2585 66.4053 58.1987 66.3526 58.1277 66.3106C58.0568 66.2686 57.976 66.238 57.8901 66.2206C57.8041 66.2033 57.7147 66.1994 57.6269 66.2094L56.4197 66.3458V60.4237H66.6487L66.6489 69.2358ZM66.6493 52.8474L66.6489 52.8511V59.3568H56.4199V55.959C56.4197 55.9258 56.4155 55.8927 56.4074 55.8601V52.7646C56.4073 52.4659 56.3246 52.1708 56.1652 51.9C56.0058 51.6291 55.7735 51.3889 55.4844 51.1963V48.4288C55.7608 48.3227 55.9938 48.1573 56.1569 47.9517C56.3201 47.746 56.4069 47.5083 56.4074 47.2656V41.1661L58.8009 41.8702C61.101 42.5539 63.0834 43.7738 64.4852 45.3682C65.8869 46.9626 66.6417 48.8559 66.6493 50.797V52.8474ZM40.5061 18.2142C40.327 18.2142 40.1552 18.2704 40.0286 18.3704C39.9019 18.4704 39.8307 18.6061 39.8307 18.7476V19.7849C39.8307 19.9264 39.9019 20.0621 40.0286 20.1621C40.1552 20.2622 40.327 20.3184 40.5061 20.3184C40.6852 20.3184 40.857 20.2622 40.9837 20.1621C41.1103 20.0621 41.1815 19.9264 41.1815 19.7849V18.7476C41.1815 18.6061 41.1103 18.4704 40.9837 18.3704C40.857 18.2704 40.6852 18.2142 40.5061 18.2142ZM26.382 17.8069C26.9176 17.6327 27.4891 17.5374 28.0681 17.5259C28.7283 17.5138 29.3845 17.6095 29.9956 17.8071C30.1614 17.8608 30.3473 17.8603 30.5126 17.8057C30.6779 17.7511 30.8089 17.6469 30.8769 17.516C30.9449 17.3851 30.9443 17.2382 30.8751 17.1076C30.806 16.9771 30.6741 16.8736 30.5083 16.8199C29.7233 16.5677 28.8813 16.445 28.034 16.4593C27.2905 16.474 26.5566 16.5963 25.8689 16.82C25.7861 16.8462 25.7107 16.8851 25.647 16.9344C25.5833 16.9838 25.5326 17.0426 25.4978 17.1075C25.463 17.1723 25.4449 17.242 25.4444 17.3125C25.4439 17.383 25.4611 17.4528 25.495 17.518C25.5289 17.5832 25.5788 17.6424 25.6419 17.6923C25.7049 17.7421 25.7798 17.7816 25.8623 17.8085C25.9447 17.8354 26.0331 17.849 26.1224 17.8488C26.2116 17.8485 26.2998 17.8343 26.382 17.8069ZM32.0275 29.5099C32.7152 29.7336 33.4491 29.8558 34.1926 29.8705C34.2453 29.8716 34.2975 29.872 34.3498 29.872C35.1447 29.8722 35.9318 29.7492 36.6667 29.51C36.7497 29.484 36.8252 29.4452 36.889 29.3959C36.9528 29.3466 37.0036 29.2878 37.0385 29.2229C37.0734 29.158 37.0916 29.0883 37.0922 29.0178C37.0928 28.9473 37.0756 28.8774 37.0418 28.8122C37.0079 28.747 36.9581 28.6877 36.895 28.6378C36.832 28.5879 36.7571 28.5483 36.6746 28.5214C36.5921 28.4945 36.5037 28.4808 36.4144 28.481C36.3252 28.4813 36.2369 28.4955 36.1546 28.5229C34.9971 28.8991 33.6984 28.8992 32.5408 28.523C32.3751 28.4693 32.1892 28.4697 32.0239 28.5242C31.8586 28.5787 31.7275 28.6829 31.6595 28.8137C31.5914 28.9446 31.5919 29.0915 31.661 29.222C31.73 29.3526 31.8618 29.4561 32.0275 29.5099ZM38.4432 17.847C38.5311 17.847 38.6181 17.8334 38.6994 17.8069C39.235 17.6327 39.8065 17.5374 40.3855 17.5259C41.0457 17.5138 41.7019 17.6096 42.313 17.8071C42.4788 17.8608 42.6647 17.8603 42.83 17.8057C42.9952 17.7511 43.1263 17.6469 43.1943 17.516C43.2623 17.3851 43.2616 17.2382 43.1925 17.1076C43.1234 16.9771 42.9915 16.8736 42.8257 16.8199C42.0407 16.5678 41.1986 16.445 40.3514 16.4593C39.6078 16.4741 38.874 16.5963 38.1863 16.82C38.0416 16.867 37.9219 16.9521 37.8478 17.061C37.7738 17.1698 37.7498 17.2956 37.7801 17.4169C37.8104 17.5381 37.8931 17.6473 38.014 17.7257C38.1349 17.8042 38.2865 17.847 38.443 17.847H38.4432ZM28.1887 18.2142C28.0096 18.2142 27.8378 18.2704 27.7112 18.3704C27.5845 18.4704 27.5134 18.6061 27.5134 18.7476V19.7849C27.5134 19.9264 27.5845 20.0621 27.7112 20.1621C27.8378 20.2622 28.0096 20.3184 28.1887 20.3184C28.3679 20.3184 28.5396 20.2622 28.6663 20.1621C28.793 20.0621 28.8641 19.9264 28.8641 19.7849V18.7476C28.8641 18.6061 28.793 18.4704 28.6663 18.3704C28.5396 18.2704 28.3679 18.2142 28.1887 18.2142ZM34.3473 26.6493C35.0661 26.6485 35.7551 26.4227 36.2633 26.0212C36.7715 25.6197 37.0573 25.0754 37.0581 24.5077V23.2168C37.0581 23.0753 36.9869 22.9396 36.8603 22.8396C36.7336 22.7395 36.5618 22.6833 36.3827 22.6833C36.2036 22.6833 36.0318 22.7395 35.9051 22.8396C35.7785 22.9396 35.7073 23.0753 35.7073 23.2168V24.5077C35.7073 24.7926 35.5641 25.0658 35.309 25.2672C35.054 25.4687 34.7081 25.5818 34.3474 25.5818C33.9868 25.5818 33.6409 25.4687 33.3858 25.2672C33.1308 25.0658 32.9875 24.7926 32.9875 24.5077V23.2168C32.9875 23.0753 32.9164 22.9396 32.7897 22.8396C32.6631 22.7395 32.4913 22.6833 32.3122 22.6833C32.133 22.6833 31.9613 22.7395 31.8346 22.8396C31.7079 22.9396 31.6368 23.0753 31.6368 23.2168V24.5077C31.6376 25.0754 31.9233 25.6197 32.4315 26.0211C32.9396 26.4226 33.6286 26.6485 34.3473 26.6493Z" fill="#24242B"/>
</svg>
