<svg width="89" height="77" viewBox="0 0 89 77" fill="none" xmlns="http://www.w3.org/2000/svg">
<path d="M60.5201 1.26532H12.8416L1.71655 15.0153H71.6451L60.5201 1.26532Z" fill="#EAEAEA"/>
<path d="M55.7523 50.7653C55.7523 58.0115 61.2035 65.2578 65.7171 70.0153H1.71655V15.0153H71.6451V37.0153C67.4301 37.0153 63.3877 38.4639 60.4072 41.0426C57.4267 43.6212 55.7523 47.1186 55.7523 50.7653Z" fill="#D3D2D1"/>
<path d="M44.6272 15.0153H28.7344V26.0153H44.6272V15.0153Z" fill="#9E9E9E"/>
<path d="M28.7344 15.0153H44.6272L41.4487 1.26532H31.9129L28.7344 15.0153Z" fill="#9E9E9E"/>
<path d="M23.9664 64.6252H11.2521C10.8306 64.6252 10.4264 64.4803 10.1283 64.2224C9.83028 63.9646 9.66284 63.6148 9.66284 63.2502C9.66284 62.8855 9.83028 62.5358 10.1283 62.2779C10.4264 62.02 10.8306 61.8752 11.2521 61.8752H23.9664C24.3879 61.8752 24.7922 62.02 25.0902 62.2779C25.3883 62.5358 25.5557 62.8855 25.5557 63.2502C25.5557 63.6148 25.3883 63.9646 25.0902 64.2224C24.7922 64.4803 24.3879 64.6252 23.9664 64.6252ZM23.9664 57.7502H11.2521C10.8306 57.7502 10.4264 57.6053 10.1283 57.3474C9.83028 57.0896 9.66284 56.7398 9.66284 56.3752C9.66284 56.0105 9.83028 55.6608 10.1283 55.4029C10.4264 55.145 10.8306 55.0002 11.2521 55.0002H23.9664C24.3879 55.0002 24.7922 55.145 25.0902 55.4029C25.3883 55.6608 25.5557 56.0105 25.5557 56.3752C25.5557 56.7398 25.3883 57.0896 25.0902 57.3474C24.7922 57.6053 24.3879 57.7502 23.9664 57.7502ZM87.5378 50.7652C87.5378 63.1402 71.645 75.5151 71.645 75.5151C69.5275 73.7999 67.5469 71.9623 65.7169 70.0152C61.2034 65.2577 55.7521 58.0114 55.7521 50.7652C55.7521 47.1185 57.4266 43.6211 60.407 41.0425C63.3875 38.4638 67.4299 37.0152 71.645 37.0152C75.86 37.0152 79.9024 38.4638 82.8829 41.0425C85.8634 43.6211 87.5378 47.1185 87.5378 50.7652Z" fill="#FD7401"/>
<path d="M71.6453 56.1553C75.086 56.1553 77.8753 53.7421 77.8753 50.7653C77.8753 47.7885 75.086 45.3753 71.6453 45.3753C68.2046 45.3753 65.4153 47.7885 65.4153 50.7653C65.4153 53.7421 68.2046 56.1553 71.6453 56.1553Z" fill="#E88F37"/>
<path d="M49.2675 16.5003H1.58894C1.2971 16.5008 1.01073 16.4318 0.761229 16.3008C0.511725 16.1699 0.308721 15.982 0.174476 15.7578C0.0515093 15.5404 -0.0029587 15.2988 0.0165753 15.0574C0.0361093 14.8159 0.128953 14.5832 0.285726 14.3828L11.4107 0.632804C11.5514 0.443026 11.7438 0.286077 11.9711 0.175781C12.1983 0.0654844 12.4534 0.00522374 12.7139 0.000305176H17.4818C17.9033 0.000305176 18.3075 0.145171 18.6056 0.403033C18.9036 0.660895 19.0711 1.01063 19.0711 1.3753C19.0711 1.73998 18.9036 2.08971 18.6056 2.34757C18.3075 2.60544 17.9033 2.7503 17.4818 2.7503H13.5404L4.64037 13.7503H49.2675C49.689 13.7503 50.0933 13.8952 50.3913 14.153C50.6894 14.4109 50.8568 14.7606 50.8568 15.1253C50.8568 15.49 50.6894 15.8397 50.3913 16.0976C50.0933 16.3554 49.689 16.5003 49.2675 16.5003Z" fill="black"/>
<path d="M71.5179 16.5003H55.625C55.2035 16.5003 54.7993 16.3554 54.5012 16.0976C54.2032 15.8397 54.0357 15.49 54.0357 15.1253C54.0357 14.7606 54.2032 14.4109 54.5012 14.153C54.7993 13.8952 55.2035 13.7503 55.625 13.7503H68.4664L59.5664 2.7503H23.8393C23.4178 2.7503 23.0135 2.60544 22.7155 2.34757C22.4174 2.08971 22.25 1.73998 22.25 1.3753C22.25 1.01063 22.4174 0.660895 22.7155 0.403033C23.0135 0.145171 23.4178 0.000305176 23.8393 0.000305176H60.3929C60.6491 0.000669975 60.9014 0.0546261 61.1283 0.157575C61.3552 0.260525 61.55 0.409414 61.6961 0.591554L72.8211 14.3415C72.9778 14.542 73.0707 14.7747 73.0902 15.0161C73.1098 15.2575 73.0553 15.4992 72.9323 15.7165C72.8047 15.9484 72.6045 16.1448 72.3545 16.2833C72.1046 16.4218 71.8147 16.497 71.5179 16.5003ZM44.5 27.5003H28.6071C28.1856 27.5003 27.7814 27.3554 27.4833 27.0975C27.1853 26.8397 27.0179 26.4899 27.0179 26.1253V15.1253C27.0179 14.7606 27.1853 14.4109 27.4833 14.153C27.7814 13.8952 28.1856 13.7503 28.6071 13.7503H44.5C44.9215 13.7503 45.3257 13.8952 45.6238 14.153C45.9218 14.4109 46.0893 14.7606 46.0893 15.1253V26.1253C46.0893 26.4899 45.9218 26.8397 45.6238 27.0975C45.3257 27.3554 44.9215 27.5003 44.5 27.5003ZM30.1964 24.7503H42.9107V16.5003H30.1964V24.7503Z" fill="black"/>
<path d="M44.5 16.5003H28.6071C28.3724 16.4989 28.1409 16.4526 27.9293 16.3646C27.7177 16.2767 27.5313 16.1492 27.3834 15.9915C27.228 15.8369 27.1146 15.6541 27.0513 15.4567C26.9881 15.2592 26.9767 15.052 27.0179 14.8503L30.1964 1.10028C30.2707 0.785025 30.4705 0.502295 30.7609 0.301305C31.0512 0.100315 31.4139 -0.00620742 31.7857 0.000279728H41.3214C41.6932 -0.00620742 42.0559 0.100315 42.3463 0.301305C42.6367 0.502295 42.8364 0.785025 42.9107 1.10028L46.0893 14.8503C46.1348 15.05 46.1284 15.256 46.0707 15.4534C46.013 15.6507 45.9054 15.8345 45.7555 15.9915C45.6043 16.1529 45.4127 16.2825 45.1953 16.3706C44.9778 16.4587 44.7401 16.503 44.5 16.5003ZM30.5461 13.7503H42.5611L40.0182 2.75028H33.0889L30.5461 13.7503ZM65.5898 71.5002H1.58929C1.16778 71.5002 0.76354 71.3553 0.465491 71.0975C0.167442 70.8396 0 70.4899 0 70.1252V66.0002C0 65.6355 0.167442 65.2858 0.465491 65.0279C0.76354 64.7701 1.16778 64.6252 1.58929 64.6252C2.01079 64.6252 2.41503 64.7701 2.71308 65.0279C3.01113 65.2858 3.17857 65.6355 3.17857 66.0002V68.7502H62.3318C58.1838 63.9102 54.0357 57.434 54.0357 50.8752C54.0176 47.0911 55.6397 43.4385 58.582 40.6384C61.5242 37.8384 65.5728 36.0942 69.9286 35.7502V16.5003H55.625C55.2035 16.5003 54.7993 16.3554 54.5012 16.0975C54.2032 15.8397 54.0357 15.4899 54.0357 15.1253C54.0357 14.7606 54.2032 14.4109 54.5012 14.153C54.7993 13.8951 55.2035 13.7503 55.625 13.7503H71.5179C71.9394 13.7503 72.3436 13.8951 72.6417 14.153C72.9397 14.4109 73.1071 14.7606 73.1071 15.1253V37.1252C73.1071 37.4899 72.9397 37.8396 72.6417 38.0975C72.3436 38.3554 71.9394 38.5002 71.5179 38.5002C67.7243 38.5002 64.0862 39.804 61.4037 42.1248C58.7213 44.4455 57.2143 47.5932 57.2143 50.8752C57.2143 57.7502 62.443 64.6252 66.75 69.2589C66.9357 69.4565 67.0544 69.6947 67.0928 69.9471C67.1312 70.1996 67.0879 70.4563 66.9676 70.6886C66.8473 70.921 66.6548 71.1199 66.4115 71.2632C66.1683 71.4065 65.8838 71.4885 65.5898 71.5002Z" fill="black"/>
<path d="M1.58929 55.0003C1.16778 55.0003 0.76354 54.8554 0.465491 54.5975C0.167442 54.3397 0 53.9899 0 53.6253V15.1253C0 14.7606 0.167442 14.4109 0.465491 14.153C0.76354 13.8952 1.16778 13.7503 1.58929 13.7503H49.2679C49.6894 13.7503 50.0936 13.8952 50.3917 14.153C50.6897 14.4109 50.8571 14.7606 50.8571 15.1253C50.8571 15.49 50.6897 15.8397 50.3917 16.0976C50.0936 16.3554 49.6894 16.5003 49.2679 16.5003H3.17857V53.6253C3.17857 53.9899 3.01113 54.3397 2.71308 54.5975C2.41503 54.8554 2.01079 55.0003 1.58929 55.0003ZM1.58929 61.8752C1.16778 61.8752 0.76354 61.7304 0.465491 61.4725C0.167442 61.2147 0 60.8649 0 60.5002V59.1253C0 58.7606 0.167442 58.4108 0.465491 58.153C0.76354 57.8951 1.16778 57.7503 1.58929 57.7503C2.01079 57.7503 2.41503 57.8951 2.71308 58.153C3.01113 58.4108 3.17857 58.7606 3.17857 59.1253V60.5002C3.17857 60.8649 3.01113 61.2147 2.71308 61.4725C2.41503 61.7304 2.01079 61.8752 1.58929 61.8752ZM71.5179 77.0002C71.124 76.9993 70.7445 76.8719 70.453 76.6427C68.2749 74.8835 66.241 72.9952 64.3661 70.9915C59.6459 66.0002 54.0357 58.5065 54.0357 50.8753C54.0357 46.8639 55.8776 43.0168 59.1561 40.1803C62.4347 37.3438 66.8813 35.7503 71.5179 35.7503C76.1544 35.7503 80.6011 37.3438 83.8796 40.1803C87.1581 43.0168 89 46.8639 89 50.8753C88.7727 55.6642 87.0779 60.3147 84.0891 64.3502C83.9975 64.5256 83.8644 64.6823 83.6984 64.8103C83.5324 64.9384 83.3372 65.0348 83.1255 65.0935C82.9137 65.1522 82.69 65.1717 82.4689 65.1509C82.2479 65.1301 82.0343 65.0694 81.842 64.9727C81.6498 64.876 81.4832 64.7454 81.3529 64.5895C81.2226 64.4336 81.1316 64.2558 81.0857 64.0675C81.0399 63.8792 81.0402 63.6847 81.0867 63.4966C81.1331 63.3085 81.2247 63.1308 81.3555 62.9752C84.049 59.3522 85.5895 55.1783 85.8214 50.8753C85.8214 47.5932 84.3144 44.4456 81.632 42.1248C78.9496 39.8041 75.3114 38.5003 71.5179 38.5003C67.7243 38.5003 64.0861 39.8041 61.4037 42.1248C58.7213 44.4456 57.2143 47.5932 57.2143 50.8753C57.2143 57.7503 62.443 64.6252 66.75 69.259C68.6571 71.2527 70.3895 72.8202 71.5179 73.7277C73.8067 71.742 75.931 69.6193 77.875 67.3752C78.1279 67.0835 78.5044 66.8906 78.9217 66.8391C79.3389 66.7875 79.7628 66.8814 80.1 67.1002C80.4372 67.319 80.6601 67.6448 80.7197 68.0058C80.7794 68.3668 80.6708 68.7335 80.4179 69.0252C78.0606 71.7561 75.428 74.3007 72.5509 76.629C72.2699 76.8569 71.9028 76.9889 71.5179 77.0002Z" fill="black"/>
<path d="M71.5177 57.7503C69.4102 57.7503 67.389 57.026 65.8987 55.7366C64.4085 54.4473 63.5713 52.6987 63.5713 50.8753C63.5738 49.8106 63.8622 48.7609 64.4136 47.809C64.4976 47.6345 64.6223 47.4768 64.78 47.3458C64.9376 47.2149 65.1248 47.1135 65.3298 47.0479C65.5348 46.9823 65.7532 46.9541 65.9714 46.9649C66.1896 46.9756 66.4029 47.0252 66.5979 47.1106C66.7929 47.1959 66.9655 47.3151 67.1049 47.4607C67.2443 47.6063 67.3474 47.7753 67.4079 47.957C67.4684 48.1387 67.485 48.3292 67.4565 48.5167C67.4281 48.7042 67.3552 48.8845 67.2425 49.0465C66.7831 49.8503 66.6388 50.7616 66.8316 51.6426C67.0244 52.5236 67.5437 53.3263 68.311 53.9291C69.0782 54.5319 70.0516 54.9019 71.0837 54.9833C72.1159 55.0646 73.1505 54.8528 74.031 54.3799C74.9115 53.9069 75.5899 53.1986 75.9635 52.3623C76.3371 51.5259 76.3856 50.607 76.1015 49.7447C75.8175 48.8824 75.2164 48.1236 74.3893 47.5833C73.5622 47.043 72.5541 46.7506 71.5177 46.7503H71.2793C70.8578 46.7904 70.4352 46.684 70.1043 46.4545C69.7735 46.225 69.5616 45.8912 69.5152 45.5265C69.4689 45.1619 69.5918 44.7962 69.8571 44.51C70.1224 44.2237 70.5082 44.0404 70.9297 44.0003C71.1254 43.9866 71.322 43.9866 71.5177 44.0003C73.6252 44.0003 75.6464 44.7246 77.1367 46.0139C78.6269 47.3032 79.4641 49.0519 79.4641 50.8753C79.4641 52.6987 78.6269 54.4473 77.1367 55.7366C75.6464 57.026 73.6252 57.7503 71.5177 57.7503Z" fill="black"/>
</svg>
