<svg width="80" height="86" viewBox="0 0 80 86" fill="none" xmlns="http://www.w3.org/2000/svg">
<path d="M77.0304 58.9718C78.608 57.2759 79.5 54.9684 79.5 52.5556V9.55556C79.5 7.14268 78.608 4.83525 77.0304 3.13932C75.4539 1.4446 73.3238 0.500004 71.1111 0.500004H8.88889C6.67617 0.500004 4.54607 1.4446 2.96959 3.13932C1.39198 4.83525 0.5 7.14268 0.5 9.55556V52.5556C0.5 54.9684 1.39198 57.2759 2.96959 58.9718C4.54607 60.6665 6.67617 61.6111 8.88889 61.6111H71.1111C73.3238 61.6111 75.4539 60.6665 77.0304 58.9718Z" fill="#5E5E61" stroke="black"/>
<path d="M9.38892 10.0556V52.0556H70.6111V10.0556H9.38892Z" fill="#5DADEC" stroke="black"/>
<path d="M29.3889 62.6111V75.9444H50.6111V62.6111H29.3889Z" fill="#5E5E61" stroke="black"/>
<path d="M29.3889 62.6111V66.3889H50.6111V62.6111H29.3889Z" fill="#666666" stroke="black"/>
<path d="M79.5 78.8333C79.5 77.054 78.8421 75.3542 77.6813 74.1063C76.5216 72.8596 74.9567 72.1667 73.3333 72.1667H6.66667C5.04331 72.1667 3.47845 72.8596 2.31872 74.1063C1.15785 75.3542 0.5 77.054 0.5 78.8333C0.5 80.6126 1.15785 82.3124 2.31872 83.5604C3.47845 84.8071 5.04331 85.5 6.66667 85.5H73.3333C74.9567 85.5 76.5216 84.8071 77.6813 83.5604C78.8421 82.3125 79.5 80.6126 79.5 78.8333Z" fill="#979797" stroke="black"/>
<path d="M7.16675 76.9445V80.7222H10.6112V76.9445H7.16675ZM16.0556 76.9445V80.7222H19.5001V76.9445H16.0556ZM24.9445 76.9445V80.7222H28.389V76.9445H24.9445ZM33.8334 76.9445V80.7222H37.2779V76.9445H33.8334ZM42.7223 76.9445V80.7222H46.1667V76.9445H42.7223ZM51.6112 76.9445V80.7222H55.0556V76.9445H51.6112ZM60.5001 76.9445V80.7222H63.9445V76.9445H60.5001ZM69.389 76.9445V80.7222H72.8334V76.9445H69.389Z" fill="#F5F8FA" stroke="black"/>
</svg>
