<svg width="85" height="81" viewBox="0 0 85 81" fill="none" xmlns="http://www.w3.org/2000/svg">
<path d="M83.5831 53.9666H1.41706V79.6199H83.5831V53.9666Z" fill="#898890"/>
<path d="M52.4166 55.3168H31.1667V68.8186H52.4166V55.3168Z" fill="#787680"/>
<path d="M83.5831 44.5154L75.0831 32.3638H9.91699L1.41706 44.5154L7.08368 25.6129H77.9165L83.5831 44.5154Z" fill="#57565C"/>
<path d="M83.5831 44.5154H1.41706L9.91699 32.3638H75.0831L83.5831 44.5154Z" fill="#3E3D42"/>
<path d="M52.4167 53.9666H32.5835V67.4684H52.4167V53.9666Z" fill="#3E3D42"/>
<path d="M73.6665 13.4613C73.6649 15.973 72.8468 18.4225 71.3246 20.4728C69.8025 22.5232 67.6511 24.0736 65.1665 24.9108V44.5154H56.6666V24.9108C54.1814 24.0746 52.0295 22.5244 50.5074 20.4738C48.9853 18.4232 48.168 15.9732 48.168 13.4613C48.168 10.9495 48.9853 8.49949 50.5074 6.4489C52.0295 4.39831 54.1814 2.84809 56.6666 2.01186V12.1112H65.1665V2.01186C67.6511 2.84908 69.8025 4.39951 71.3246 6.44984C72.8468 8.50018 73.6649 10.9497 73.6665 13.4613Z" fill="#E0E0E2"/>
<path d="M46.7501 53.9666H38.2502V60.7175H46.7501V53.9666Z" fill="white"/>
<path d="M34.0002 36.4143H29.7502V44.5154H34.0002V36.4143Z" fill="#0CFFC8"/>
<path d="M29.7502 36.4143H24.0836V44.5154H29.7502V36.4143Z" fill="#0E7490"/>
<path d="M24.0834 36.4143H19.8335V44.5154H24.0834V36.4143Z" fill="#0CFFC8"/>
<path d="M34 31.0136H19.8335V36.4143H34V31.0136Z" fill="#32EEC4"/>
<path d="M29.7502 5.36032V31.0136H24.0836V5.36032L26.9169 1.3098L29.7502 5.36032Z" fill="#E0E0E2"/>
<path d="M83.5831 44.5154H1.41706V53.9666H83.5831V44.5154Z" fill="#C6C5CA"/>
<path d="M32.5835 53.9666H1.41706V55.3168H32.5835V53.9666Z" fill="#787680"/>
<path d="M83.5829 53.9666H52.4165V55.3168H83.5829V53.9666Z" fill="#787680"/>
<path d="M56.6664 25.6129H55.2498V32.3638H56.6664V25.6129Z" fill="#3E3D42"/>
<path d="M56.6664 32.3638H55.2498V44.5154H56.6664V32.3638Z" fill="#2D2D30"/>
<path d="M24.0834 25.6129H22.6668V31.0136H24.0834V25.6129Z" fill="#3E3D42"/>
<path d="M19.8336 31.0136H18.417V32.3638H19.8336V31.0136Z" fill="#3E3D42"/>
<path d="M19.8336 32.3638H18.417V44.5154H19.8336V32.3638Z" fill="#2D2D30"/>
<path d="M25.5002 32.3638H21.2503V33.714H25.5002V32.3638Z" fill="#3EC9AA"/>
<path d="M26.9168 6.71048H25.5001V25.6129H26.9168V6.71048Z" fill="white"/>
<path d="M58.0831 14.8115H55.2498V20.2122H58.0831V14.8115Z" fill="white"/>
<path d="M59.4998 25.6129H58.0831V41.815H59.4998V25.6129Z" fill="white"/>
<path d="M14.8753 45.8656H6.37536C5.20177 45.8656 4.25038 46.7723 4.25038 47.8908C4.25038 49.0094 5.20177 49.9161 6.37536 49.9161H14.8753C16.0489 49.9161 17.0003 49.0094 17.0003 47.8908C17.0003 46.7723 16.0489 45.8656 14.8753 45.8656Z" fill="#D8D7DA"/>
<path d="M84.943 44.1508L79.2764 25.2484C79.1931 24.9654 79.0153 24.7161 78.7698 24.5382C78.5244 24.3603 78.2247 24.2636 77.9164 24.2627H69.3315C71.4005 22.8133 73.0151 20.853 74.0012 18.5933C74.9872 16.3335 75.3072 13.8601 74.9267 11.4397C74.5462 9.01941 73.4797 6.74399 71.842 4.8589C70.2044 2.97381 68.0579 1.55058 65.634 0.742707C65.4209 0.671707 65.1931 0.650269 64.9695 0.680178C64.746 0.710087 64.5332 0.790478 64.3488 0.914652C64.1645 1.03883 64.014 1.20319 63.9098 1.39405C63.8056 1.5849 63.7507 1.79673 63.7498 2.01187V10.761H58.0832V2.01187C58.0823 1.79673 58.0275 1.5849 57.9233 1.39405C57.8191 1.20319 57.6686 1.03883 57.4842 0.914652C57.2999 0.790478 57.0871 0.710087 56.8635 0.680178C56.64 0.650269 56.4122 0.671707 56.1991 0.742707C53.7751 1.55058 51.6286 2.97381 49.991 4.8589C48.3534 6.74399 47.2868 9.01941 46.9063 11.4397C46.5258 13.8601 46.8459 16.3335 47.8319 18.5933C48.8179 20.853 50.4325 22.8133 52.5016 24.2627H31.1668V5.3603C31.1674 5.09521 31.0834 4.8362 30.9259 4.61771L28.0926 0.567184C27.957 0.391359 27.78 0.248403 27.5757 0.149872C27.3715 0.0513407 27.1457 0 26.9168 0C26.6879 0 26.4621 0.0513407 26.2579 0.149872C26.0536 0.248403 25.8765 0.391359 25.741 0.567184L22.9077 4.61771C22.7501 4.8362 22.6661 5.09521 22.6668 5.3603V24.2627H7.08361C6.77526 24.2636 6.47562 24.3603 6.23018 24.5382C5.98473 24.7161 5.80688 24.9654 5.72362 25.2484L0.0570022 44.1508C0.0163421 44.2683 -0.00282556 44.3917 0.000336034 44.5154V79.6199C0.000336034 79.978 0.14959 80.3214 0.415265 80.5746C0.680939 80.8278 1.04127 80.9701 1.41699 80.9701H83.583C83.9587 80.9701 84.3191 80.8278 84.5847 80.5746C84.8504 80.3214 84.9997 79.978 84.9997 79.6199V44.5154C85.0028 44.3917 84.9837 44.2683 84.943 44.1508ZM76.8539 26.9631L79.7297 36.5763L76.2589 31.6212C76.1306 31.4355 75.9561 31.2828 75.751 31.1768C75.5458 31.0708 75.3164 31.0148 75.0831 31.0136H66.5831V26.9631H76.8539ZM80.9339 43.1652H66.5831V33.714H74.3181L80.9339 43.1652ZM49.5833 13.4614C49.5869 11.5675 50.1122 9.70773 51.1066 8.06808C52.1011 6.42843 53.5298 5.06637 55.2499 4.11814V12.1112C55.2499 12.4693 55.3992 12.8127 55.6648 13.0659C55.9305 13.3191 56.2908 13.4614 56.6666 13.4614H65.1665C65.5422 13.4614 65.9025 13.3191 66.1682 13.0659C66.4339 12.8127 66.5831 12.4693 66.5831 12.1112V4.11814C68.4584 5.14749 69.9844 6.66788 70.9803 8.49895C71.9762 10.33 72.4002 12.3949 72.2018 14.4487C72.0035 16.5024 71.1912 18.4589 69.8613 20.0859C68.5315 21.713 66.7398 22.9423 64.699 23.6282C64.4219 23.7234 64.1822 23.8976 64.0124 24.127C63.8426 24.3564 63.751 24.6301 63.7498 24.9108V43.1652H58.0832V24.9108C58.0821 24.6301 57.9904 24.3564 57.8206 24.127C57.6509 23.8976 57.4112 23.7234 57.1341 23.6282C54.9282 22.8838 53.0181 21.5069 51.6661 19.6866C50.3142 17.8662 49.5866 15.6916 49.5833 13.4614ZM31.1668 26.9631H55.2499V31.0136H35.4167C35.4167 30.6555 35.2675 30.3121 35.0018 30.0589C34.7361 29.8057 34.3758 29.6634 34.0001 29.6634H31.1668V26.9631ZM55.2499 33.714V43.1652H35.4167V33.714H55.2499ZM25.5001 5.76536L26.9168 3.74009L28.3334 5.76536V29.6634H25.5001V5.76536ZM32.5834 32.3638V35.0641H21.2502V32.3638H32.5834ZM32.5834 37.7645V43.1652H31.1668V37.7645H32.5834ZM28.3334 37.7645V43.1652H25.5001V37.7645H28.3334ZM22.6668 37.7645V43.1652H21.2502V37.7645H22.6668ZM8.1461 26.9631H22.6668V29.6634H19.8335C19.4578 29.6634 19.0975 29.8057 18.8318 30.0589C18.5661 30.3121 18.4169 30.6555 18.4169 31.0136H9.91692C9.68359 31.0148 9.45417 31.0708 9.24904 31.1768C9.04391 31.2828 8.86943 31.4355 8.7411 31.6212L5.27029 36.5763L8.1461 26.9631ZM10.6819 33.714H18.4169V43.1652H4.06614L10.6819 33.714ZM82.1664 78.2697H2.83365V55.3168H31.1668V67.4683C31.1668 67.8264 31.316 68.1698 31.5817 68.423C31.8474 68.6763 32.2077 68.8185 32.5834 68.8185H52.4166C52.7923 68.8185 53.1526 68.6763 53.4183 68.423C53.684 68.1698 53.8332 67.8264 53.8332 67.4683V55.3168H82.1664V78.2697ZM38.25 62.0676H46.75C47.1257 62.0676 47.486 61.9254 47.7517 61.6722C48.0174 61.419 48.1666 61.0755 48.1666 60.7175V55.3168H50.9999V66.1182H34.0001V55.3168H36.8334V60.7175C36.8334 61.0755 36.9826 61.419 37.2483 61.6722C37.514 61.9254 37.8743 62.0676 38.25 62.0676ZM39.6667 59.3673V55.3168H45.3333V59.3673H39.6667ZM82.1664 52.6164H2.83365V45.8655H82.1664V52.6164Z" fill="black"/>
</svg>
