<svg width="73" height="87" viewBox="0 0 73 87" fill="none" xmlns="http://www.w3.org/2000/svg">
<path d="M58.8056 21.6856V54.5767H14.1945V21.6856C14.1945 16.3959 16.5446 11.3228 20.7277 7.5824C24.9108 3.842 30.5843 1.74066 36.5001 1.74066C42.4159 1.74066 48.0894 3.842 52.2725 7.5824C56.4556 11.3228 58.8056 16.3959 58.8056 21.6856Z" fill="#A87E6B"/>
<path d="M58.8056 21.6856V54.5767H18.25V21.6856C18.2523 16.7112 20.3333 11.917 24.0849 8.24383C27.8364 4.57063 32.9876 2.28355 38.5278 1.83133C44.0679 2.28355 49.2192 4.57063 52.9707 8.24383C56.7222 11.917 58.8033 16.7112 58.8056 21.6856Z" fill="#BE927C"/>
<path d="M70.9721 65.5645V85.1468H2.02762V65.5645C2.03395 63.1989 2.90242 60.8996 4.50145 59.015C6.10048 57.1304 8.34293 55.7632 10.889 55.1206C13.7437 54.5175 16.6447 54.1054 19.5679 53.8876C32.5862 52.2376 27.2735 52.5096 42.5832 52.5096L60.529 54.7942C63.4278 55.1652 66.0798 56.4585 67.9981 58.4369C69.9164 60.4153 70.9723 62.946 70.9721 65.5645Z" fill="#0E7490"/>
<path d="M70.9722 65.5645V81.5204H12.1667C10.5533 81.5204 9.00594 80.9473 7.86509 79.9272C6.72425 78.9071 6.08333 77.5236 6.08333 76.0809V63.7513C6.08874 62.0792 6.52513 60.4307 7.35861 58.9339C8.19209 57.4371 9.40021 56.1322 10.8892 55.1206C11.4056 54.9735 11.9346 54.8644 12.4708 54.7942C38.1628 51.5123 34.9994 51.5305 60.5292 54.7942C63.428 55.1651 66.0799 56.4585 67.9982 58.4369C69.9165 60.4153 70.9725 62.946 70.9722 65.5645Z" fill="#0E7490"/>
<path d="M36.4999 57.9491L28.3888 65.2018L19.5679 53.8876L30.4165 52.5096L36.4999 57.9491Z" fill="#0E7490"/>
<path d="M34.4721 56.1359L30.0921 60.0524C29.8792 60.2351 29.6243 60.3741 29.3451 60.4596C29.0659 60.5452 28.7692 60.5751 28.4757 60.5475C28.1822 60.5199 27.8989 60.4353 27.6458 60.2997C27.3926 60.1641 27.1756 59.9807 27.0099 59.7623L22.1432 53.525L30.4166 52.5096L34.4721 56.1359Z" fill="#0E7490"/>
<path d="M53.4319 53.8876L44.6111 65.2018L36.5 57.9491L42.5833 52.5096L53.4319 53.8876Z" fill="#0E7490"/>
<path d="M18.2501 70.6415V85.1469H14.1945V70.6415C14.1945 70.1606 14.4082 69.6994 14.7884 69.3593C15.1687 69.0193 15.6845 68.8283 16.2223 68.8283C16.7601 68.8283 17.2759 69.0193 17.6562 69.3593C18.0364 69.6994 18.2501 70.1606 18.2501 70.6415ZM58.8056 70.6415V85.1469H54.7501V70.6415C54.7501 70.1606 54.9637 69.6994 55.344 69.3593C55.7243 69.0193 56.2401 68.8283 56.7779 68.8283C57.3157 68.8283 57.8314 69.0193 58.2117 69.3593C58.592 69.6994 58.8056 70.1606 58.8056 70.6415ZM35.0604 76.6068C35.4422 76.2654 35.9601 76.0736 36.5001 76.0736C37.0401 76.0736 37.558 76.2654 37.9398 76.6068C38.3216 76.9482 38.5361 77.4113 38.5361 77.8942C38.5361 78.377 38.3216 78.8401 37.9398 79.1815C37.558 79.523 37.0401 79.7148 36.5001 79.7148C35.9601 79.7148 35.4422 79.523 35.0604 79.1815C34.6785 78.8401 34.464 78.377 34.464 77.8942C34.464 77.4113 34.6785 76.9482 35.0604 76.6068ZM35.0604 69.3541C35.2494 69.185 35.4739 69.0509 35.7209 68.9595C35.9679 68.868 36.2327 68.8209 36.5001 68.8209C36.7675 68.8209 37.0322 68.868 37.2792 68.9595C37.5263 69.0509 37.7507 69.185 37.9398 69.3541C38.1289 69.5232 38.2788 69.7239 38.3812 69.9447C38.4835 70.1656 38.5361 70.4024 38.5361 70.6415C38.5361 70.8805 38.4835 71.1173 38.3812 71.3382C38.2788 71.5591 38.1289 71.7598 37.9398 71.9288C37.558 72.2702 37.0401 72.4621 36.5001 72.4621C35.9601 72.4621 35.4422 72.2702 35.0604 71.9288C34.6785 71.5874 34.464 71.1243 34.464 70.6415C34.464 70.1586 34.6785 69.6955 35.0604 69.3541Z" fill="#0E7490"/>
<path d="M50.6944 21.6856C49.4169 38.0042 49.7008 38.6207 47.531 41.6306C46.0527 43.7018 43.8824 45.3042 41.328 46.2101C38.7737 47.1161 35.9651 47.2796 33.3009 46.6775C30.6367 46.0754 28.2523 44.7383 26.4861 42.856C24.7198 40.9736 23.6615 38.6416 23.4613 36.191C23.1571 32.2202 22.6908 26.4724 22.3055 21.6856C25.4283 20.7609 28.3888 19.7818 30.4166 16.2461C37.0677 20.7065 43.3741 21.6856 50.6944 21.6856Z" fill="#F6CCAF"/>
<path d="M50.6946 21.6856C49.4171 38.0042 49.701 38.6207 47.5313 41.6306C46.6863 42.8593 45.5766 43.9256 44.2665 44.7673C42.3905 45.2661 40.4132 45.3814 38.4806 45.1047C36.5481 44.828 34.7098 44.1665 33.1017 43.169C31.4936 42.1715 30.1568 40.8636 29.1901 39.3419C28.2235 37.8202 27.6517 36.1237 27.5171 34.3778C27.294 31.4586 26.5032 21.6856 26.3815 20.1444C28.1068 19.2067 29.5044 17.8565 30.4168 16.2461C37.0679 20.7065 43.3743 21.6856 50.6946 21.6856Z" fill="#FFDEC7"/>
<path d="M54.7498 43.4437H40.5554C40.0176 43.4437 39.5018 43.2527 39.1215 42.9127C38.7413 42.5726 38.5276 42.1114 38.5276 41.6306C38.5276 41.1497 38.7413 40.6885 39.1215 40.3484C39.5018 40.0084 40.0176 39.8174 40.5554 39.8174H54.7498C55.2876 39.8174 55.8034 39.6263 56.1837 39.2863C56.564 38.9463 56.7776 38.4851 56.7776 38.0042V32.0751C56.7776 31.5942 56.9913 31.133 57.3715 30.793C57.7518 30.453 58.2676 30.2619 58.8054 30.2619C59.3432 30.2619 59.859 30.453 60.2393 30.793C60.6195 31.133 60.8332 31.5942 60.8332 32.0751V38.0042C60.8332 39.4469 60.1922 40.8304 59.0514 41.8505C57.9106 42.8706 56.3632 43.4437 54.7498 43.4437Z" fill="#374F68"/>
<path d="M42.5833 45.7283V52.5096L36.5 57.9492L30.4167 52.5096V45.7283C32.2934 46.6083 34.3809 47.068 36.5 47.068C38.6191 47.068 40.7066 46.6083 42.5833 45.7283Z" fill="#F6CCAF"/>
<path d="M42.5835 45.7283V52.5096L38.5279 56.136L34.4724 52.5096V46.925C37.2496 47.3147 40.0934 46.8951 42.5835 45.7283Z" fill="#FFDEC7"/>
<path d="M38.5275 56.136L42.9075 60.0524C43.1204 60.2352 43.3754 60.3742 43.6546 60.4597C43.9338 60.5452 44.2305 60.5752 44.524 60.5476C44.8175 60.5199 45.1007 60.4354 45.3539 60.2997C45.607 60.1641 45.8241 59.9807 45.9897 59.7623L50.8564 53.525L42.5831 52.5096L38.5275 56.136ZM60.8331 27.1251C60.8331 30.1713 61.3806 32.5647 58.8053 33.8883C57.4872 34.5773 56.7775 34.3778 49.6803 34.3778L50.5522 23.4988H56.7775C57.8531 23.4988 58.8847 23.8808 59.6452 24.5609C60.4058 25.241 60.8331 26.1634 60.8331 27.1251ZM23.3192 34.3778C15.7759 34.3778 15.4311 34.541 14.1942 33.8883C11.6797 32.5647 12.1664 30.5339 12.1664 27.1251C12.1664 26.1634 12.5937 25.241 13.3543 24.5609C14.1148 23.8808 15.1464 23.4988 16.222 23.4988H22.4472C23.157 32.2202 22.9542 29.8086 23.3192 34.3778Z" fill="#0E7490"/>
<path d="M23.0355 30.7515C21.4201 30.9763 19.7668 30.8072 18.2499 30.2619C15.7355 28.9383 16.2221 26.9076 16.2221 23.4988H22.4474L23.0355 30.7515ZM49.9643 30.7515C51.5797 30.9763 53.233 30.8072 54.7499 30.2619C57.2643 28.9564 56.7777 26.9076 56.7777 23.4988H50.5524L49.9643 30.7515Z" fill="#0E7490"/>
<path d="M60.8333 53.0173V34.7586C63.2667 32.8004 62.8611 30.8422 62.8611 27.1251C62.8627 26.3665 62.6825 25.6163 62.3328 24.9251C61.983 24.2339 61.4717 23.6177 60.8333 23.118C60.8333 -7.70601 12.1667 -7.70601 12.1667 23.118C11.5293 23.6185 11.0187 24.2348 10.6691 24.9259C10.3194 25.6169 10.1386 26.3667 10.1389 27.1251C10.1389 30.4433 9.6725 32.746 12.1667 34.7586V53.0173C8.79123 53.453 5.70404 54.9607 3.46989 57.2647C1.23574 59.5688 0.00399697 62.515 0 65.5645V85.1468C0 85.6277 0.213641 86.0889 0.593923 86.4289C0.974205 86.769 1.48998 86.96 2.02778 86.96H70.9722C71.51 86.96 72.0258 86.769 72.4061 86.4289C72.7864 86.0889 73 85.6277 73 85.1468V65.5645C72.996 62.515 71.7643 59.5688 69.5301 57.2647C67.296 54.9607 64.2088 53.453 60.8333 53.0173ZM44.6111 50.9322C44.6111 45.1481 44.0433 47.5959 46.7606 45.2751C49.4778 42.9542 46.4969 43.4619 54.75 43.4619C55.4418 43.457 56.1275 43.3466 56.7778 43.1355V52.5096L44.6111 50.9322ZM16.2222 52.5096V36.191C22.1636 36.191 21.4133 36.191 21.4336 36.3542C21.5995 38.4526 22.3156 40.4866 23.5239 42.2915C24.7322 44.0965 26.3989 45.6217 28.3889 46.7437V50.9322L16.2222 52.5096ZM20.5617 25.312L21.1294 32.5647H16.2222C15.6844 32.5647 15.1686 32.3736 14.7884 32.0336C14.4081 31.6936 14.1944 31.2324 14.1944 30.7515C14.1944 24.8949 13.4644 25.312 20.5617 25.312ZM56.7778 25.312C57.3156 25.312 57.8313 25.503 58.2116 25.843C58.5919 26.1831 58.8056 26.6443 58.8056 27.1251C58.8056 33.1086 59.5558 32.5647 51.8706 32.5647L52.4383 25.312H56.7778ZM56.7778 38.0042C56.7778 38.4851 56.5641 38.9463 56.1839 39.2863C55.8036 39.6264 55.2878 39.8174 54.75 39.8174H50.6944C51.1647 38.6505 51.4447 37.4292 51.5258 36.191H56.7778V38.0042ZM46.3347 39.8174H40.5556C40.0178 39.8174 39.502 40.0084 39.1217 40.3484C38.7414 40.6885 38.5278 41.1497 38.5278 41.6306C38.5278 42.1114 38.7414 42.5726 39.1217 42.9127C39.502 43.2527 40.0178 43.4437 40.5556 43.4437H42.8672C41.2764 44.446 39.4177 45.0549 37.4793 45.2088C35.5408 45.3626 33.5913 45.0561 31.8278 44.3201C30.0644 43.5841 28.5495 42.4448 27.4365 41.0174C26.3235 39.59 25.6517 37.9251 25.4892 36.191C24.3333 21.6856 24.3131 23.0999 24.7389 22.973C27.2402 22.2194 29.4258 20.8028 31.0047 18.9114C36.2246 21.9255 42.3111 23.5191 48.5247 23.4988C47.45 36.9163 47.6933 37.424 46.3347 39.8174ZM36.5 55.3926L32.4444 51.7662V48.3574C35.0918 49.0556 37.9082 49.0556 40.5556 48.3574V51.7662L36.5 55.3926ZM29.7069 54.4316L33.6408 57.9492L28.6728 62.3914L23.1167 55.2657L29.7069 54.4316ZM43.2931 54.4316L49.8833 55.2657L44.3272 62.3914L39.3592 57.9492L43.2931 54.4316ZM22.1636 8.86644C24.9995 6.33144 28.6123 4.60518 32.5452 3.90589C36.4781 3.20659 40.5546 3.56565 44.2594 4.93768C47.9641 6.30971 51.1308 8.63311 53.359 11.6142C55.5872 14.5952 56.7769 18.1 56.7778 21.6856H52.7222C52.7222 17.6422 43.6175 22.8279 31.6536 14.7955C31.4166 14.6375 31.1437 14.5277 30.8542 14.4738C30.5647 14.42 30.2656 14.4235 29.9777 14.4839C29.6898 14.5444 29.4202 14.6604 29.1878 14.8239C28.9554 14.9873 28.7658 15.1942 28.6322 15.4301C25.6919 20.6521 20.2778 18.7483 20.2778 21.6856H16.2222C16.2128 19.3034 16.7332 16.9432 17.7532 14.7425C18.7732 12.5418 20.2724 10.5443 22.1636 8.86644ZM68.9444 83.3336H58.8056V70.6414C58.8056 70.1605 58.5919 69.6993 58.2116 69.3593C57.8313 69.0193 57.3156 68.8282 56.7778 68.8282C56.24 68.8282 55.7242 69.0193 55.3439 69.3593C54.9636 69.6993 54.75 70.1605 54.75 70.6414V83.3336H18.25V70.6414C18.25 70.1605 18.0364 69.6993 17.6561 69.3593C17.2758 69.0193 16.76 68.8282 16.2222 68.8282C15.6844 68.8282 15.1686 69.0193 14.7884 69.3593C14.4081 69.6993 14.1944 70.1605 14.1944 70.6414V83.3336H4.05556V65.5645C4.03067 63.3674 4.89904 61.2369 6.49917 59.5693C8.09929 57.9017 10.3223 56.8105 12.7547 56.4986L18.615 55.7552C27.3142 66.9063 26.9086 66.8156 28.2064 66.9244C29.5042 67.0332 29.2 66.9244 36.5 60.4151C43.6986 67.015 43.5161 67.1057 44.7936 67.015C46.0711 66.9244 45.6858 67.015 54.385 55.8459L60.2453 56.5893C62.6777 56.9012 64.9007 57.9924 66.5008 59.66C68.101 61.3275 68.9693 63.458 68.9444 65.6552V83.3336Z" fill="black"/>
<path d="M35.06 76.6068C34.6782 76.9482 34.4637 77.4113 34.4637 77.8942C34.4637 78.377 34.6782 78.8401 35.06 79.1815C35.4419 79.5229 35.9598 79.7148 36.4998 79.7148C37.0398 79.7148 37.5576 79.5229 37.9395 79.1815C38.3213 78.8401 38.5358 78.377 38.5358 77.8942C38.5358 77.4113 38.3213 76.9482 37.9395 76.6068C37.5576 76.2654 37.0398 76.0736 36.4998 76.0736C35.9598 76.0736 35.4419 76.2654 35.06 76.6068ZM35.06 69.3541C34.7781 69.6083 34.5866 69.9313 34.5097 70.2827C34.4328 70.634 34.474 70.9978 34.6279 71.3282C34.7819 71.6587 35.0418 71.941 35.3749 72.1396C35.708 72.3381 36.0994 72.4441 36.4998 72.4441C36.9001 72.4441 37.2915 72.3381 37.6246 72.1396C37.9577 71.941 38.2176 71.6587 38.3716 71.3282C38.5256 70.9978 38.5667 70.634 38.4898 70.2827C38.4129 69.9313 38.2214 69.6083 37.9395 69.3541C37.751 69.1841 37.5267 69.0492 37.2796 68.9572C37.0325 68.8651 36.7674 68.8177 36.4998 68.8177C36.2321 68.8177 35.967 68.8651 35.7199 68.9572C35.4728 69.0492 35.2485 69.1841 35.06 69.3541Z" fill="black"/>
</svg>
