<svg width="86" height="81" viewBox="0 0 86 81" fill="none" xmlns="http://www.w3.org/2000/svg">
<path d="M80.2164 6.95966L78.4828 6.03074C76.0268 4.72523 73.2853 3.95312 70.4632 3.77215C67.6412 3.59119 64.8118 4.00605 62.1864 4.98571L57.6789 6.4952L46.0426 2.62471C41.2557 1.00755 36.0224 0.939367 31.1886 2.43119L29.4134 2.99886C29.242 3.05231 29.0908 3.15043 28.9777 3.28155C28.8645 3.41266 28.7943 3.57125 28.7753 3.73844C28.7563 3.90563 28.7894 4.07437 28.8705 4.22459C28.9517 4.37481 29.0775 4.50017 29.2331 4.58576L42.8804 11.6558L25.5022 17.5777L20.7312 13.1524C19.8608 12.3369 18.8259 11.6892 17.6859 11.2465C16.5459 10.8037 15.3232 10.5745 14.0878 10.5721H12.0491C11.8862 10.5721 11.7261 10.6113 11.5844 10.686C11.4427 10.7606 11.3241 10.8681 11.2404 10.998C11.1566 11.128 11.1104 11.2758 11.1063 11.4273C11.1021 11.5787 11.1403 11.7286 11.2169 11.8623L18.4983 24.2607C19.385 25.7797 20.8461 26.9385 22.5986 27.5129C24.3511 28.0873 26.2704 28.0364 27.9848 27.37L44.2951 21.0482L42.5337 39.1105C42.5205 39.2495 42.5432 39.3895 42.5998 39.5187C42.6565 39.648 42.7454 39.7628 42.8594 39.8536C42.9733 39.9445 43.1089 40.0087 43.2549 40.041C43.4008 40.0733 43.553 40.0728 43.6987 40.0394C45.62 39.6039 47.3912 38.7221 48.8465 37.4766C50.3019 36.2311 51.3938 34.6626 52.0202 32.9177L57.5679 17.6035L79.9113 10.1206C80.2513 10.0103 80.5499 9.81124 80.7713 9.54716C80.9928 9.28309 81.1277 8.96523 81.1599 8.63165C81.1921 8.29808 81.1202 7.96294 80.9529 7.6664C80.7856 7.36985 80.5299 7.12447 80.2164 6.95966Z" fill="#D9D9D9"/>
<path d="M43.5042 11.9397L29.2327 4.56002C29.0772 4.47443 28.9514 4.34907 28.8702 4.19885C28.789 4.04863 28.756 3.87989 28.775 3.7127C28.794 3.54552 28.8642 3.38693 28.9773 3.25581C29.0905 3.12469 29.2417 3.02657 29.4131 2.97312L31.1883 2.40545C36.0252 0.921939 41.2585 0.999212 46.0423 2.62478L57.845 6.58557L43.5042 11.9397Z" fill="#CCCCCC"/>
<path d="M81.8112 47.7804V37.4591H79.0374V31.0083H77.6505L73.4897 23.2673L69.3289 31.0083H67.942V37.4591H65.1681V47.7804H62.3943V78.7443H84.5851V47.7804H81.8112Z" fill="#FD7401"/>
<path d="M79.0375 37.4591V31.0083H77.6505L73.4898 23.2673L69.329 31.0083H67.9421V37.4591H65.1682V47.7804H81.8113V37.4591H79.0375Z" fill="#FD7401"/>
<path d="M77.6506 31.0083L73.4898 23.2673L69.3291 31.0083H67.9421V37.4591H79.0375V31.0083H77.6506Z" fill="#FD7401"/>
<path d="M77.6507 31.0083L73.4899 23.2673L69.3291 31.0083H77.6507Z" fill="#FD7401"/>
<path d="M79.0651 78.7443V73.5836C79.0651 72.2149 78.4806 70.9023 77.4402 69.9345C76.3998 68.9667 74.9888 68.423 73.5174 68.423C72.0461 68.423 70.635 68.9667 69.5946 69.9345C68.5542 70.9023 67.9697 72.2149 67.9697 73.5836V78.7443H79.0651Z" fill="white"/>
<path d="M45.7511 78.7443H54.0727L56.8465 71.0033H42.9773L45.7511 78.7443Z" fill="#A69164"/>
<path d="M42.9775 60.682L49.9121 52.941L56.8468 60.682H52.686L58.2337 65.8427H41.5906L47.1383 60.682H42.9775Z" fill="#7ACCAA"/>
<path d="M5.16987 46.8644C5.65468 47.4325 6.17816 47.9712 6.7371 48.4771C7.30403 48.9693 7.90143 49.4302 8.52623 49.8575L11.1059 49.0705C12.4629 49.7956 13.9317 50.3221 15.4609 50.6316L16.7646 52.8765C18.3153 53.0401 19.8826 53.0097 21.4246 52.7862L22.6313 50.4897C24.1366 50.1116 25.572 49.5244 26.8891 48.748L29.5243 49.4705C30.1351 49.0195 30.7141 48.5325 31.2579 48.0126C31.7871 47.4852 32.2826 46.9295 32.7419 46.3483L31.9098 43.9099C32.6892 42.6476 33.2552 41.2812 33.588 39.8588L36.0012 38.646C36.1771 37.2035 36.1444 35.7456 35.9041 34.3111L33.4354 33.1887C33.0289 31.7883 32.3977 30.453 31.5631 29.2279L32.3397 26.7766C31.8549 26.2084 31.3314 25.6697 30.7725 25.1638C30.2056 24.6716 29.6082 24.2107 28.9834 23.7834L26.3621 24.5575C25.0051 23.8324 23.5363 23.3059 22.0071 22.9964L20.7034 20.7515C19.1527 20.5879 17.5854 20.6183 16.0434 20.8418L14.8367 23.1383C13.3314 23.5164 11.896 24.1036 10.5789 24.88L7.94372 24.1575C7.33293 24.6085 6.75385 25.0955 6.21007 25.6154C5.68094 26.1428 5.18542 26.6985 4.72606 27.2797L5.55821 29.7181C4.77878 30.9804 4.21276 32.3468 3.88003 33.7692L1.46678 34.982C1.29091 36.4245 1.32356 37.8825 1.56387 39.3169L4.0326 40.4394C4.43908 41.8397 5.07029 43.175 5.90494 44.4002L5.16987 46.8644Z" fill="#738299"/>
<path d="M18.7339 44.8904C23.5289 44.8904 27.4161 41.2745 27.4161 36.814C27.4161 32.3535 23.5289 28.7376 18.7339 28.7376C13.9389 28.7376 10.0518 32.3535 10.0518 36.814C10.0518 41.2745 13.9389 44.8904 18.7339 44.8904Z" fill="#E6E6E6"/>
<path d="M79.0651 78.7443V73.5836C79.0651 72.2149 78.4806 70.9023 77.4402 69.9345C76.3998 68.9667 74.9888 68.423 73.5174 68.423C72.0461 68.423 70.635 68.9667 69.5946 69.9345C68.5542 70.9023 67.9697 72.2149 67.9697 73.5836V78.7443H79.0651Z" fill="#E6E6E6"/>
<path d="M67.9421 52.941H79.0375V55.5214H67.9421V52.941ZM67.9421 59.3918H79.0375V61.9722H67.9421V59.3918Z" fill="black"/>
<path d="M80.4523 36.169V31.0083C80.4523 30.6661 80.3062 30.338 80.0461 30.096C79.786 29.8541 79.4332 29.7181 79.0654 29.7181H78.5106L74.7243 22.6868C74.6079 22.4754 74.4311 22.2981 74.2133 22.1742C73.9955 22.0504 73.7452 21.9849 73.4899 21.9849C73.2347 21.9849 72.9844 22.0504 72.7666 22.1742C72.5488 22.2981 72.372 22.4754 72.2556 22.6868L68.4693 29.7181H67.97C67.6021 29.7181 67.2494 29.8541 66.9893 30.096C66.7292 30.338 66.583 30.6661 66.583 31.0083V36.169H65.1961C64.8283 36.169 64.4755 36.3049 64.2154 36.5468C63.9553 36.7888 63.8092 37.1169 63.8092 37.4591V46.4902H62.4223C62.0544 46.4902 61.7017 46.6262 61.4416 46.8681C61.1815 47.1101 61.0354 47.4382 61.0354 47.7804V77.4541H56.0008L58.1644 71.4162C58.2332 71.2221 58.2514 71.0157 58.2177 70.8138C58.1839 70.612 58.0991 70.4204 57.9702 70.255C57.8454 70.0918 57.6814 69.9578 57.4912 69.8637C57.301 69.7697 57.0899 69.7181 56.8746 69.7132H51.3269V67.1328H58.2615C58.5353 67.1316 58.8026 67.0549 59.0297 66.9126C59.2567 66.7702 59.4334 66.5685 59.5375 66.3329C59.6437 66.098 59.6727 65.839 59.6209 65.5887C59.569 65.3385 59.4387 65.1081 59.2462 64.9267L56.0285 61.9722H56.8746C57.1383 61.9726 57.3968 61.903 57.6195 61.7716C57.8423 61.6402 58.0202 61.4524 58.1323 61.2303C58.2444 61.0082 58.2861 60.761 58.2524 60.5176C58.2188 60.2743 58.1113 60.0448 57.9425 59.8563L51.0079 52.1153C50.8777 51.9692 50.7146 51.8516 50.53 51.7709C50.3454 51.6902 50.1439 51.6484 49.9399 51.6484C49.736 51.6484 49.5345 51.6902 49.3499 51.7709C49.1653 51.8516 49.0022 51.9692 48.872 52.1153L41.9374 59.8563C41.7686 60.0448 41.6611 60.2743 41.6274 60.5176C41.5938 60.761 41.6355 61.0082 41.7476 61.2303C41.8597 61.4524 42.0376 61.6402 42.2604 61.7716C42.4831 61.903 42.7416 61.9726 43.0053 61.9722H43.8236L40.6337 64.9267C40.4412 65.1081 40.3109 65.3385 40.259 65.5887C40.2072 65.839 40.2362 66.098 40.3424 66.3329C40.4465 66.5685 40.6232 66.7702 40.8502 66.9126C41.0773 67.0549 41.3446 67.1316 41.6184 67.1328H48.553V69.7132H43.0053C42.7853 69.7141 42.5687 69.7637 42.3733 69.8579C42.178 69.9522 42.0095 70.0883 41.8819 70.255C41.753 70.4204 41.6682 70.612 41.6345 70.8138C41.6007 71.0157 41.619 71.2221 41.6877 71.4162L43.8236 77.4541H18.0407V80.0344H84.6131C84.9809 80.0344 85.3337 79.8985 85.5938 79.6566C85.8539 79.4146 86 79.0864 86 78.7443V47.7804C86 47.4382 85.8539 47.1101 85.5938 46.8681C85.3337 46.6262 84.9809 46.4902 84.6131 46.4902H83.2262V37.4591C83.2262 37.1169 83.08 36.7888 82.8199 36.5468C82.5598 36.3049 82.2071 36.169 81.8392 36.169H80.4523ZM44.9331 64.5525L48.1231 61.598C48.3155 61.4166 48.4459 61.1862 48.4977 60.9359C48.5496 60.6857 48.5205 60.4267 48.4143 60.1918C48.3121 59.9601 48.1397 59.7612 47.9181 59.6192C47.6964 59.4771 47.4352 59.3981 47.1661 59.3919H45.9733L49.9399 54.9537L53.8788 59.3919H52.7138C52.44 59.3931 52.1727 59.4698 51.9456 59.6121C51.7186 59.7545 51.5419 59.9561 51.4378 60.1918C51.3316 60.4267 51.3026 60.6857 51.3544 60.9359C51.4063 61.1862 51.5366 61.4166 51.7291 61.598L54.8913 64.5525H44.9331ZM53.0744 77.4541H46.75L44.9054 72.2935H54.919L53.0744 77.4541ZM73.5177 26.1573L75.4039 29.7181H71.576L73.5177 26.1573ZM69.3569 32.2985H77.6785V36.169H69.3569V32.2985ZM66.583 38.7493H80.4523V46.4902H66.583V38.7493ZM77.6785 77.4541H69.3569V73.5836C69.3569 72.5571 69.7953 71.5726 70.5756 70.8468C71.3559 70.1209 72.4142 69.7132 73.5177 69.7132C74.6212 69.7132 75.6795 70.1209 76.4598 70.8468C77.2401 71.5726 77.6785 72.5571 77.6785 73.5836V77.4541ZM83.2262 49.0706V77.4541H80.4523V73.5836C80.4523 71.8728 79.7217 70.232 78.4212 69.0222C77.1207 67.8125 75.3568 67.1328 73.5177 67.1328C71.6785 67.1328 69.9146 67.8125 68.6142 69.0222C67.3137 70.232 66.583 71.8728 66.583 73.5836V77.4541H63.8092V49.0706H83.2262ZM0.995362 40.491L2.90932 41.3296C3.28205 42.4745 3.79879 43.5744 4.44881 44.6066L3.83856 46.4902C3.77513 46.6901 3.76471 46.9014 3.80818 47.1058C3.85166 47.3103 3.94774 47.5019 4.0882 47.6643C4.60335 48.2805 5.1641 48.8625 5.76638 49.406C6.38285 49.9436 7.03607 50.4435 7.72195 50.9026C7.90257 51.0224 8.11145 51.1002 8.33105 51.1294C8.55066 51.1585 8.77459 51.1383 8.98405 51.0703L10.9951 50.4381C12.12 50.9965 13.3117 51.4295 14.5456 51.7283L15.5581 53.47C15.6661 53.6515 15.8196 53.806 16.0055 53.9206C16.1914 54.0351 16.4042 54.1063 16.626 54.128C17.3259 54.2013 18.0298 54.2358 18.7341 54.2312C19.7093 54.2335 20.6831 54.1645 21.6467 54.0248C21.8689 53.9937 22.0797 53.9129 22.2609 53.7893C22.442 53.6657 22.5882 53.503 22.6869 53.3152L23.5884 51.5348C24.8061 51.1885 25.9748 50.7077 27.0696 50.1027L29.1083 50.6704C29.3232 50.7294 29.5503 50.7391 29.7701 50.6986C29.9899 50.6582 30.1959 50.5688 30.3704 50.4381C31.0328 49.9589 31.6585 49.4373 32.2428 48.877C32.8207 48.3036 33.3581 47.6959 33.8516 47.0579C33.9804 46.8899 34.064 46.6956 34.0954 46.4913C34.1268 46.287 34.105 46.0787 34.0319 45.8839L33.3523 44.0131C33.9525 42.9667 34.418 41.8581 34.7393 40.7103L36.6116 39.7685C36.8067 39.668 36.9728 39.5252 37.0959 39.3523C37.2191 39.1794 37.2956 38.9814 37.3189 38.7751C37.5087 37.2211 37.476 35.6507 37.2218 34.1047C37.1885 33.898 37.1016 33.7019 36.9687 33.5334C36.8358 33.3648 36.6609 33.2288 36.459 33.1371L34.5589 32.2985C34.1867 31.1657 33.6699 30.0785 33.0195 29.0602L33.6297 27.1378C33.6709 26.9592 33.6709 26.7745 33.6297 26.596L42.6725 23.0867L41.133 38.9557C41.0977 39.2557 41.1314 39.5592 41.2318 39.8461C41.3323 40.1331 41.4971 40.3969 41.7155 40.62C41.9355 40.844 42.2033 41.0228 42.5018 41.145C42.8004 41.2671 43.123 41.33 43.4491 41.3296C43.6336 41.3476 43.8195 41.3476 44.0039 41.3296C46.1434 40.8382 48.1142 39.8503 49.7319 38.4583C51.3497 37.0662 52.5617 35.3153 53.2547 33.3693L58.525 18.6486L80.4523 11.3333C81.0378 11.1359 81.5506 10.7871 81.9305 10.328C82.3104 9.86887 82.5416 9.31846 82.5969 8.74139C82.6523 8.16431 82.5295 7.58453 82.2429 7.07011C81.9564 6.5557 81.518 6.128 80.9793 5.83725L79.2457 4.90834C76.6153 3.50072 73.6757 2.66714 70.6485 2.47046C67.6213 2.27379 64.5856 2.71917 61.7704 3.773L57.679 5.20507L46.5142 1.33459C41.435 -0.371148 35.8877 -0.443829 30.7588 1.12816L28.9558 1.69584C28.5274 1.83228 28.151 2.08187 27.8727 2.41411C27.5944 2.74634 27.4261 3.14682 27.3885 3.56657C27.3453 3.98033 27.4341 4.39676 27.6437 4.76388C27.8534 5.131 28.1747 5.43253 28.5674 5.63083L39.5658 11.3204L25.8491 16.0295L21.6883 12.159C20.6876 11.2257 19.4986 10.4854 18.1896 9.98065C16.8805 9.47586 15.4772 9.21651 14.0602 9.21748H12.0492C11.6365 9.22595 11.2337 9.33687 10.8826 9.53875C10.5314 9.74063 10.2447 10.0261 10.052 10.3657C9.85016 10.6961 9.74405 11.0695 9.74405 11.4495C9.74405 11.8294 9.85016 12.2029 10.052 12.5332L14.7537 20.5193L13.8799 22.0933C12.6491 22.44 11.4667 22.9207 10.3571 23.5254L8.3322 22.9577C8.1173 22.8987 7.89024 22.889 7.67045 22.9294C7.45065 22.9699 7.24466 23.0593 7.07009 23.1899C6.40769 23.6691 5.78205 24.1908 5.19774 24.751C4.61984 25.3245 4.08244 25.9321 3.58891 26.5701C3.46011 26.7382 3.37652 26.9325 3.34515 27.1368C3.31377 27.341 3.33554 27.5494 3.40861 27.7442L4.0882 29.6149C3.48801 30.6614 3.02249 31.7699 2.70128 32.9177L0.828931 33.8596C0.633865 33.9601 0.467723 34.1028 0.344591 34.2758C0.221459 34.4487 0.144967 34.6467 0.121599 34.853C-0.0683019 36.4069 -0.0356553 37.9774 0.218684 39.5234C0.253468 39.7314 0.342429 39.9283 0.477808 40.0969C0.613186 40.2656 0.790871 40.4009 0.995362 40.491ZM30.8004 3.91491L31.6325 3.65688C36.1694 2.26329 41.0778 2.32689 45.5711 3.8375L53.643 6.49524L43.0053 10.198L30.8004 3.91491ZM12.7704 11.901H14.0741C15.1267 11.8977 16.1695 12.09 17.1412 12.4667C18.1129 12.8433 18.994 13.3967 19.7327 14.0943L24.5037 18.5195C24.6921 18.6953 24.931 18.8168 25.1918 18.8694C25.4526 18.9221 25.7241 18.9036 25.9739 18.8163L42.7557 13.0493V12.9718L62.6997 6.1856C65.1287 5.27018 67.75 4.88155 70.3646 5.04921C72.9792 5.21687 75.5184 5.93641 77.7894 7.15322L79.5231 8.08213C79.6063 8.12103 79.6748 8.18264 79.7194 8.25871C79.764 8.33479 79.7826 8.42172 79.7727 8.50789C79.7665 8.59784 79.7314 8.68401 79.6721 8.75528C79.6128 8.82656 79.5319 8.87969 79.4398 8.90784L56.9855 16.365C56.7889 16.4304 56.6106 16.5364 56.4641 16.6749C56.3176 16.8134 56.2067 16.9809 56.1395 17.1649L50.5918 32.4791C50.0934 33.9183 49.2333 35.2262 48.0827 36.2942C46.9321 37.3623 45.5244 38.1597 43.9762 38.6203L45.6821 21.1902C45.7037 20.9674 45.6626 20.7432 45.5629 20.5396C45.4632 20.3361 45.3083 20.1601 45.1134 20.029C44.9164 19.8935 44.6842 19.8089 44.4406 19.784C44.1969 19.7591 43.9506 19.7947 43.7265 19.8871L31.9099 24.4543L31.6741 24.2221C31.0577 23.6845 30.4045 23.1846 29.7186 22.7255C29.538 22.6057 29.3291 22.5279 29.1095 22.4987C28.8899 22.4695 28.6659 22.4898 28.4565 22.5577L26.4454 23.1899C25.3205 22.6316 24.1288 22.1986 22.8949 21.8998L21.8825 20.158C21.7744 19.9766 21.6209 19.822 21.435 19.7075C21.2491 19.593 21.0363 19.5218 20.8145 19.5001C19.62 19.3904 18.4169 19.3904 17.2224 19.5001L12.7704 11.901ZM2.7845 35.7948L4.5875 34.8788C4.75917 34.7898 4.90854 34.6678 5.0257 34.521C5.14286 34.3742 5.22514 34.2059 5.26709 34.0273C5.57733 32.7485 6.09652 31.5215 6.80658 30.389C6.91139 30.2304 6.97805 30.0526 7.00199 29.8677C7.02593 29.6829 7.00658 29.4954 6.94527 29.3182L6.29342 27.5507C6.61241 27.1765 6.91753 26.8411 7.22266 26.5443C7.55429 26.2199 7.90626 25.9141 8.27672 25.6283L10.1907 26.1573C10.3828 26.2084 10.5841 26.2221 10.7821 26.1977C10.9802 26.1733 11.1707 26.1112 11.3418 26.0154C12.5319 25.2969 13.8384 24.761 15.2113 24.4285C15.4033 24.3804 15.582 24.2944 15.7351 24.1764C15.8883 24.0584 16.0124 23.9112 16.099 23.7447L16.9866 22.0675C17.9415 21.9835 18.9027 21.9835 19.8575 22.0675L20.8145 23.6544C20.9102 23.8141 21.0413 23.953 21.1992 24.062C21.357 24.171 21.5379 24.2475 21.7299 24.2866C23.1142 24.5726 24.4428 25.0557 25.6688 25.7186C25.8414 25.8119 26.0335 25.8694 26.2322 25.8872C26.4309 25.905 26.6313 25.8827 26.8199 25.8219L28.72 25.2155C29.1222 25.5122 29.4828 25.7961 29.8018 26.0799C30.1208 26.3637 30.4398 26.6863 30.7865 27.0604L30.2179 28.8408C30.1606 29.0199 30.1459 29.2084 30.1746 29.3933C30.2033 29.5782 30.2749 29.755 30.3843 29.9117C31.1467 31.0221 31.7176 32.2366 32.0764 33.5112C32.1281 33.6898 32.2205 33.856 32.3473 33.9985C32.4742 34.1409 32.6324 34.2564 32.8114 34.3369L34.6144 35.1626C34.6977 36.0511 34.6977 36.9447 34.6144 37.8333L32.8808 38.7493C32.7091 38.8383 32.5597 38.9603 32.4426 39.1071C32.3254 39.2539 32.2431 39.4222 32.2012 39.6008C31.8936 40.8885 31.3744 42.1244 30.6617 43.2648C30.5615 43.4254 30.4997 43.6042 30.4805 43.789C30.4614 43.9738 30.4853 44.1603 30.5507 44.3357L31.2026 46.1032C30.8836 46.4773 30.5785 46.8128 30.2733 47.1095C29.9417 47.4339 29.5897 47.7398 29.2193 48.0255L27.3053 47.4966C27.1128 47.4433 26.9102 47.4296 26.7115 47.4563C26.5127 47.483 26.3226 47.5496 26.1542 47.6514C24.9605 48.3606 23.6549 48.8917 22.2847 49.2254C22.0927 49.2735 21.914 49.3595 21.7609 49.4775C21.6077 49.5954 21.4836 49.7427 21.397 49.9092L20.5094 51.5864C19.5545 51.6703 18.5933 51.6703 17.6385 51.5864L16.6537 49.9737C16.558 49.814 16.4269 49.675 16.2691 49.566C16.1113 49.4571 15.9304 49.3805 15.7384 49.3415C14.3636 49.0529 13.0446 48.5699 11.8272 47.9094C11.6567 47.8119 11.4656 47.7499 11.2669 47.7276C11.0682 47.7054 10.8666 47.7234 10.6761 47.7804L8.77601 48.3868C8.39848 48.1175 8.03732 47.8289 7.69421 47.5224C7.34548 47.2139 7.01666 46.8865 6.70949 46.5418L7.27813 44.7614C7.33302 44.5827 7.3478 44.3955 7.32155 44.2113C7.29531 44.027 7.2286 43.8498 7.12557 43.6906C6.35585 42.5915 5.77994 41.385 5.41965 40.1168C5.36792 39.9382 5.27551 39.7721 5.14868 39.6296C5.02185 39.4871 4.86358 39.3717 4.68458 39.2911L2.88158 38.4654C2.759 37.5801 2.72649 36.6859 2.7845 35.7948Z" fill="black"/>
<path d="M18.7339 46.1806C20.7253 46.1806 22.6721 45.6312 24.328 44.602C25.9838 43.5728 27.2744 42.1099 28.0365 40.3984C28.7986 38.6869 28.998 36.8036 28.6095 34.9867C28.221 33.1697 27.262 31.5008 25.8538 30.1908C24.4456 28.8809 22.6515 27.9888 20.6983 27.6274C18.745 27.266 16.7205 27.4515 14.8806 28.1604C13.0407 28.8693 11.4681 30.0699 10.3617 31.6102C9.25534 33.1505 8.66479 34.9615 8.66479 36.814C8.66846 39.2971 9.73049 41.6776 11.618 43.4334C13.5055 45.1892 16.0645 46.1772 18.7339 46.1806ZM18.7339 30.0277C20.1767 30.0277 21.5872 30.4258 22.7869 31.1714C23.9866 31.9171 24.9216 32.977 25.4738 34.217C26.0259 35.457 26.1704 36.8215 25.8889 38.1379C25.6074 39.4543 24.9126 40.6635 23.8924 41.6126C22.8721 42.5617 21.5722 43.208 20.1571 43.4698C18.742 43.7317 17.2751 43.5973 15.9421 43.0837C14.6091 42.57 13.4697 41.7002 12.6681 40.5842C11.8665 39.4682 11.4386 38.1562 11.4386 36.814C11.4423 35.0152 12.2121 33.2911 13.5794 32.0192C14.9467 30.7472 16.8002 30.0312 18.7339 30.0277Z" fill="black"/>
</svg>
