<svg width="71" height="72" viewBox="0 0 71 72" fill="none" xmlns="http://www.w3.org/2000/svg">
<path d="M65.3323 1.05469L61.1721 10.8984V66.7266C61.1722 67.2806 61.0646 67.8292 60.8555 68.341C60.6465 68.8529 60.34 69.318 59.9537 69.7097C59.5674 70.1015 59.1088 70.4123 58.6041 70.6243C58.0993 70.8363 57.5583 70.9454 57.012 70.9453H11.3892L15.5493 63.3108V5.27344C15.5493 4.71941 15.6568 4.17081 15.8659 3.65895C16.0749 3.14709 16.3814 2.682 16.7677 2.29025C17.154 1.89849 17.6126 1.58774 18.1174 1.37575C18.6221 1.16375 19.1631 1.05465 19.7094 1.05469H65.3323Z" fill="white"/>
<path d="M52.2967 61.1016H6.8125V66.7266C6.8125 67.8454 7.2508 68.9185 8.03098 69.7097C8.81115 70.5008 9.8693 70.9453 10.9726 70.9453H57.1502" fill="#DADADC"/>
<path d="M52.4355 61.1016V66.5156C52.4355 67.6905 52.8958 68.8172 53.7149 69.6479C54.5341 70.4786 55.6452 70.9453 56.8037 70.9453C57.9622 70.9453 59.0732 70.4786 59.8924 69.6479C60.7116 68.8172 61.1718 67.6905 61.1718 66.5156V61.1016" fill="white"/>
<path d="M65.5658 1.05469C66.7312 1.05469 67.8488 1.52414 68.6728 2.35977C69.4968 3.19541 69.9597 4.32877 69.9597 5.51053V10.8984H61.1719V5.51053C61.1719 4.32877 61.6348 3.19541 62.4588 2.35977C63.2829 1.52414 64.4005 1.05469 65.5658 1.05469Z" fill="#DADADC"/>
<path d="M55.0265 8.4375H48.4746C48.1988 8.4375 47.9342 8.32638 47.7392 8.12859C47.5441 7.9308 47.4346 7.66253 47.4346 7.38281C47.4346 7.10309 47.5441 6.83483 47.7392 6.63704C47.9342 6.43924 48.1988 6.32812 48.4746 6.32812H55.0265C55.3024 6.32812 55.5669 6.43924 55.762 6.63704C55.957 6.83483 56.0666 7.10309 56.0666 7.38281C56.0666 7.66253 55.957 7.9308 55.762 8.12859C55.5669 8.32638 55.3024 8.4375 55.0265 8.4375ZM55.0265 12.0615H48.4746C48.1988 12.0615 47.9342 11.9504 47.7392 11.7526C47.5441 11.5548 47.4346 11.2866 47.4346 11.0069C47.4346 10.7271 47.5441 10.4589 47.7392 10.2611C47.9342 10.0633 48.1988 9.95217 48.4746 9.95217H55.0265C55.3024 9.95217 55.5669 10.0633 55.762 10.2611C55.957 10.4589 56.0666 10.7271 56.0666 11.0069C56.0666 11.2866 55.957 11.5548 55.762 11.7526C55.5669 11.9504 55.3024 12.0615 55.0265 12.0615Z" fill="#EE553D"/>
<path d="M53.24 20.7449C53.0994 20.7451 52.9601 20.7162 52.8308 20.6602C52.7015 20.6041 52.5848 20.5219 52.4877 20.4186L47.7227 15.3595C47.5821 15.2101 47.4877 15.0222 47.4515 14.819C47.4152 14.6158 47.4385 14.4062 47.5186 14.2163C47.5987 14.0264 47.732 13.8646 47.9019 13.7508C48.0719 13.637 48.2711 13.5764 48.4747 13.5764H49.6661C50.3381 13.5764 50.9825 13.3057 51.4577 12.8238C51.9328 12.3419 52.1998 11.6884 52.1998 11.0069C52.1998 10.3255 51.9328 9.67193 51.4577 9.19007C50.9825 8.70821 50.3381 8.4375 49.6661 8.4375H48.4749C48.199 8.4375 47.9345 8.32638 47.7395 8.12859C47.5444 7.9308 47.4348 7.66253 47.4348 7.38281C47.4348 7.10309 47.5444 6.83483 47.7395 6.63704C47.9345 6.43924 48.199 6.32813 48.4749 6.32812H49.6661C50.7928 6.32823 51.8806 6.74642 52.7242 7.50382C53.5678 8.26122 54.109 9.30549 54.2457 10.4397C54.3824 11.5738 54.1051 12.7195 53.4662 13.6607C52.8272 14.6018 51.8708 15.2734 50.7772 15.5486L53.992 18.9616C54.1328 19.1109 54.2271 19.2989 54.2634 19.5021C54.2997 19.7054 54.2764 19.915 54.1963 20.1049C54.1162 20.2948 53.9829 20.4567 53.8129 20.5704C53.6429 20.6842 53.4437 20.7449 53.24 20.7449Z" fill="#EE553D"/>
<path d="M42.9278 7.38281H22.6726C21.9067 7.38281 21.2859 8.01241 21.2859 8.78906V16.5234C21.2859 17.3001 21.9067 17.9297 22.6726 17.9297H42.9278C43.6936 17.9297 44.3145 17.3001 44.3145 16.5234V8.78906C44.3145 8.01241 43.6936 7.38281 42.9278 7.38281Z" fill="#AEADB3"/>
<path d="M61.172 23.7769V48.2231C61.0056 48.2302 60.8378 48.2344 60.6686 48.2344C57.469 48.2344 54.4003 46.9454 52.1378 44.651C49.8753 42.3566 48.6042 39.2448 48.6042 36C48.6042 32.7552 49.8753 29.6434 52.1378 27.349C54.4003 25.0546 57.469 23.7656 60.6686 23.7656C60.8378 23.7656 61.0056 23.7698 61.172 23.7769Z" fill="#E1E1E3"/>
<path d="M60.6687 45.4219C65.7999 45.4219 69.9596 41.2036 69.9596 36C69.9596 30.7964 65.7999 26.5781 60.6687 26.5781C55.5374 26.5781 51.3777 30.7964 51.3777 36C51.3777 41.2036 55.5374 45.4219 60.6687 45.4219Z" fill="#19AC66"/>
<path d="M60.6687 26.5781C60.1234 26.5788 59.5793 26.6279 59.0425 26.7249C61.1909 27.1118 63.1363 28.2533 64.5379 29.9492C65.9394 31.6452 66.7075 33.7873 66.7075 36C66.7075 38.2127 65.9394 40.3548 64.5379 42.0508C63.1363 43.7467 61.1909 44.8882 59.0425 45.2751C60.3115 45.504 61.6136 45.4627 62.866 45.1538C64.1185 44.8448 65.2938 44.2749 66.3173 43.4804C67.3408 42.6858 68.19 41.684 68.811 40.5386C69.432 39.3932 69.8112 38.1293 69.9245 36.8272C70.0377 35.5251 69.8825 34.2134 69.4688 32.9755C69.0551 31.7375 68.3919 30.6004 67.5214 29.6365C66.6508 28.6725 65.592 27.9028 64.4123 27.3763C63.2325 26.8498 61.9576 26.5779 60.6687 26.5781Z" fill="#17A454"/>
<path d="M31.1525 67.4184C31.154 67.8811 31.0654 68.3394 30.8918 68.7673C30.7182 69.1951 30.4631 69.584 30.141 69.9116C29.819 70.2393 29.4363 70.4992 29.015 70.6766C28.5936 70.854 28.1419 70.9453 27.6857 70.9453H4.52762C3.61008 70.9454 2.72995 70.5765 2.08011 69.9196C1.43027 69.2627 1.06374 68.3714 1.06084 67.4409L1.04004 60.6727C1.03986 59.6484 1.35496 58.6496 1.94139 57.8157C2.52782 56.9818 3.35632 56.3543 4.31129 56.0208L9.83318 54.0886C10.5992 53.8216 11.2869 53.3637 11.8328 52.7569C12.633 51.8695 15.1845 50.6953 15.1845 49.4367L13.1044 45.9141H19.0673L16.9872 49.4367C16.9872 50.6419 19.5 51.7711 20.2391 52.643C20.7992 53.3061 21.5241 53.8052 22.3386 54.0886L27.8604 56.0208C28.8154 56.3543 29.6439 56.9818 30.2303 57.8157C30.8168 58.6496 31.1319 59.6484 31.1317 60.6727L31.1525 67.4184Z" fill="#FD7401"/>
<path d="M31.1318 60.6727C31.1319 59.6484 30.8168 58.6496 30.2304 57.8157C29.644 56.9818 28.8155 56.3543 27.8605 56.0208L22.3386 54.0886C21.5242 53.8052 20.7993 53.3061 20.2391 52.643C19.5 51.7711 16.9873 50.6419 16.9873 49.4367L19.0674 45.9141H16.9873L15.0459 49.2019L15.1846 49.4367C15.1806 49.6159 15.1346 49.7915 15.0505 49.949C15.5916 50.9598 17.5258 51.8958 18.1591 52.643C18.7192 53.3061 19.4441 53.8052 20.2585 54.0886L25.7804 56.0208C26.7354 56.3543 27.5639 56.9818 28.1503 57.8157C28.7368 58.6496 29.0519 59.6484 29.0517 60.6727L29.0725 67.4184C29.074 67.8811 28.9854 68.3394 28.8118 68.7673C28.6382 69.1951 28.3831 69.584 28.061 69.9116C27.739 70.2393 27.3563 70.4992 26.935 70.6766C26.5136 70.854 26.0619 70.9453 25.6057 70.9453H27.6858C28.142 70.9453 28.5937 70.854 29.015 70.6766C29.4364 70.4992 29.819 70.2393 30.1411 69.9116C30.4632 69.584 30.7183 69.1951 30.8919 68.7673C31.0654 68.3394 31.154 67.8811 31.1526 67.4184L31.1318 60.6727Z" fill="#FD7401" fill-opacity="0.8"/>
<path d="M17.517 54.1434L19.4137 63.2469C19.457 63.4549 19.4533 63.67 19.4028 63.8763C19.3524 64.0826 19.2564 64.2746 19.1222 64.4379L17.1512 66.8364C17.021 66.9947 16.8581 67.1221 16.6741 67.2096C16.49 67.297 16.2892 67.3423 16.0859 67.3423C15.8826 67.3423 15.6818 67.297 15.4977 67.2096C15.3136 67.1221 15.1508 66.9947 15.0206 66.8364L13.0494 64.4377C12.9153 64.2745 12.8194 64.0825 12.7689 63.8763C12.7184 63.6701 12.7147 63.4549 12.7579 63.247L14.6562 54.1237L17.517 54.1434Z" fill="#FED947"/>
<path d="M19.4135 63.2469L17.5168 54.1434L14.656 54.1237L14.6531 54.1381L15.4367 54.1434L17.3335 63.2469C17.3768 63.4549 17.373 63.67 17.3226 63.8763C17.2721 64.0826 17.1761 64.2746 17.042 64.4379L15.0709 66.8364C15.0628 66.8462 15.0538 66.8544 15.0457 66.8638C15.1777 67.0162 15.3407 67.1378 15.5235 67.2203C15.7063 67.3027 15.9045 67.3441 16.1045 67.3415C16.3046 67.3389 16.5017 67.2924 16.6823 67.2052C16.863 67.118 17.0228 66.9922 17.151 66.8364L19.122 64.4379C19.2562 64.2746 19.3522 64.0826 19.4027 63.8763C19.4532 63.67 19.4569 63.4547 19.4135 63.2468V63.2469Z" fill="#FED030"/>
<path d="M20.239 52.643L20.0199 52.8989C18.9909 53.7329 17.7322 54.2227 16.4172 54.3009C15.6409 54.3422 14.8638 54.2358 14.1261 53.9872C13.734 53.8508 13.3558 53.6762 12.9969 53.4658C12.6368 53.2596 12.2976 53.018 11.9366 52.8142C11.9022 52.7948 11.8676 52.7757 11.8328 52.7569C12.6512 51.8504 13.1049 50.6658 13.1044 49.4367V45.9141H19.0672V49.4367C19.0667 50.6133 19.4825 51.7509 20.239 52.643Z" fill="#FDD8AE"/>
<path d="M19.0673 49.4367V45.9141H16.9873V49.4367C16.9868 50.6133 17.4025 51.7509 18.1591 52.643L17.94 52.8989C17.1005 53.5774 16.1065 54.0313 15.0491 54.2191C15.5008 54.2978 15.9597 54.3252 16.4173 54.3009C17.7323 54.2227 18.991 53.7329 20.02 52.8989L20.2391 52.643C19.4826 51.7509 19.0668 50.6133 19.0673 49.4367Z" fill="#FBBF7D"/>
<path d="M20.3847 37.0547L22.4648 39.2569V43.664C22.4648 45.3797 21.7927 47.025 20.5965 48.2381C19.4002 49.4513 17.7777 50.1328 16.0859 50.1328C14.3941 50.1328 12.7716 49.4513 11.5754 48.2381C10.3791 47.025 9.70703 45.3797 9.70703 43.664V41.3662L11.7871 37.0547C11.7871 35.0353 11.3212 35.5078 13.3125 35.5078H18.8593C20.8507 35.5078 20.3847 35.0353 20.3847 37.0547Z" fill="#FDD8AE"/>
<path d="M20.3846 37.0547V43.664C20.3845 45.1968 19.8478 46.6797 18.87 47.8485C17.8922 49.0173 16.5369 49.796 15.0457 50.0459C15.959 50.1993 16.8943 50.1492 17.7866 49.8991C18.6789 49.649 19.5068 49.2048 20.2128 48.5975C20.9188 47.9903 21.4859 47.2344 21.8748 46.3824C22.2636 45.5304 22.4649 44.6028 22.4646 43.664V39.2569L20.3846 37.0547ZM13.3123 35.5078C12.3617 35.5078 11.9718 35.4006 11.823 35.5078H13.3123ZM19.2097 35.5027C19.9317 35.6147 20.3846 35.9851 20.3846 37.0547C20.3846 35.1637 20.7929 35.4577 19.2097 35.5027Z" fill="#FBBF7D"/>
<path d="M22.4648 37.0547V39.2569L15.0486 37.4077C14.7296 37.3279 14.3958 37.3317 14.0786 37.4185C13.7613 37.5053 13.471 37.6724 13.2348 37.9041L9.70703 41.3663V37.0547C9.70703 36.085 10.0869 35.155 10.763 34.4693C11.4392 33.7836 12.3563 33.3984 13.3125 33.3984H18.8593C19.8156 33.3984 20.7326 33.7836 21.4088 34.4693C22.0849 35.155 22.4648 36.085 22.4648 37.0547Z" fill="#787681"/>
<path d="M18.8594 33.3984H16.7793C17.7355 33.3984 18.6526 33.7836 19.3287 34.4693C20.0049 35.155 20.3847 36.085 20.3847 37.0547V38.7382L22.4648 39.2569V37.0547C22.4648 36.085 22.085 35.155 21.4088 34.4693C20.7327 33.7836 19.8156 33.3984 18.8594 33.3984Z" fill="#57565C"/>
<path d="M55.0267 22.5H21.7891C21.5133 22.5 21.2488 22.6111 21.0537 22.8089C20.8587 23.0067 20.7491 23.275 20.7491 23.5547C20.7491 23.8344 20.8587 24.1027 21.0537 24.3005C21.2488 24.4983 21.5133 24.6094 21.7891 24.6094H55.0267C55.3025 24.6094 55.5671 24.4983 55.7621 24.3005C55.9571 24.1027 56.0667 23.8344 56.0667 23.5547C56.0667 23.275 55.9571 23.0067 55.7621 22.8089C55.5671 22.6111 55.3025 22.5 55.0267 22.5ZM47.4347 11.0069C47.4347 11.2866 47.5443 11.5548 47.7393 11.7526C47.9344 11.9504 48.1989 12.0615 48.4748 12.0615H51.974C51.7736 12.5124 51.4494 12.895 51.0401 13.1637C50.6307 13.4324 50.1537 13.5756 49.6661 13.5764H48.4749C48.2712 13.5764 48.072 13.637 47.902 13.7507C47.7321 13.8645 47.5987 14.0264 47.5186 14.2162C47.4385 14.4061 47.4152 14.6157 47.4515 14.8189C47.4877 15.0222 47.5821 15.2101 47.7227 15.3595L52.4878 20.4186C52.6783 20.6209 52.9402 20.7382 53.216 20.7446C53.4917 20.751 53.7587 20.6461 53.9582 20.4529C54.1577 20.2597 54.2733 19.9941 54.2797 19.7144C54.286 19.4348 54.1826 19.164 53.9921 18.9617L50.7772 15.5486C51.6028 15.339 52.3554 14.9026 52.9523 14.2874C53.5492 13.6723 53.9674 12.9021 54.1608 12.0617H55.0267C55.3025 12.0617 55.5671 11.9506 55.7621 11.7528C55.9571 11.555 56.0667 11.2867 56.0667 11.007C56.0667 10.7273 55.9571 10.459 55.7621 10.2612C55.5671 10.0634 55.3025 9.95231 55.0267 9.95231H54.1603C54.0367 9.41265 53.8191 8.89967 53.5178 8.4375H55.0267C55.3025 8.4375 55.5671 8.32638 55.7621 8.12859C55.9571 7.9308 56.0667 7.66253 56.0667 7.38281C56.0667 7.10309 55.9571 6.83483 55.7621 6.63704C55.5671 6.43924 55.3025 6.32812 55.0267 6.32812H48.4748C48.1989 6.32812 47.9344 6.43924 47.7393 6.63704C47.5443 6.83483 47.4347 7.10309 47.4347 7.38281C47.4347 7.66253 47.5443 7.9308 47.7393 8.12859C47.9344 8.32638 48.1989 8.4375 48.4748 8.4375H49.6661C50.1537 8.43821 50.6307 8.58146 51.04 8.85011C51.4494 9.11876 51.7736 9.50139 51.974 9.95217H48.4748C48.1989 9.95217 47.9344 10.0633 47.7393 10.2611C47.5443 10.4589 47.4347 10.7271 47.4347 11.0069ZM57.7946 35.8239C57.6981 35.7253 57.5835 35.6469 57.4571 35.5934C57.3307 35.5398 57.1952 35.512 57.0582 35.5117C56.9213 35.5114 56.7856 35.5385 56.659 35.5915C56.5324 35.6445 56.4174 35.7224 56.3205 35.8206C56.2237 35.9188 56.1469 36.0354 56.0946 36.1638C56.0423 36.2922 56.0156 36.4298 56.0159 36.5687C56.0162 36.7076 56.0435 36.845 56.0963 36.9732C56.1492 37.1013 56.2264 37.2176 56.3237 37.3154L58.3555 39.376C58.4521 39.4739 58.5667 39.5517 58.6929 39.6047C58.8191 39.6577 58.9544 39.685 59.091 39.685C59.2276 39.685 59.3629 39.6577 59.4891 39.6047C59.6153 39.5517 59.7299 39.4739 59.8265 39.376L65.0136 34.1156C65.1102 34.0177 65.1868 33.9014 65.2391 33.7734C65.2914 33.6455 65.3183 33.5083 65.3183 33.3698C65.3183 33.2313 65.2914 33.0942 65.2391 32.9662C65.1868 32.8382 65.1102 32.722 65.0136 32.624C64.9171 32.5261 64.8024 32.4484 64.6762 32.3954C64.55 32.3424 64.4148 32.3151 64.2782 32.3151C64.1416 32.3151 64.0064 32.3424 63.8802 32.3954C63.754 32.4484 63.6393 32.5261 63.5428 32.624L59.091 37.1386L57.7946 35.8239ZM22.6727 18.9844H42.9279C43.5713 18.9836 44.1881 18.7241 44.6431 18.2628C45.098 17.8014 45.3539 17.1759 45.3546 16.5234V8.78906C45.3539 8.13661 45.098 7.51109 44.6431 7.04974C44.1881 6.58839 43.5713 6.32887 42.9279 6.32812H22.6727C22.0294 6.32887 21.4125 6.58839 20.9576 7.04974C20.5026 7.51109 20.2467 8.13661 20.246 8.78906V16.5234C20.2467 17.1759 20.5026 17.8014 20.9576 18.2628C21.4125 18.7241 22.0294 18.9836 22.6727 18.9844ZM22.3261 8.78906C22.3262 8.69586 22.3627 8.6065 22.4277 8.54059C22.4927 8.47469 22.5808 8.43761 22.6727 8.4375H42.9279C43.0198 8.43761 43.1079 8.47469 43.1729 8.54059C43.2379 8.6065 43.2745 8.69586 43.2746 8.78906V16.5234C43.2745 16.6166 43.2379 16.706 43.1729 16.7719C43.1079 16.8378 43.0198 16.8749 42.9279 16.875H22.6727C22.5808 16.8749 22.4927 16.8378 22.4277 16.7719C22.3627 16.706 22.3262 16.6166 22.3261 16.5234V8.78906ZM24.8657 48.8672C24.8657 49.1469 24.9753 49.4152 25.1703 49.613C25.3654 49.8108 25.6299 49.9219 25.9057 49.9219H55.0267C55.3025 49.9219 55.5671 49.8108 55.7621 49.613C55.9571 49.4152 56.0667 49.1469 56.0667 48.8672C56.0667 48.5875 55.9571 48.3192 55.7621 48.1214C55.5671 47.9236 55.3025 47.8125 55.0267 47.8125H25.9057C25.6299 47.8125 25.3654 47.9236 25.1703 48.1214C24.9753 48.3192 24.8657 48.5875 24.8657 48.8672ZM69.9596 11.9531C70.2355 11.9531 70.5 11.842 70.6951 11.6442C70.8901 11.4464 70.9997 11.1782 70.9997 10.8984V5.51053C70.9981 4.04955 70.425 2.64888 69.4063 1.61581C68.3876 0.582736 67.0064 0.00163771 65.5657 0C65.5136 0 65.462 0.00253125 65.4101 0.00407812C65.3842 0.00196875 65.3582 0 65.3319 0H19.7091C18.3304 0.00156327 17.0086 0.557658 16.0337 1.54628C15.0588 2.5349 14.5104 3.87531 14.5089 5.27344V32.3438H13.3124C12.0808 32.3452 10.9 32.8419 10.0291 33.7251C9.15823 34.6083 8.66835 35.8057 8.66695 37.0547V43.6641C8.66757 44.9135 8.97512 46.1432 9.56182 47.2419C10.1485 48.3406 10.9959 49.2738 12.0274 49.9572C11.9327 50.6663 11.6457 51.3348 11.1983 51.8882C10.751 52.4417 10.1609 52.8582 9.49385 53.0916L3.97293 55.0235C2.81285 55.429 1.80651 56.1916 1.0943 57.2049C0.382093 58.2182 -0.000463265 59.4317 4.21017e-07 60.676L0.0208011 67.444C0.0264764 68.6531 0.503571 69.8107 1.34794 70.6643C2.19231 71.5179 3.33537 71.998 4.52762 72H57.1503C57.1881 71.9999 57.2258 71.9977 57.2633 71.9935C58.5968 71.9265 59.854 71.3426 60.775 70.3623C61.696 69.3821 62.2105 68.0805 62.2121 66.7266V46.3593C64.6569 45.9847 66.8882 44.7334 68.5007 42.8325C70.1132 40.9317 71 38.5074 71 36C71 33.4926 70.1132 31.0683 68.5007 29.1675C66.8882 27.2666 64.6569 26.0153 62.2121 25.6407V11.9531H69.9596ZM10.747 37.0547C10.7478 36.3649 11.0183 35.7037 11.4992 35.2159C11.9802 34.7282 12.6323 34.4539 13.3124 34.4531H18.8593C19.5395 34.4539 20.1916 34.7282 20.6725 35.2159C21.1535 35.7037 21.424 36.3649 21.4247 37.0547V37.9112L15.2965 36.3832C14.8066 36.2594 14.2936 36.2645 13.8062 36.3981C13.3187 36.5316 12.873 36.7892 12.5112 37.1464L10.747 38.8777V37.0547ZM10.747 43.6641V41.8132L13.9577 38.6623C14.067 38.5543 14.2018 38.4764 14.3492 38.436C14.4966 38.3956 14.6517 38.3941 14.7998 38.4315L21.4247 40.0836V43.6641C21.4247 45.1 20.8622 46.477 19.861 47.4924C18.8598 48.5077 17.5018 49.0781 16.0859 49.0781C14.6699 49.0781 13.312 48.5077 12.3107 47.4924C11.3095 46.477 10.747 45.1 10.747 43.6641ZM16.3668 53.2468C15.303 53.2918 14.2512 53.0051 13.3529 52.4256C13.6297 51.9405 13.8378 51.4183 13.971 50.8743C15.3508 51.2919 16.8209 51.2919 18.2007 50.8743C18.3368 51.4301 18.5509 51.9631 18.8367 52.4571C18.093 52.929 17.2429 53.2009 16.3668 53.2468ZM18.3232 63.7628L16.3521 66.1613C16.3196 66.2008 16.2789 66.2327 16.2329 66.2545C16.1869 66.2764 16.1367 66.2877 16.0859 66.2877C16.0351 66.2877 15.9849 66.2764 15.9389 66.2545C15.8928 66.2327 15.8521 66.2008 15.8196 66.1613L13.8484 63.7625C13.8148 63.7217 13.7907 63.6738 13.7781 63.6222C13.7654 63.5707 13.7645 63.5169 13.7755 63.4649L15.4686 55.3279C15.6816 55.3483 15.8995 55.3621 16.1257 55.3621C16.2378 55.3621 16.3517 55.3593 16.4669 55.3537C16.5468 55.3499 16.6243 55.3424 16.7024 55.3358L18.3961 63.465C18.4071 63.517 18.4062 63.5709 18.3936 63.6224C18.3809 63.674 18.3569 63.722 18.3232 63.7628ZM29.4038 69.1675C29.179 69.3975 28.9113 69.5798 28.6163 69.7039C28.3214 69.8281 28.0051 69.8915 27.6857 69.8906H26.2782V65.8135C26.2782 65.5338 26.1686 65.2655 25.9736 65.0677C25.7785 64.8699 25.514 64.7588 25.2382 64.7588C24.9623 64.7588 24.6978 64.8699 24.5028 65.0677C24.3077 65.2655 24.1981 65.5338 24.1981 65.8135V69.8906H7.83493V65.8135C7.83493 65.5338 7.72535 65.2655 7.53031 65.0677C7.33526 64.8699 7.07073 64.7588 6.79489 64.7588C6.51906 64.7588 6.25452 64.8699 6.05948 65.0677C5.86443 65.2655 5.75486 65.5338 5.75486 65.8135V69.8906H4.52762C3.88567 69.8896 3.27019 69.6311 2.81552 69.1716C2.36086 68.712 2.10395 68.0887 2.10087 67.4377L2.08007 60.6727C2.08009 59.8679 2.32776 59.0833 2.78853 58.4281C3.24931 57.7729 3.90021 57.2799 4.65048 57.0178L10.1717 55.0859C10.8376 54.8536 11.4569 54.5017 12.0001 54.0471C12.4534 54.359 12.9384 54.6208 13.4467 54.8281L11.7402 63.0294C11.6635 63.3932 11.6696 63.7699 11.758 64.1309C11.8464 64.492 12.0149 64.8278 12.2505 65.1129L14.2216 67.5117C14.4493 67.7888 14.7343 68.0118 15.0565 68.1649C15.3787 68.3179 15.7301 68.3973 16.0859 68.3973C16.4416 68.3973 16.793 68.3179 17.1152 68.1649C17.4374 68.0118 17.7224 67.7888 17.9502 67.5117L19.9212 65.113C20.1569 64.8278 20.3253 64.4919 20.4137 64.1308C20.502 63.7696 20.508 63.3928 20.4311 63.029L18.7291 54.8595C19.2472 54.6535 19.7411 54.3896 20.2018 54.0728C20.7376 54.515 21.3461 54.8579 21.9994 55.0856L27.5219 57.0181C28.2725 57.2806 28.9236 57.7741 29.3842 58.4299C29.8449 59.0857 30.0922 59.8709 30.0917 60.676L30.1125 67.4214C30.1143 67.7455 30.0527 68.0668 29.931 68.3666C29.8094 68.6664 29.6302 68.9386 29.4038 69.1675ZM31.4836 69.8906C31.9508 69.1522 32.197 68.2924 32.1925 67.4151L32.1763 62.1562H51.3954V66.5156C51.3946 67.7396 51.7996 68.9283 52.5454 69.8906H31.4836ZM60.132 61.0961L60.1317 61.1016V66.5156C60.1317 67.4107 59.7811 68.2692 59.157 68.9021C58.5328 69.535 57.6863 69.8906 56.8036 69.8906C55.9209 69.8906 55.0744 69.535 54.4503 68.9021C53.8261 68.2692 53.4755 67.4107 53.4755 66.5156V61.1016C53.4755 60.8218 53.3659 60.5536 53.1709 60.3558C52.9758 60.158 52.7113 60.0469 52.4355 60.0469C52.412 60.0469 52.3892 60.0488 52.3661 60.0504C52.3431 60.049 52.3202 60.0469 52.2968 60.0469H32.1384C32.0211 58.9164 31.5882 57.8432 30.8905 56.9535C30.1929 56.0637 29.2594 55.3943 28.1996 55.0238L22.677 53.0913C22.0101 52.8579 21.4202 52.4413 20.973 51.8879C20.5259 51.3346 20.239 50.6662 20.1444 49.9572C21.1758 49.2738 22.0232 48.3406 22.6099 47.2419C23.1966 46.1432 23.5042 44.9135 23.5048 43.6641V37.0547C23.5034 35.8057 23.0135 34.6083 22.1426 33.7251C21.2717 32.8419 20.0909 32.3452 18.8593 32.3438H16.589V5.27344C16.5899 4.43456 16.9189 3.63031 17.5038 3.03714C18.0888 2.44396 18.8818 2.11031 19.7091 2.10938H61.295C60.5407 3.07794 60.1308 4.27632 60.1316 5.51053V10.8984L60.132 10.9039V25.5375C57.4882 25.6766 54.998 26.8395 53.1752 28.7864C51.3524 30.7332 50.3361 33.3154 50.3361 36C50.3361 38.6846 51.3524 41.2668 53.1752 43.2136C54.998 45.1605 57.4882 46.3234 60.132 46.4625V61.0961ZM68.9196 36C68.9196 37.6549 68.4357 39.2726 67.5291 40.6486C66.6224 42.0245 65.3338 43.097 63.8262 43.7303C62.3185 44.3636 60.6595 44.5293 59.059 44.2064C57.4585 43.8836 55.9883 43.0867 54.8344 41.9165C53.6805 40.7463 52.8946 39.2554 52.5763 37.6324C52.2579 36.0093 52.4213 34.3269 53.0458 32.798C53.6703 31.2691 54.7278 29.9623 56.0847 29.0429C57.4415 28.1235 59.0368 27.6328 60.6687 27.6328C62.8562 27.6353 64.9534 28.5176 66.5002 30.0863C68.0471 31.6549 68.9171 33.7817 68.9196 36ZM62.2118 9.84375V5.51053C62.2118 4.60849 62.5652 3.74339 63.1941 3.10555C63.8231 2.46771 64.6762 2.10938 65.5657 2.10938C66.4552 2.10938 67.3083 2.46771 67.9373 3.10555C68.5662 3.74339 68.9196 4.60849 68.9196 5.51053V9.84375H62.2118ZM55.0267 54.1406H34.226C33.9502 54.1406 33.6856 54.2517 33.4906 54.4495C33.2955 54.6473 33.186 54.9156 33.186 55.1953C33.186 55.475 33.2955 55.7433 33.4906 55.9411C33.6856 56.1389 33.9502 56.25 34.226 56.25H55.0267C55.3025 56.25 55.5671 56.1389 55.7621 55.9411C55.9571 55.7433 56.0667 55.475 56.0667 55.1953C56.0667 54.9156 55.9571 54.6473 55.7621 54.4495C55.5671 54.2517 55.3025 54.1406 55.0267 54.1406ZM45.9382 37.2656C46.214 37.2656 46.4785 37.1545 46.6736 36.9567C46.8686 36.7589 46.9782 36.4907 46.9782 36.2109C46.9782 35.9312 46.8686 35.663 46.6736 35.4652C46.4785 35.2674 46.214 35.1562 45.9382 35.1562H27.5956C27.3197 35.1562 27.0552 35.2674 26.8602 35.4652C26.6651 35.663 26.5555 35.9312 26.5555 36.2109C26.5555 36.4907 26.6651 36.7589 26.8602 36.9567C27.0552 37.1545 27.3197 37.2656 27.5956 37.2656H45.9382ZM48.8816 29.8828C48.8816 29.6031 48.772 29.3348 48.577 29.137C48.382 28.9392 48.1174 28.8281 47.8416 28.8281H21.7891C21.5133 28.8281 21.2488 28.9392 21.0537 29.137C20.8587 29.3348 20.7491 29.6031 20.7491 29.8828C20.7491 30.1625 20.8587 30.4308 21.0537 30.6286C21.2488 30.8264 21.5133 30.9375 21.7891 30.9375H47.8416C48.1174 30.9375 48.382 30.8264 48.577 30.6286C48.772 30.4308 48.8816 30.1625 48.8816 29.8828ZM28.0116 43.5938H47.8416C48.1174 43.5938 48.382 43.4826 48.577 43.2848C48.772 43.087 48.8816 42.8188 48.8816 42.5391C48.8816 42.2593 48.772 41.9911 48.577 41.7933C48.382 41.5955 48.1174 41.4844 47.8416 41.4844H28.0116C27.7358 41.4844 27.4712 41.5955 27.2762 41.7933C27.0811 41.9911 26.9716 42.2593 26.9716 42.5391C26.9716 42.8188 27.0811 43.087 27.2762 43.2848C27.4712 43.4826 27.7358 43.5938 28.0116 43.5938Z" fill="#3C3B41"/>
</svg>
