<svg width="77" height="79" viewBox="0 0 77 79" fill="none" xmlns="http://www.w3.org/2000/svg">
<path d="M71.4649 6.73146V72.2192H5.53442V6.74792L71.4649 6.73146Z" fill="#FFE6A2"/>
<path d="M65.0161 40.9319H49.4238V72.2192H65.0161V40.9319Z" fill="#FFB044"/>
<path d="M41.7352 40.9384H13.677V58.6065H41.7352V40.9384Z" fill="#FFB044"/>
<path d="M71.4663 1.23438H5.49414V6.72487H71.4663V1.23438Z" fill="#FFC261"/>
<path d="M75.796 72.2208H1.20312V77.7673H75.796V72.2208Z" fill="#FFC261"/>
<path d="M49.4239 68.6642H5.53442V72.2192H49.4239V68.6642Z" fill="#FFD486"/>
<path d="M71.4648 68.6642H65.0161V72.2192H71.4648V68.6642Z" fill="#FFD486"/>
<path d="M65.0161 68.6642H49.4238V72.2192H65.0161V68.6642Z" fill="#FFA844"/>
<path d="M71.4649 9.90791V34.151C70.7447 34.4877 69.9749 34.699 69.187 34.7765C67.3318 34.9679 65.4752 34.4256 63.9965 33.2602C62.5178 32.0949 61.5284 30.3943 61.2304 28.5058L61.1342 27.9792H61.0059C60.9631 29.9638 60.1727 31.8543 58.8005 33.2538C57.4282 34.6533 55.5809 35.453 53.6463 35.4849C51.7117 35.5169 49.8403 34.7786 48.4249 33.4251C47.0094 32.0717 46.1601 30.2083 46.0552 28.226V27.9792H45.991C45.9505 29.9879 45.1443 31.9004 43.7453 33.3063C42.3463 34.7122 40.466 35.4996 38.5077 35.4996C36.5494 35.4996 34.6691 34.7122 33.2701 33.3063C31.8711 31.9004 31.0649 29.9879 31.0243 27.9792H30.9602L30.9441 28.226C30.8392 30.2083 29.9899 32.0717 28.5745 33.4251C27.159 34.7786 25.2876 35.5169 23.353 35.4849C21.4184 35.453 19.5711 34.6533 18.1988 33.2538C16.8266 31.8543 16.0362 29.9638 15.9935 27.9792H15.8651L15.7689 28.5058C15.4709 30.3943 14.4815 32.0949 13.0028 33.2602C11.5241 34.4256 9.66756 34.9679 7.81231 34.7765C7.02447 34.699 6.25467 34.4877 5.53442 34.151V9.90791H71.4649Z" fill="#FFD486"/>
<path d="M59.706 28.9502C58.8224 30.2735 57.5572 31.2797 56.0879 31.8278C54.6187 32.3759 53.019 32.4383 51.5134 32.0063C50.0078 31.5742 48.6718 30.6695 47.6928 29.4189C46.7139 28.1683 46.141 26.6347 46.0547 25.0331L45.0922 6.73146H58.2783L60.9251 23.3873C61.2409 25.3337 60.8034 27.3298 59.706 28.9502ZM18.72 6.73146L15.7684 25.3129C15.4865 27.0714 14.607 28.6707 13.2857 29.8275C11.9644 30.9843 10.2867 31.6239 8.54972 31.6329C8.30331 31.6384 8.05682 31.6274 7.81181 31.6C6.75134 31.4909 5.72676 31.1461 4.80927 30.5897C3.89178 30.0333 3.10338 29.2786 2.49887 28.378C1.89436 27.4775 1.48824 26.4526 1.30873 25.3748C1.12922 24.2969 1.18063 23.1919 1.45938 22.1365L5.53392 6.73146H18.72Z" fill="#EE6148"/>
<path d="M31.9065 6.73146L30.944 25.0331C30.8318 26.9916 29.9961 28.8325 28.6073 30.181C27.2184 31.5295 25.3808 32.2842 23.4687 32.2913C21.4867 32.2934 19.5849 31.4889 18.1804 30.0541C16.776 28.6193 15.9837 26.6716 15.9773 24.6381C15.9774 24.2192 16.0096 23.801 16.0735 23.3873L18.7204 6.73146H31.9065ZM46.023 24.6052C46.0154 25.6322 45.808 26.6473 45.4131 27.591C45.0181 28.5347 44.4435 29.388 43.7229 30.1008C43.0023 30.8137 42.1503 31.3718 41.2168 31.7424C40.2832 32.113 39.2869 32.2887 38.2863 32.2591C37.2858 32.2295 36.301 31.9953 35.3898 31.5702C34.4786 31.145 33.6593 30.5375 32.9799 29.7832C32.3005 29.029 31.7748 28.1431 31.4334 27.1777C31.0921 26.2122 30.9421 25.1866 30.9921 24.1608L31.9065 6.73146H45.0926L46.0069 24.1608C46.0069 24.309 46.023 24.4571 46.023 24.6052ZM74.5447 28.3083C73.9432 29.2281 73.151 30.0002 72.2248 30.5692C71.2985 31.1383 70.2612 31.4903 69.1869 31.6C68.9419 31.6274 68.6954 31.6384 68.449 31.6329C66.7099 31.6318 65.0281 30.9951 63.7052 29.8369C62.3823 28.6787 61.5049 27.0748 61.2303 25.3129L58.2787 6.73146H71.4648L75.5393 22.1365C75.8148 23.1782 75.8685 24.2686 75.6969 25.3335C75.5253 26.3984 75.1324 27.413 74.5447 28.3083Z" fill="#EE6148"/>
<path d="M59.7064 28.9502C58.5982 29.433 57.3929 29.6347 56.1926 29.5383C54.9923 29.4418 53.8323 29.05 52.8109 28.396C51.7895 27.742 50.9367 26.8452 50.3247 25.7814C49.7128 24.7175 49.3598 23.5181 49.2955 22.2846L48.4773 6.73146H58.2787L60.9255 23.3873C61.2413 25.3337 60.8038 27.3298 59.7064 28.9502ZM18.7204 6.73146L15.7688 25.3129C15.6027 26.3734 15.2141 27.3842 14.6298 28.2754C13.7293 28.6787 12.757 28.8861 11.7744 28.8844C11.528 28.8898 11.2815 28.8789 11.0365 28.8515C9.97801 28.7427 8.9553 28.3985 8.03956 27.843C7.12383 27.2875 6.33705 26.534 5.73397 25.6349C5.1309 24.7357 4.72601 23.7126 4.54747 22.6366C4.36893 21.5606 4.42103 20.4576 4.70015 19.4044L8.05282 6.73146H18.7204ZM31.9065 6.73146L30.944 25.0331C30.87 26.4314 30.4203 27.7815 29.6446 28.9338C28.7199 29.3519 27.7196 29.565 26.7091 29.5592C24.7254 29.5579 22.8231 28.7499 21.4189 27.3124C20.0148 25.8748 19.2232 23.9248 19.2177 21.8896C19.2178 21.4707 19.25 21.0525 19.3139 20.6388L21.5277 6.73146H31.9065ZM46.023 24.6052C46.0231 26.1491 45.5703 27.6574 44.7236 28.9338C43.7797 29.3443 42.7652 29.5569 41.7399 29.5592C40.7165 29.5584 39.7039 29.3439 38.7639 28.9287C37.8239 28.5135 36.9762 27.9063 36.2723 27.1441C35.5684 26.3818 35.0231 25.4806 34.6697 24.4952C34.3162 23.5097 34.162 22.4608 34.2165 21.4123L35.0025 6.73146H45.0926L46.007 24.1608C46.007 24.309 46.023 24.4571 46.023 24.6052ZM74.5447 28.3083C73.8681 28.593 73.1549 28.776 72.4273 28.8515C72.1823 28.8789 71.9358 28.8898 71.6894 28.8844C69.9485 28.8835 68.2647 28.2472 66.9393 27.0893C65.6138 25.9314 64.7331 24.3275 64.4547 22.5644L61.9522 6.73146H71.4648L75.5393 22.1365C75.8148 23.1782 75.8686 24.2686 75.6969 25.3335C75.5253 26.3984 75.1324 27.413 74.5447 28.3083Z" fill="#FF6E56"/>
<path d="M13.6771 39.7041C13.3581 39.7041 13.052 39.8341 12.8264 40.0656C12.6008 40.2971 12.474 40.6111 12.474 40.9385V58.6048C12.474 58.9322 12.6008 59.2462 12.8264 59.4777C13.052 59.7092 13.3581 59.8392 13.6771 59.8392H41.7353C42.0544 59.8392 42.3604 59.7092 42.586 59.4777C42.8117 59.2462 42.9384 58.9322 42.9384 58.6048V40.9385C42.9384 40.6111 42.8117 40.2971 42.586 40.0656C42.3604 39.8341 42.0544 39.7041 41.7353 39.7041H13.6771ZM40.5322 57.3705H14.8803V42.1728H40.5322V57.3705ZM7.68886 32.8229C9.27329 32.9879 10.871 32.6914 12.2987 31.9674C13.7264 31.2434 14.9264 30.1213 15.7609 28.7297C16.4746 30.1475 17.5477 31.3416 18.8673 32.1863C20.1868 33.0311 21.7039 33.4951 23.2589 33.5297C24.8138 33.5642 26.3491 33.1679 27.703 32.3826C29.0569 31.5972 30.1794 30.4519 30.9522 29.0671C31.2928 29.6687 31.6992 30.2287 32.1633 30.7359C32.9789 31.6193 33.9614 32.3228 35.0509 32.8036C36.1403 33.2844 37.3138 33.5323 38.4997 33.5323C39.6857 33.5323 40.8592 33.2844 41.9486 32.8036C43.038 32.3228 44.0205 31.6193 44.8361 30.7359C45.3003 30.2287 45.7066 29.6687 46.0472 29.0671C46.823 30.4481 47.9466 31.5897 49.3002 32.3722C50.6537 33.1546 52.1875 33.5492 53.7408 33.5146C55.294 33.4799 56.8096 33.0173 58.1288 32.1751C59.4479 31.333 60.522 30.1424 61.2385 28.728C62.3181 30.5129 63.988 31.8394 65.9427 32.4646C67.8974 33.0899 70.0061 32.9721 71.8831 32.1329C73.7601 31.2937 75.2798 29.7892 76.1642 27.8946C77.0486 26 77.2386 23.842 76.6993 21.8155L72.6681 6.55865V1.23438C72.6681 0.906998 72.5413 0.59303 72.3157 0.36154C72.0901 0.13005 71.784 0 71.465 0L5.49439 0C5.1753 0 4.86929 0.13005 4.64366 0.36154C4.41803 0.59303 4.29128 0.906998 4.29128 1.23438V6.70183L0.300155 21.8205C-0.024261 23.0478 -0.084173 24.3328 0.124587 25.5863C0.333347 26.8398 0.805767 28.0316 1.50898 29.0787C2.2122 30.1258 3.12933 31.0032 4.19657 31.6498C5.26381 32.2964 6.45554 32.6967 7.68886 32.8229ZM23.4657 31.0635C22.5557 31.0637 21.6565 30.8609 20.8304 30.4693C20.0044 30.0776 19.2712 29.5064 18.6816 28.7952C18.092 28.084 17.6602 27.2498 17.4159 26.3505C17.1717 25.4511 17.121 24.5079 17.2672 23.5864L19.7424 7.95925H30.6394L29.7876 24.0884L29.7411 24.9624C29.6549 26.6101 28.9561 28.1612 27.7886 29.2962C26.6212 30.4312 25.074 31.0637 23.4657 31.0635ZM43.0892 29.0391C42.1996 30.0054 41.0421 30.668 39.7734 30.9371C38.5048 31.2063 37.1861 31.069 35.9959 30.544C34.8058 30.0189 33.8016 29.1313 33.1192 28.0014C32.4369 26.8715 32.1094 25.5538 32.181 24.2267L32.2307 23.277L33.0328 7.95925H43.941L44.7431 23.277L44.7928 24.2267C44.8454 25.1058 44.7213 25.9866 44.4282 26.8144C44.1352 27.6423 43.6794 28.3995 43.0892 29.0391ZM58.3174 28.7955C57.503 29.7769 56.4206 30.4853 55.2098 30.8291C53.9991 31.1729 52.7157 31.1364 51.5254 30.7242C50.3351 30.312 49.2926 29.5432 48.5325 28.517C47.7725 27.4908 47.3298 26.2543 47.2616 24.9673L47.2151 24.0934L46.3633 7.96419H57.257L59.7322 23.5914C59.8793 24.5132 59.829 25.4569 59.5846 26.3567C59.3403 27.2566 58.9079 28.0911 58.3174 28.8021V28.7955ZM73.507 27.678C72.8131 28.7111 71.8338 29.5076 70.695 29.9649C69.5563 30.4223 68.3102 30.5196 67.1171 30.2444C65.9239 29.9692 64.8384 29.334 64 28.4205C63.1617 27.5071 62.6089 26.3571 62.4128 25.1187L59.6937 7.95925H70.5474L74.3765 22.4656C74.61 23.347 74.6532 24.2701 74.503 25.1704C74.3528 26.0706 74.0129 26.9264 73.507 27.678ZM6.6975 2.46875H70.2619V5.4905H6.6975V2.46875ZM2.62296 22.4656L6.45206 7.95925H17.3057L15.6294 18.5387L14.8915 23.1898L14.5867 25.1171C14.453 25.9586 14.1538 26.7635 13.7073 27.4827C13.2609 28.202 12.6765 28.8205 11.9898 29.3007C11.303 29.7809 10.5282 30.1128 9.71249 30.2761C8.89678 30.4395 8.05722 30.4309 7.24486 30.2508C6.4325 30.0708 5.66433 29.7231 4.98706 29.2289C4.30979 28.7347 3.73759 28.1043 3.30525 27.376C2.87291 26.6478 2.58948 25.8369 2.47218 24.9928C2.35489 24.1486 2.40619 23.2888 2.62296 22.4656Z" fill="black"/>
<path d="M75.796 70.9848H72.6679V35.5648C72.6679 35.2374 72.5411 34.9235 72.3155 34.692C72.0899 34.4605 71.7839 34.3304 71.4648 34.3304C71.1457 34.3304 70.8397 34.4605 70.6141 34.692C70.3884 34.9235 70.2617 35.2374 70.2617 35.5648V70.9848H66.2272V40.9385C66.2272 40.6111 66.1005 40.2971 65.8749 40.0656C65.6492 39.8341 65.3432 39.7041 65.0241 39.7041H49.4302C49.1111 39.7041 48.8051 39.8341 48.5795 40.0656C48.3539 40.2971 48.2271 40.6111 48.2271 40.9385V70.9848H6.73742V35.578C6.73742 35.2506 6.61066 34.9366 6.38504 34.7052C6.15941 34.4737 5.85339 34.3436 5.53431 34.3436C5.21523 34.3436 4.90921 34.4737 4.68358 34.7052C4.45795 34.9366 4.3312 35.2506 4.3312 35.578V70.9848H1.20311C0.884026 70.9848 0.57801 71.1149 0.352383 71.3463C0.126756 71.5778 0 71.8918 0 72.2192L0 77.7656C0 78.093 0.126756 78.407 0.352383 78.6385C0.57801 78.87 0.884026 79 1.20311 79H75.796C76.1151 79 76.4211 78.87 76.6467 78.6385C76.8723 78.407 76.9991 78.093 76.9991 77.7656V72.2192C76.9991 71.8918 76.8723 71.5778 76.6467 71.3463C76.4211 71.1149 76.1151 70.9848 75.796 70.9848ZM50.6333 42.1728H63.821V70.9848H50.6333V42.1728ZM74.5929 76.5313H2.40622V73.4536H74.5929V76.5313Z" fill="black"/>
</svg>
