<svg width="40" height="40" viewBox="0 0 40 40" fill="none" xmlns="http://www.w3.org/2000/svg">
<path d="M34.1423 5.85817C26.3313 -1.95272 13.6693 -1.95272 5.85825 5.85817C-1.95275 13.6691 -1.95275 26.3309 5.85825 34.1418C13.6693 41.9527 26.3313 41.9527 34.1423 34.1418C41.9534 26.3309 41.9518 13.6691 34.1423 5.85817ZM30.8848 15.0546L18.7315 27.2093C18.4315 27.5093 18.0246 27.6777 17.6004 27.6777C17.1761 27.6777 16.7692 27.5093 16.4692 27.2093L9.11577 19.8544C8.96723 19.7059 8.84939 19.5295 8.769 19.3354C8.6886 19.1413 8.64723 18.9333 8.64723 18.7232C8.64723 18.299 8.81577 17.8921 9.11577 17.5921C9.41578 17.2921 9.82267 17.1236 10.2469 17.1236C10.6712 17.1236 11.0781 17.2921 11.3781 17.5921L17.6004 23.8142L28.6225 12.7907C28.7711 12.6421 28.9476 12.5243 29.1418 12.444C29.336 12.3636 29.5441 12.3223 29.7542 12.3224C29.9644 12.3225 30.1725 12.3639 30.3666 12.4444C30.5607 12.5249 30.7371 12.6428 30.8856 12.7915C31.0342 12.9401 31.152 13.1166 31.2323 13.3108C31.3127 13.505 31.354 13.7131 31.3539 13.9232C31.3539 14.1334 31.3124 14.3414 31.2319 14.5356C31.1514 14.7297 31.0335 14.9061 30.8848 15.0546Z" fill="#FD7401"/>
</svg>
