<svg width="25" height="22" viewBox="0 0 25 22" fill="none" xmlns="http://www.w3.org/2000/svg">
<path d="M9.8366 20.8543C4.41046 20.8543 0 16.436 0 11.0002C0 5.56433 4.41046 1.146 9.8366 1.146C15.2627 1.146 19.6732 5.56433 19.6732 11.0002C19.6732 16.436 15.2627 20.8543 9.8366 20.8543ZM9.8366 2.521C5.16993 2.521 1.37255 6.32516 1.37255 11.0002C1.37255 15.6752 5.16993 19.4793 9.8366 19.4793C14.5033 19.4793 18.3007 15.6752 18.3007 11.0002C18.3007 6.32516 14.5033 2.521 9.8366 2.521Z" fill="white"/>
<path d="M10.9892 14.9235C10.8154 14.9235 10.6415 14.8593 10.5043 14.7218L7.27421 11.486C7.00886 11.2201 7.00886 10.7801 7.27421 10.5143L10.5043 7.27848C10.7696 7.01264 11.2089 7.01264 11.4742 7.27848C11.7396 7.54431 11.7396 7.98431 11.4742 8.25014L8.72912 11.0001L11.4742 13.7501C11.7396 14.016 11.7396 14.456 11.4742 14.7218C11.3461 14.8593 11.1723 14.9235 10.9892 14.9235Z" fill="white"/>
</svg>
