<svg width="25" height="22" viewBox="0 0 25 22" fill="none" xmlns="http://www.w3.org/2000/svg">
<path d="M15.1634 20.8543C20.5895 20.8543 25 16.436 25 11.0002C25 5.56433 20.5895 1.146 15.1634 1.146C9.73725 1.146 5.3268 5.56433 5.3268 11.0002C5.3268 16.436 9.73725 20.8543 15.1634 20.8543ZM15.1634 2.521C19.8301 2.521 23.6275 6.32516 23.6275 11.0002C23.6275 15.6752 19.8301 19.4793 15.1634 19.4793C10.4967 19.4793 6.69935 15.6752 6.69935 11.0002C6.69935 6.32516 10.4967 2.521 15.1634 2.521Z" fill="white"/>
<path d="M14.0108 14.9235C14.1846 14.9235 14.3585 14.8593 14.4957 14.7218L17.7258 11.486C17.9911 11.2201 17.9911 10.7801 17.7258 10.5143L14.4957 7.27848C14.2304 7.01264 13.7911 7.01264 13.5258 7.27848C13.2604 7.54431 13.2604 7.98431 13.5258 8.25014L16.2709 11.0001L13.5258 13.7501C13.2604 14.016 13.2604 14.456 13.5258 14.7218C13.6539 14.8593 13.8277 14.9235 14.0108 14.9235Z" fill="white"/>
</svg>
