<svg width="40" height="40" viewBox="0 0 40 40" fill="none" xmlns="http://www.w3.org/2000/svg">
<rect x="0.5" y="0.5" width="39" height="39" rx="4.5" stroke="black"/>
<path d="M20 6C16.15 6 13 9.82625 13 14.5407C13 19.2552 16.15 23.0815 20 23.0815C23.85 23.0815 27 19.2552 27 14.5407C27 9.82625 23.85 6 20 6ZM12.685 23.0815C8.975 23.2523 6 26.2245 6 29.9141V33.3304H34V29.9141C34 26.2245 31.06 23.2523 27.315 23.0815C25.425 25.1654 22.835 26.4978 20 26.4978C17.165 26.4978 14.575 25.1654 12.685 23.0815Z" fill="white"/>
</svg>
