<svg width="771" height="562" viewBox="0 0 771 562" fill="none" xmlns="http://www.w3.org/2000/svg">
<g clip-path="url(#clip0_1748_425)">
<path opacity="0.18" d="M688.073 113.174C695.439 157.612 653.329 201.435 666.339 244.356C673.827 269.149 696.291 284.61 715.656 300.556C746.431 325.845 774.828 362.588 770.579 403.605C765.983 447.845 726.223 479.123 686.706 494.207C538.476 550.734 30.8592 650.034 0.805054 399.38C-4.92311 351.471 21.0502 303.998 50.1965 266.868C73.3806 237.345 202.517 104.655 249.718 79.882C459.976 -30.5048 666.377 -17.6325 688.073 113.174Z" fill="#0E7490"/>
<path opacity="0.05" d="M430.511 49.0202C430.511 49.0202 708.496 46.4517 661.865 166.934C625.746 260.154 667.023 266.987 679.93 312.07C692.837 357.153 677.852 408.514 646.721 432.85C615.591 457.187 491.228 452.883 491.228 488.951C491.228 525.019 456.597 511.83 456.597 511.83H238.608L278.425 384.614L430.511 49.0202Z" fill="#000405"/>
<path d="M238.608 497.698H472.611V511.829H238.608V497.698ZM278.425 384.604H436.866V497.698H278.425V384.604Z" fill="#0E7490"/>
<path d="M278.424 384.604H436.866V497.698H278.424V384.604Z" fill="#0E7490"/>
<path d="M278.424 384.604H436.866V497.698H278.424V384.604Z" fill="url(#paint0_linear_1748_425)"/>
<path d="M646.721 64.6394V360.822C646.721 369.313 645.142 377.721 642.073 385.565C639.005 393.409 634.508 400.535 628.838 406.536C623.169 412.538 616.439 417.296 609.033 420.54C601.628 423.784 593.691 425.45 585.677 425.442H121.433C105.258 425.442 89.7458 418.634 78.3083 406.515C66.8708 394.397 60.4453 377.961 60.4453 360.822V64.6394C60.4441 56.1522 62.0206 47.7477 65.0849 39.906C68.1492 32.0643 72.6412 24.9389 78.3044 18.9366C83.9677 12.9342 90.6913 8.17257 98.0914 4.92344C105.492 1.6743 113.423 0.0013144 121.433 1.2173e-05H585.677C593.692 -0.00519919 601.629 1.6629 609.035 4.90901C616.441 8.15511 623.171 12.9156 628.84 18.9184C634.509 24.9213 639.006 32.0488 642.074 39.8938C645.142 47.7388 646.721 56.1475 646.721 64.6394Z" fill="#0E7490"/>
<path d="M646.721 64.6394V345.292H60.5107V64.6394C60.5095 56.1522 62.086 47.7477 65.1503 39.906C68.2146 32.0643 72.7066 24.9389 78.3699 18.9366C84.0331 12.9342 90.7568 8.17257 98.1568 4.92344C105.557 1.6743 113.489 0.0013144 121.499 1.2173e-05H585.677C593.692 -0.00519919 601.629 1.6629 609.035 4.909C616.441 8.15511 623.17 12.9156 628.839 18.9184C634.508 24.9213 639.006 32.0488 642.074 39.8938C645.142 47.7388 646.721 56.1475 646.721 64.6394Z" fill="url(#paint1_linear_1748_425)"/>
<path d="M131.289 58.5603H545.496V145.107H131.289V58.5603Z" fill="url(#paint2_linear_1748_425)"/>
<path d="M131.289 156.154H319.439V330.466H131.289V156.154Z" fill="url(#paint3_linear_1748_425)"/>
<path d="M332.73 156.154H542.154V214.367H332.73V156.154Z" fill="url(#paint4_linear_1748_425)"/>
<path d="M332.73 225.415H542.154V283.628H332.73V225.415Z" fill="url(#paint5_linear_1748_425)"/>
<path d="M332.73 294.676H542.154V330.466H332.73V294.676Z" fill="url(#paint6_linear_1748_425)"/>
<path d="M452.038 538.864H460.977L433.469 171.704L425.915 173.856L427.628 197.845L400.485 199.66L398.398 171.704L390.844 173.856L416.977 538.864H425.915L422.799 497.212L449.006 495.506L448.613 488.931L422.303 490.647L420.066 460.896L446.966 459.091L446.582 452.516L419.579 454.281L417.351 424.48L443.727 422.705L452.038 538.864ZM400.981 206.206L428.124 204.371L430.258 234.182L403.237 235.996L400.981 206.206ZM403.705 242.562L430.708 240.727L432.842 270.666L405.97 272.452L403.705 242.562ZM406.447 278.987L433.31 277.162L435.593 308.986L408.778 310.712L406.447 278.987ZM409.311 317.267L436.061 315.571L438.046 343.339L411.398 345.134L409.311 317.267ZM411.885 351.699L438.514 349.904L440.648 379.754L414.122 381.529L411.885 351.699ZM416.855 417.915L414.609 388.065L441.125 386.27L443.259 416.14L416.855 417.915ZM224.466 195.019V171.704H218.953V195.019H192.137V202.239H218.953V525.029H224.466V239.824L257.15 202.239H282.178V194.979L224.466 195.019ZM224.466 229.62V202.239H249.325L224.466 229.62ZM496.759 195.019V171.704H491.246V195.019H438.28V202.239H461.277L491.228 236.651V525.029H496.759V202.239H528.339V194.979L496.759 195.019ZM491.246 226.625L469.092 202.239H491.228L491.246 226.625Z" fill="#0E7490"/>
<g opacity="0.61">
<path d="M452.039 538.864H460.977L433.469 171.704L425.915 173.856L427.628 197.845L400.485 199.66L398.398 171.704L390.844 173.856L416.977 538.864H425.915L422.799 497.212L449.006 495.506L448.613 488.931L422.303 490.647L420.066 460.896L446.966 459.091L446.582 452.516L419.579 454.281L417.351 424.48L443.727 422.705L452.039 538.864ZM400.981 206.206L428.124 204.371L430.258 234.182L403.237 235.996L400.981 206.206ZM403.705 242.562L430.708 240.727L432.842 270.666L405.97 272.452L403.705 242.562ZM406.447 278.987L433.31 277.162L435.593 308.986L408.778 310.712L406.447 278.987ZM409.311 317.267L436.061 315.571L438.046 343.339L411.398 345.134L409.311 317.267ZM411.885 351.699L438.514 349.904L440.648 379.754L414.122 381.529L411.885 351.699ZM416.855 417.915L414.609 388.065L441.125 386.27L443.259 416.14L416.855 417.915Z" fill="url(#paint7_linear_1748_425)"/>
<path d="M224.466 195.019V171.704H218.953V195.019H192.137V202.239H218.953V525.029H224.466V239.824L257.15 202.239H282.178V194.979L224.466 195.019ZM224.466 229.62V202.239H249.325L224.466 229.62Z" fill="url(#paint8_linear_1748_425)"/>
<path d="M496.759 195.019V171.704H491.246V195.019H438.28V202.239H461.277L491.228 236.651V525.029H496.759V202.239H528.339V194.979L496.759 195.019ZM491.246 226.625L469.092 202.239H491.228L491.246 226.625Z" fill="url(#paint9_linear_1748_425)"/>
</g>
<path d="M439.103 269.318L438.467 275.367H425.279C425.279 275.367 424.203 271.876 426.608 271.004C427.927 270.51 429.287 270.148 430.67 269.923L439.103 269.318Z" fill="#0E7490"/>
<path d="M420.711 144.025C420.104 149.439 420.421 154.925 421.647 160.22C422.383 161.224 423.358 162.003 424.471 162.475C425.585 162.948 426.798 163.097 427.984 162.908V166.934H434.33L436.988 146.782C436.988 146.782 427.057 133.345 420.711 144.025Z" fill="url(#paint10_linear_1748_425)"/>
<path d="M425.157 146.039C426.15 148.146 426.784 150.422 427.029 152.762C427.029 152.762 428.293 150.075 428.901 151.414C429.51 152.752 427.638 155.45 427.638 155.45L429.51 158.802H435.921C435.921 158.802 439.094 144.095 437.316 142.072C435.537 140.049 434.339 140.088 434.339 140.088C434.339 140.088 434.339 138.105 430.53 138.105C426.72 138.105 421.657 138.105 419.757 141.467C417.857 144.829 417.22 143.45 417.22 143.45C417.22 143.45 418.297 145.939 419.944 145.335C420.337 145.235 424.521 144.025 425.157 146.039Z" fill="#333333"/>
<path d="M428.003 166.934H438.663C438.663 166.934 443.165 167.926 443.793 179.36C444.176 187.173 444.176 195.001 443.793 202.814V221.557L438.663 219.742L419.635 224.245L417.763 196.764C415.789 196.51 413.891 195.803 412.2 194.693C410.51 193.584 409.067 192.098 407.973 190.338C406.588 188.138 405.716 185.62 405.429 182.992C405.143 180.364 405.45 177.702 406.325 175.225L419.57 182.613L420.272 178.646C420.997 174.347 423.269 170.515 426.608 167.955L428.003 166.934Z" fill="#0E7490"/>
<path d="M408.095 171.506L404.931 160.756L417.548 158.732L421.797 173.38L419.448 182.186L411.904 178.15L408.095 171.506Z" fill="#FCFDFF"/>
<path d="M405.558 177.545C405.773 175.297 406.662 173.18 408.094 171.506L408.731 172.17H412.727L413.364 174.798L411.904 177.01C411.029 177.784 409.948 178.252 408.811 178.348C407.675 178.444 406.538 178.163 405.558 177.545Z" fill="url(#paint11_linear_1748_425)"/>
<path d="M411.904 178.15L415.011 186.887L419.448 182.186L411.904 178.15Z" fill="url(#paint12_linear_1748_425)"/>
<path opacity="0.61" d="M417.548 196.288C417.548 196.288 427.694 192.252 427.694 185.538L430.24 216.39L419.448 219.098L417.548 196.288Z" fill="url(#paint13_linear_1748_425)"/>
<path d="M419.448 219.068L417.548 252.528L420.084 269.992H427.694L428.957 241.173L433.394 229.074L430.23 269.992L439.103 270.666L443.474 216.38L438.467 214.367L419.448 219.068Z" fill="#333333"/>
<path d="M427.31 269.992V276.716L413.935 271.658C413.935 271.658 413.935 267.959 416.528 267.959C417.931 267.95 419.333 268.087 420.711 268.366L427.31 269.992ZM252.751 535.373L253.406 541.402H266.603C266.603 541.402 267.68 537.912 265.265 537.039C263.95 536.544 262.592 536.185 261.212 535.968L252.751 535.373Z" fill="#0E7490"/>
<path d="M261.876 408.791C264.17 413.633 265.631 418.868 266.191 424.252C265.433 428.08 260.987 428.953 260.987 428.953L262.195 432.781L255.858 435.131L247.228 416.993C247.228 416.993 252.62 400.798 261.876 408.791Z" fill="url(#paint14_linear_1748_425)"/>
<path d="M258.264 412.223C257.898 414.444 257.898 416.715 258.264 418.937C258.264 418.937 256.233 416.854 256.045 418.332C255.858 419.809 258.451 421.693 258.451 421.693L257.693 425.521L251.927 427.604C251.927 427.604 244.439 414.712 245.581 412.223C246.723 409.733 247.294 409.466 247.294 409.466C247.294 409.466 246.658 407.581 250.27 406.243C253.883 404.904 258.694 403.268 261.502 405.777C264.31 408.286 264.478 406.768 264.478 406.768C264.478 406.768 264.478 409.456 262.447 409.525C262.644 409.803 258.264 410.071 258.264 412.223Z" fill="#333333"/>
<path d="M264.16 432.85H253.509C253.509 432.85 249.007 433.842 248.37 445.276C247.987 453.086 247.987 460.911 248.37 468.72V487.463L253.509 485.649L272.528 490.151L274.4 462.681C276.368 462.337 278.242 461.547 279.895 460.364C281.548 459.181 282.939 457.634 283.975 455.828C285.356 453.624 286.225 451.104 286.512 448.476C286.798 445.847 286.493 443.184 285.622 440.704L272.369 448.093L271.667 444.126C270.939 439.831 268.667 436.002 265.33 433.445L264.16 432.85Z" fill="#0E7490"/>
<path d="M283.76 437.481L286.923 426.801L274.241 424.787L270.057 439.435L272.341 448.231L279.95 444.205L283.76 437.481Z" fill="#FCFDFF"/>
<path d="M286.287 443.6C286.08 441.346 285.19 439.224 283.75 437.551L283.123 438.225H279.126L278.49 440.843L279.95 443.055C280.823 443.829 281.902 444.297 283.037 444.395C284.171 444.493 285.307 444.215 286.287 443.6Z" fill="url(#paint15_linear_1748_425)"/>
<path opacity="0.61" d="M274.241 462.542C274.241 462.542 264.095 458.515 264.095 451.792L264.918 488.207L272.341 489.952L274.241 462.542Z" fill="url(#paint16_linear_1748_425)"/>
<path d="M272.341 485.113L274.241 518.573L271.77 536.037H264.16L262.897 507.218L258.451 495.119L261.624 536.037L252.751 536.712L248.314 482.426L253.378 480.412L272.341 485.113Z" fill="#333333"/>
<path d="M264.544 536.037V540.748L278.424 540.073C278.424 540.073 277.797 535.373 275.261 535.373C273.895 535.432 272.539 535.107 271.33 534.431L264.544 536.037Z" fill="#0E7490"/>
<path d="M488.813 144.72H456.409C451.988 144.717 447.748 142.854 444.622 139.54C441.496 136.226 439.74 131.733 439.74 127.047V119.52C439.74 114.836 441.496 110.344 444.622 107.031C447.748 103.719 451.988 101.858 456.409 101.858H488.813C491.003 101.857 493.171 102.313 495.195 103.2C497.219 104.087 499.057 105.388 500.606 107.028C502.155 108.668 503.384 110.616 504.222 112.759C505.06 114.903 505.492 117.2 505.492 119.52V127.047C505.492 129.368 505.061 131.666 504.222 133.81C503.384 135.954 502.156 137.903 500.607 139.544C499.058 141.185 497.219 142.486 495.196 143.374C493.172 144.263 491.003 144.72 488.813 144.72Z" fill="white"/>
<path d="M443.474 154.032C443.474 154.032 456.728 154.706 459.901 144.63H469.728C469.728 144.63 463.139 157.394 443.474 154.032Z" fill="white"/>
<path opacity="0.15" d="M450.962 108.483H495.477C495.78 108.483 496.07 108.61 496.284 108.837C496.499 109.064 496.619 109.372 496.619 109.693V110.635C496.619 110.956 496.499 111.263 496.284 111.49C496.07 111.717 495.78 111.845 495.477 111.845H450.962C450.659 111.845 450.369 111.717 450.155 111.49C449.94 111.263 449.82 110.956 449.82 110.635V109.693C449.82 109.372 449.94 109.064 450.155 108.837C450.369 108.61 450.659 108.483 450.962 108.483ZM450.962 116.545H495.477C495.78 116.545 496.07 116.673 496.284 116.9C496.499 117.126 496.619 117.434 496.619 117.755V118.697C496.619 119.018 496.499 119.326 496.284 119.553C496.07 119.78 495.78 119.907 495.477 119.907H450.962C450.659 119.907 450.369 119.78 450.155 119.553C449.94 119.326 449.82 119.018 449.82 118.697V117.755C449.82 117.434 449.94 117.126 450.155 116.9C450.369 116.673 450.659 116.545 450.962 116.545ZM450.962 124.538H495.477C495.78 124.538 496.07 124.666 496.284 124.893C496.499 125.12 496.619 125.427 496.619 125.748V126.69C496.619 127.011 496.499 127.319 496.284 127.546C496.07 127.773 495.78 127.9 495.477 127.9H450.962C450.659 127.9 450.369 127.773 450.155 127.546C449.94 127.319 449.82 127.011 449.82 126.69V125.748C449.82 125.427 449.94 125.12 450.155 124.893C450.369 124.666 450.659 124.538 450.962 124.538ZM450.962 132.601H475.232C475.533 132.604 475.821 132.732 476.033 132.959C476.245 133.185 476.364 133.492 476.364 133.811V134.803C476.364 135.122 476.245 135.428 476.033 135.655C475.821 135.881 475.533 136.01 475.232 136.012H450.962C450.659 136.012 450.369 135.885 450.155 135.658C449.94 135.431 449.82 135.123 449.82 134.803V133.811C449.82 133.49 449.94 133.182 450.155 132.955C450.369 132.728 450.659 132.601 450.962 132.601Z" fill="#020202"/>
<path d="M193.401 412.689H225.804C230.161 412.674 234.34 410.851 237.444 407.61C240.548 404.37 242.33 399.97 242.408 395.354V387.499C242.408 382.815 240.652 378.323 237.526 375.01C234.4 371.698 230.16 369.837 225.738 369.837H193.401C188.977 369.837 184.735 371.699 181.607 375.013C178.479 378.327 176.721 382.822 176.721 387.509V395.364C176.807 399.99 178.602 404.396 181.721 407.636C184.84 410.875 189.033 412.69 193.401 412.689ZM238.608 422.229C238.608 422.229 225.355 422.903 222.182 412.828H212.42C212.42 412.828 218.775 425.452 238.608 422.229Z" fill="white"/>
<path opacity="0.15" d="M231.13 379.843H186.615C186.312 379.843 186.021 379.716 185.807 379.489C185.593 379.262 185.473 378.954 185.473 378.633V377.691C185.473 377.37 185.593 377.063 185.807 376.836C186.021 376.609 186.312 376.481 186.615 376.481H231.13C231.432 376.481 231.723 376.609 231.937 376.836C232.151 377.063 232.272 377.37 232.272 377.691V378.633C232.272 378.954 232.151 379.262 231.937 379.489C231.723 379.716 231.432 379.843 231.13 379.843ZM231.13 387.965H186.615C186.465 387.965 186.316 387.934 186.178 387.873C186.039 387.812 185.913 387.723 185.807 387.611C185.701 387.499 185.617 387.365 185.56 387.219C185.502 387.072 185.473 386.914 185.473 386.756V385.813C185.475 385.494 185.597 385.189 185.811 384.964C186.024 384.74 186.313 384.613 186.615 384.613H231.13C231.431 384.613 231.72 384.74 231.934 384.964C232.148 385.189 232.269 385.494 232.272 385.813V386.756C232.272 386.914 232.242 387.072 232.185 387.219C232.127 387.365 232.043 387.499 231.937 387.611C231.831 387.723 231.705 387.812 231.567 387.873C231.428 387.934 231.28 387.965 231.13 387.965ZM231.13 395.959H186.615C186.313 395.959 186.024 395.832 185.811 395.608C185.597 395.383 185.475 395.078 185.473 394.759V393.816C185.473 393.496 185.593 393.188 185.807 392.961C186.021 392.734 186.312 392.607 186.615 392.607H231.13C231.432 392.607 231.723 392.734 231.937 392.961C232.151 393.188 232.272 393.496 232.272 393.816V394.759C232.269 395.078 232.148 395.383 231.934 395.608C231.72 395.832 231.431 395.959 231.13 395.959ZM231.13 404.021H206.841C206.538 404.021 206.248 403.894 206.034 403.667C205.82 403.44 205.699 403.132 205.699 402.811V401.879C205.699 401.558 205.82 401.25 206.034 401.024C206.248 400.797 206.538 400.669 206.841 400.669H231.13C231.432 400.669 231.723 400.797 231.937 401.024C232.151 401.25 232.272 401.558 232.272 401.879V402.811C232.272 403.132 232.151 403.44 231.937 403.667C231.723 403.894 231.432 404.021 231.13 404.021Z" fill="#020202"/>
<path opacity="0.61" d="M279.697 444.87C279.697 444.87 277.825 453.606 275.261 452.268C274.503 451.856 273.831 451.286 273.286 450.592C272.741 449.899 272.333 449.096 272.088 448.231L279.697 444.87Z" fill="url(#paint17_linear_1748_425)"/>
</g>
<defs>
<linearGradient id="paint0_linear_1748_425" x1="357.655" y1="406.976" x2="357.655" y2="559.183" gradientUnits="userSpaceOnUse">
<stop stop-opacity="0.4"/>
<stop offset="1" stop-color="white" stop-opacity="0"/>
</linearGradient>
<linearGradient id="paint1_linear_1748_425" x1="159.696" y1="-39.0831" x2="666.5" y2="500.513" gradientUnits="userSpaceOnUse">
<stop offset="0.02" stop-color="white" stop-opacity="0"/>
<stop offset="1" stop-color="white"/>
</linearGradient>
<linearGradient id="paint2_linear_1748_425" x1="327.002" y1="626.699" x2="346.008" y2="-153.664" gradientUnits="userSpaceOnUse">
<stop offset="0.02" stop-color="white" stop-opacity="0"/>
<stop offset="1" stop-color="white"/>
</linearGradient>
<linearGradient id="paint3_linear_1748_425" x1="215.237" y1="710.151" x2="234.244" y2="-70.2119" gradientUnits="userSpaceOnUse">
<stop offset="0.02" stop-color="white" stop-opacity="0"/>
<stop offset="1" stop-color="white"/>
</linearGradient>
<linearGradient id="paint4_linear_1748_425" x1="426.44" y1="692.459" x2="445.446" y2="-87.9039" gradientUnits="userSpaceOnUse">
<stop offset="0.02" stop-color="white" stop-opacity="0"/>
<stop offset="1" stop-color="white"/>
</linearGradient>
<linearGradient id="paint5_linear_1748_425" x1="426.084" y1="778.232" x2="445.091" y2="-2.13128" gradientUnits="userSpaceOnUse">
<stop offset="0.02" stop-color="white" stop-opacity="0"/>
<stop offset="1" stop-color="white"/>
</linearGradient>
<linearGradient id="paint6_linear_1748_425" x1="431.578" y1="582.915" x2="450.585" y2="-197.438" gradientUnits="userSpaceOnUse">
<stop offset="0.02" stop-color="white" stop-opacity="0"/>
<stop offset="1" stop-color="white"/>
</linearGradient>
<linearGradient id="paint7_linear_1748_425" x1="501.449" y1="572.046" x2="290.293" y2="37.202" gradientUnits="userSpaceOnUse">
<stop offset="0.58"/>
<stop offset="0.78" stop-opacity="0.16"/>
</linearGradient>
<linearGradient id="paint8_linear_1748_425" x1="346.62" y1="633.175" x2="135.464" y2="98.3208" gradientUnits="userSpaceOnUse">
<stop offset="0.58"/>
<stop offset="0.78" stop-opacity="0.16"/>
</linearGradient>
<linearGradient id="paint9_linear_1748_425" x1="574.23" y1="543.316" x2="363.075" y2="8.46227" gradientUnits="userSpaceOnUse">
<stop offset="0.58"/>
<stop offset="0.78" stop-opacity="0.16"/>
</linearGradient>
<linearGradient id="paint10_linear_1748_425" x1="420.421" y1="153.417" x2="437.007" y2="153.417" gradientUnits="userSpaceOnUse">
<stop stop-color="#ECC4D7"/>
<stop offset="0.42" stop-color="#EFD4D1"/>
<stop offset="1" stop-color="#F2EAC9"/>
</linearGradient>
<linearGradient id="paint11_linear_1748_425" x1="405.558" y1="174.937" x2="413.364" y2="174.937" gradientUnits="userSpaceOnUse">
<stop stop-color="#ECC4D7"/>
<stop offset="0.42" stop-color="#EFD4D1"/>
<stop offset="1" stop-color="#F2EAC9"/>
</linearGradient>
<linearGradient id="paint12_linear_1748_425" x1="409.452" y1="180.897" x2="425.189" y2="186.577" gradientUnits="userSpaceOnUse">
<stop stop-color="#68E1FD"/>
<stop offset="0.01" stop-color="#67DDF9"/>
<stop offset="0.12" stop-color="#5CB3CE"/>
<stop offset="0.24" stop-color="#538EA9"/>
<stop offset="0.37" stop-color="#4C718B"/>
<stop offset="0.5" stop-color="#465A73"/>
<stop offset="0.63" stop-color="#424A63"/>
<stop offset="0.79" stop-color="#404059"/>
<stop offset="0.99" stop-color="#3F3D56"/>
</linearGradient>
<linearGradient id="paint13_linear_1748_425" x1="393.914" y1="204.053" x2="442.19" y2="201.517" gradientUnits="userSpaceOnUse">
<stop offset="0.36" stop-color="#00272E"/>
<stop offset="1" stop-color="#69B9EB" stop-opacity="0"/>
</linearGradient>
<linearGradient id="paint14_linear_1748_425" x1="247.228" y1="420.85" x2="266.191" y2="420.85" gradientUnits="userSpaceOnUse">
<stop stop-color="#ECC4D7"/>
<stop offset="0.42" stop-color="#EFD4D1"/>
<stop offset="1" stop-color="#F2EAC9"/>
</linearGradient>
<linearGradient id="paint15_linear_1748_425" x1="278.49" y1="440.982" x2="286.287" y2="440.982" gradientUnits="userSpaceOnUse">
<stop stop-color="#ECC4D7"/>
<stop offset="0.42" stop-color="#EFD4D1"/>
<stop offset="1" stop-color="#F2EAC9"/>
</linearGradient>
<linearGradient id="paint16_linear_1748_425" x1="288.692" y1="473.579" x2="255.897" y2="469.713" gradientUnits="userSpaceOnUse">
<stop offset="0.36" stop-color="#00272E"/>
<stop offset="1" stop-color="#69B9EB" stop-opacity="0"/>
</linearGradient>
<linearGradient id="paint17_linear_1748_425" x1="272.088" y1="448.638" x2="279.697" y2="448.638" gradientUnits="userSpaceOnUse">
<stop offset="0.36" stop-color="#00272E"/>
<stop offset="1" stop-color="#69B9EB" stop-opacity="0"/>
</linearGradient>
<clipPath id="clip0_1748_425">
<rect width="771" height="562" fill="white"/>
</clipPath>
</defs>
</svg>
