<svg width="115" height="127" viewBox="0 0 115 127" fill="none" xmlns="http://www.w3.org/2000/svg">
<path d="M20.7803 105.449V102.171C20.7803 89.502 32.0484 79.2314 45.9484 79.2314C59.8483 79.2314 71.1165 89.502 71.1165 102.171V105.449" stroke="#FD7401" stroke-width="5" stroke-linecap="round" stroke-linejoin="round"/>
<path d="M45.9482 79.2314C53.8909 79.2314 60.3299 73.3624 60.3299 66.1229C60.3299 58.8832 53.8909 53.0143 45.9482 53.0143C38.0053 53.0143 31.5664 58.8832 31.5664 66.1229C31.5664 73.3624 38.0053 79.2314 45.9482 79.2314Z" stroke="#FD7401" stroke-width="5" stroke-linecap="round" stroke-linejoin="round"/>
<path d="M88.8177 37.4456V121.027C88.8177 122.676 87.5371 124.012 85.9571 124.012H5.86059C4.28073 124.012 3 122.676 3 121.027V37.4456C3 35.797 4.28073 34.4606 5.86059 34.4606H85.9571C87.5371 34.4606 88.8177 35.797 88.8177 37.4456Z" stroke="#FD7401" stroke-width="5" stroke-linecap="round" stroke-linejoin="round"/>
<path d="M88.8086 25.9904V38.0906V25.9904Z" fill="white"/>
<path d="M88.8086 25.9904V38.0906" stroke="#FD7401" stroke-width="5" stroke-linecap="round" stroke-linejoin="round"/>
<path d="M88.8086 16.3343L88.8322 16.3076L88.8086 16.3343Z" fill="white"/>
<path d="M88.8086 16.3343L88.8322 16.3076" stroke="#FD7401" stroke-width="5" stroke-linecap="round" stroke-linejoin="round"/>
<path d="M88.8087 51.4009C101.617 51.4009 112 40.5659 112 27.2005C112 13.8349 101.617 3 88.8087 3C76.0004 3 65.6172 13.8349 65.6172 27.2005C65.6172 40.5659 76.0004 51.4009 88.8087 51.4009Z" fill="white" stroke="#FD7401" stroke-width="5" stroke-linecap="round" stroke-linejoin="round"/>
<path d="M88.8086 25.9904V38.0906" stroke="#FD7401" stroke-width="5" stroke-linecap="round" stroke-linejoin="round"/>
<path d="M88.8086 16.3343L88.8322 16.3076" stroke="#FD7401" stroke-width="5" stroke-linecap="round" stroke-linejoin="round"/>
</svg>
