<svg width="40" height="43" viewBox="0 0 40 43" fill="none" xmlns="http://www.w3.org/2000/svg">
<path d="M16.3094 19.8247L3.09474 33.9146C1.63509 35.4708 1.63509 37.9943 3.09474 39.5505C4.55437 41.1069 6.92093 41.1069 8.38058 39.5505L21.5952 25.4608" stroke="white" stroke-width="3.1433" stroke-linecap="round" stroke-linejoin="round"/>
<path d="M29.6573 26.1866L36.9052 33.9146C38.3649 35.4708 38.3649 37.9942 36.9052 39.5505C35.4456 41.1069 33.0789 41.1069 31.6194 39.5505L20.0167 27.1796" stroke="white" stroke-width="3.1433" stroke-linecap="round" stroke-linejoin="round"/>
<path d="M10.1093 10.4539L6.14493 11.8629L2.18054 4.81798L4.82346 2L11.4308 6.22696L10.1093 10.4539ZM10.1093 10.4539L15.3985 16.0934" stroke="white" stroke-width="3.1433" stroke-linecap="round" stroke-linejoin="round"/>
<path d="M16.3094 19.8247C14.7324 15.5346 15.0407 9.90557 18.2916 6.43941C21.5425 2.97324 27.5418 2.21246 30.8455 4.32594L25.163 10.3848L24.6348 16.5839L30.4488 16.0207L36.1313 9.96186C38.1136 13.4843 37.4001 19.8811 34.1492 23.3473C30.8982 26.8134 25.6189 27.1422 21.5954 25.4606" stroke="white" stroke-width="3.1433" stroke-linecap="round" stroke-linejoin="round"/>
</svg>
