<svg width="40" height="43" viewBox="0 0 40 43" fill="none" xmlns="http://www.w3.org/2000/svg">
<path d="M16.3094 19.8247L3.09474 33.9146C1.63509 35.4708 1.63509 37.9943 3.09474 39.5505C4.55437 41.1069 6.92093 41.1069 8.38058 39.5505L21.5952 25.4608" stroke="#292929" stroke-width="3.1433" stroke-linecap="round" stroke-linejoin="round"/>
<path d="M29.6574 26.1866L36.9053 33.9146C38.365 35.4708 38.365 37.9942 36.9053 39.5505C35.4457 41.1069 33.079 41.1069 31.6195 39.5505L20.0168 27.1796" stroke="#292929" stroke-width="3.1433" stroke-linecap="round" stroke-linejoin="round"/>
<path d="M10.1092 10.4539L6.14481 11.8629L2.18042 4.81798L4.82334 2L11.4307 6.22696L10.1092 10.4539ZM10.1092 10.4539L15.3984 16.0934" stroke="#292929" stroke-width="3.1433" stroke-linecap="round" stroke-linejoin="round"/>
<path d="M16.3095 19.8247C14.7326 15.5346 15.0409 9.90557 18.2918 6.43941C21.5426 2.97324 27.5419 2.21246 30.8456 4.32594L25.1631 10.3848L24.6349 16.5839L30.4489 16.0207L36.1314 9.96186C38.1137 13.4843 37.4002 19.8811 34.1493 23.3473C30.8983 26.8134 25.6191 27.1422 21.5955 25.4606" stroke="#292929" stroke-width="3.1433" stroke-linecap="round" stroke-linejoin="round"/>
</svg>
