<svg width="36" height="28" viewBox="0 0 36 28" fill="none" xmlns="http://www.w3.org/2000/svg">
<path d="M31.065 22.505L25.965 18.55C27.6105 16.9195 28.5033 14.9061 28.5 12.8333C28.5 10.9874 27.7962 9.18287 26.4776 7.64802C25.1591 6.11316 23.2849 4.91688 21.0922 4.21046C18.8995 3.50404 16.4867 3.31921 14.1589 3.67934C11.8312 4.03947 9.69296 4.92838 8.01472 6.23367C6.33649 7.53896 5.1936 9.20201 4.73058 11.0125C4.26756 12.823 4.5052 14.6996 5.41345 16.405C6.3217 18.1105 7.85977 19.5682 9.83316 20.5937C11.8066 21.6193 14.1266 22.1667 16.5 22.1667C19.165 22.1692 21.7537 21.4748 23.85 20.195L28.935 24.1617C29.0745 24.271 29.2404 24.3578 29.4231 24.417C29.6059 24.4763 29.802 24.5068 30 24.5068C30.198 24.5068 30.3941 24.4763 30.5769 24.417C30.7597 24.3578 30.9256 24.271 31.065 24.1617C31.2056 24.0532 31.3172 23.9242 31.3933 23.782C31.4695 23.6398 31.5087 23.4874 31.5087 23.3333C31.5087 23.1793 31.4695 23.0268 31.3933 22.8847C31.3172 22.7425 31.2056 22.6135 31.065 22.505ZM7.50001 12.8333C7.50001 11.4489 8.02785 10.0955 9.01678 8.94435C10.0057 7.7932 11.4113 6.89599 13.0559 6.36618C14.7004 5.83637 16.51 5.69774 18.2558 5.96784C20.0016 6.23794 21.6053 6.90462 22.864 7.88359C24.1226 8.86256 24.9798 10.1098 25.3271 11.4677C25.6743 12.8256 25.4961 14.233 24.8149 15.5121C24.1337 16.7912 22.9802 17.8845 21.5001 18.6536C20.0201 19.4228 18.28 19.8333 16.5 19.8333C14.1131 19.8333 11.8239 19.0958 10.136 17.7831C8.44822 16.4703 7.50001 14.6899 7.50001 12.8333Z" fill="#292929"/>
</svg>
