<svg width="31" height="30" viewBox="0 0 31 30" fill="none" xmlns="http://www.w3.org/2000/svg">
<path d="M11.2875 0C9.225 0 7.5375 1.6875 7.5375 3.75V7.5H0.375C0.15 7.5 0.0375 7.65 0.0375 7.8375V16.875C0.0375 17.925 0.8625 18.75 1.9125 18.75H28.1625C29.2125 18.75 30.0375 17.925 30.0375 16.875V7.8375C30.0375 7.6125 29.8875 7.5 29.7 7.5H22.5375V3.75C22.5375 1.6875 20.85 0 18.7875 0L11.2875 0ZM11.2875 3.75H18.7875V7.5H11.2875V3.75ZM0.0375 22.1625V29.6625C0.0375 29.85 0.1875 30 0.375 30H29.6625C29.85 30 30 29.85 30 29.6625V22.1625C29.4 22.3875 28.8 22.5 28.125 22.5H1.875C1.2 22.5 0.6 22.35 0 22.1625H0.0375Z" fill="white"/>
</svg>
