<svg width="144" height="216" viewBox="0 0 144 216" fill="none" xmlns="http://www.w3.org/2000/svg">
<path d="M52.0001 156.6L20.9402 164.483C16.0348 165.796 11.7426 168.443 8.69371 172.035C5.64482 175.627 3.99984 179.975 4.00024 184.44V212.28H140V184.44C140 179.975 138.355 175.627 135.306 172.035C132.258 168.443 127.965 165.796 123.06 164.483L92 156.6H52.0001Z" fill="#595A5D"/>
<path d="M48.0002 157.616V212.28H32.0002V161.677L48.0002 157.616Z" fill="#FFC239"/>
<path d="M112 161.677V212.28H96V157.616L112 161.677Z" fill="#FFC239"/>
<path d="M96 194.88H48.0001V212.28H96V194.88Z" fill="#FFE2A0"/>
<path d="M132 73.0803H12.0002V97.4404H132V73.0803Z" fill="#434444"/>
<path d="M92 138.504V156.6L79.2 164.952C77.1229 166.308 74.5965 167.04 72.0001 167.04C69.4036 167.04 66.8772 166.308 64.8001 164.952L52.0001 156.6V138.504H92Z" fill="#F4C8AD"/>
<path d="M52.0001 145.429C58.1871 148.197 65.0434 149.64 72.0001 149.64C78.9567 149.64 85.8131 148.197 92 145.429V138.504H52.0001V145.429ZM28.0002 83.52C23.7567 83.52 19.6871 84.9866 16.6865 87.5971C13.686 90.2076 12.0002 93.7482 12.0002 97.4401C12.0002 101.132 13.686 104.672 16.6865 107.283C19.6871 109.894 23.7567 111.36 28.0002 111.36C28.2442 111.36 28.4842 111.36 28.7242 111.36H115.276C115.516 111.36 115.756 111.36 116 111.36C120.243 111.36 124.313 109.894 127.314 107.283C130.314 104.672 132 101.132 132 97.4401C132 93.7482 130.314 90.2076 127.314 87.5971C124.313 84.9866 120.243 83.52 116 83.52H28.0002Z" fill="#F2B9A1"/>
<path d="M28.0002 73.0803V104.4C28.0002 114.553 32.6359 124.29 40.8875 131.469C49.1391 138.647 60.3306 142.68 72.0001 142.68C83.6696 142.68 94.8612 138.647 103.113 131.469C111.364 124.29 116 114.553 116 104.4V73.0803H28.0002Z" fill="#F4C8AD"/>
<path d="M136 55.6799H8.00023C5.7911 55.6799 4.00024 57.238 4.00024 59.1599V69.6C4.00024 71.5219 5.7911 73.08 8.00023 73.08H136C138.209 73.08 140 71.5219 140 69.6V59.1599C140 57.238 138.209 55.6799 136 55.6799Z" fill="#FFE2A0"/>
<path d="M20.0001 55.6803C20.0001 34.8003 39.0801 17.5011 64 14.4109H80C104.92 17.5011 124 34.8003 124 55.6803H20.0001Z" fill="#EDA820"/>
<path d="M40.0001 100.92C39.9736 106.525 41.3677 112.066 44.0832 117.148C46.7987 122.23 50.7689 126.729 55.7109 130.324C60.6529 133.919 66.4453 136.522 72.6755 137.948C78.9057 139.373 85.4205 139.586 91.756 138.571C99.0409 135.39 105.166 130.51 109.447 124.476C113.729 118.442 115.997 111.491 116 104.4V73.0803H40.0001V100.92Z" fill="#FBDAC2"/>
<path d="M104 41.7603C101.878 41.7603 99.8433 41.027 98.343 39.7217C96.8428 38.4165 95.9999 36.6462 95.9999 34.8003V18.6669C90.9501 16.5405 85.5532 15.1049 80 14.4109H64C58.4468 15.1049 53.0499 16.5405 48 18.6669V34.8003C48 36.6462 47.1572 38.4165 45.6569 39.7217C44.1566 41.027 42.1218 41.7603 40.0001 41.7603H23.0001C21.0261 46.2006 20.0091 50.9194 20.0001 55.6803H124C123.991 50.9194 122.974 46.2006 121 41.7603H104Z" fill="#FFC239"/>
<path d="M76.0002 3.48022H68.0002C65.7911 3.48022 64.0002 5.03828 64.0002 6.96023V38.2803C64.0002 40.2023 65.7911 41.7603 68.0002 41.7603H76.0002C78.2093 41.7603 80.0002 40.2023 80.0002 38.2803V6.96023C80.0002 5.03828 78.2093 3.48022 76.0002 3.48022Z" fill="#FFCE61"/>
<path d="M136 52.2001H127.8C126.477 42.2305 121.506 32.8948 113.619 25.571C105.733 18.2472 95.3488 13.3232 84 11.5258V6.96002C84 5.1141 83.1571 3.3438 81.6569 2.03854C80.1566 0.733285 78.1217 0 76 0H68C65.8783 0 63.8435 0.733285 62.3432 2.03854C60.8429 3.3438 60.0001 5.1141 60.0001 6.96002V11.5258C48.6512 13.3232 38.2672 18.2472 30.3806 25.571C22.494 32.8948 17.5226 42.2305 16.2002 52.2001H8.0002C5.87847 52.2001 3.84365 52.9334 2.34336 54.2387C0.843076 55.5439 0.000221774 57.3142 0.000221774 59.1601V69.6002C0.000221774 71.4461 0.843076 73.2164 2.34336 74.5216C3.84365 75.8269 5.87847 76.5602 8.0002 76.5602V97.4402C8.01525 101.668 9.80282 105.746 13.0276 108.909C16.2524 112.072 20.6929 114.103 25.5161 114.621C27.0943 120.021 29.896 125.093 33.7569 129.539C37.6178 133.985 42.4602 137.716 48.0001 140.512V153.99L19.7642 161.159C14.0289 162.673 9.00788 165.756 5.44724 169.95C1.88659 174.144 -0.0236898 179.226 0.000221774 184.44V212.28C0.000221774 213.203 0.421649 214.089 1.17179 214.741C1.92194 215.394 2.93935 215.76 4.00021 215.76H140C141.061 215.76 142.078 215.394 142.828 214.741C143.578 214.089 144 213.203 144 212.28V184.44C144.021 179.218 142.103 174.13 138.532 169.932C134.961 165.735 129.927 162.653 124.18 161.145L96 153.99V140.512C101.54 137.716 106.382 133.985 110.243 129.539C114.104 125.093 116.906 120.021 118.484 114.621C123.307 114.103 127.748 112.072 130.972 108.909C134.197 105.746 135.985 101.668 136 97.4402V76.5602C138.122 76.5602 140.156 75.8269 141.657 74.5216C143.157 73.2164 144 71.4461 144 69.6002V59.1601C144 57.3142 143.157 55.5439 141.657 54.2387C140.156 52.9334 138.122 52.2001 136 52.2001ZM114.628 38.2801H104C102.939 38.2801 101.922 37.9134 101.172 37.2608C100.421 36.6082 99.9999 35.723 99.9999 34.8001V24.6837C106.035 28.154 111.046 32.8118 114.628 38.2801ZM68 6.96002H76V38.2801H68V6.96002ZM44.0001 24.6837V34.8001C44.0001 35.723 43.5787 36.6082 42.8285 37.2608C42.0784 37.9134 41.061 38.2801 40.0001 38.2801H29.3721C32.9538 32.8118 37.965 28.154 44.0001 24.6837ZM25.8681 45.2401H40.0001C43.1827 45.2401 46.2349 44.1402 48.4854 42.1823C50.7358 40.2244 52.0001 37.5689 52.0001 34.8001V20.9044C54.5883 19.9494 57.2645 19.1857 60.0001 18.6215V38.2801C60.0001 40.126 60.8429 41.8963 62.3432 43.2016C63.8435 44.5068 65.8783 45.2401 68 45.2401H76C78.1217 45.2401 80.1566 44.5068 81.6569 43.2016C83.1571 41.8963 84 40.126 84 38.2801V18.6215C86.7356 19.1857 89.4117 19.9494 92 20.9044V34.8001C92 37.5689 93.2643 40.2244 95.5147 42.1823C97.7651 44.1402 100.817 45.2401 104 45.2401H118.132C118.959 47.5045 119.516 49.8367 119.796 52.2001H24.1962C24.4784 49.8365 25.0387 47.5042 25.8681 45.2401ZM24.0002 76.5602V80.3882C21.0895 80.9251 18.3552 82.0253 16.0002 83.6072V76.5602H24.0002ZM16.0002 97.4402C16.0104 95.2887 16.7845 93.1924 18.2165 91.4383C19.6485 89.6841 21.6685 88.3577 24.0002 87.6405V104.4C24.0002 105.375 24.0922 106.328 24.1682 107.285C21.7968 106.59 19.7346 105.267 18.27 103.502C16.8054 101.737 16.0118 99.6173 16.0002 97.4402ZM44.0001 208.8H36.0001V164.288L44.0001 162.255V208.8ZM52.0001 198.36H92V208.8H52.0001V198.36ZM99.9999 162.255L108 164.288V208.8H99.9999V162.255ZM92 160.95V191.4H52.0001V160.95L62.4001 167.736C65.1696 169.544 68.5381 170.52 72 170.52C75.4619 170.52 78.8305 169.544 81.6 167.736L92 160.95ZM8.0002 184.44C7.98114 180.724 9.33881 177.101 11.872 174.109C14.4052 171.116 17.9791 168.914 22.0642 167.827L28.0001 166.317V208.8H8.0002V184.44ZM136 184.44V208.8H116V166.32L121.884 167.813C125.98 168.894 129.566 171.096 132.109 174.092C134.652 177.087 136.016 180.716 136 184.44ZM88 154.86L76.8 162.168C75.4 163.04 73.7216 163.509 72 163.509C70.2785 163.509 68.6 163.04 67.2 162.168L56.0001 154.86V143.724C66.3401 146.972 77.66 146.972 88 143.724V154.86ZM72 139.2C61.395 139.19 51.2276 135.521 43.7287 128.996C36.2298 122.472 32.0118 113.627 32.0001 104.4V76.5602H112V104.4C111.988 113.627 107.77 122.472 100.271 128.996C92.7724 135.521 82.6051 139.19 72 139.2ZM119.832 107.285C119.908 106.328 120 105.375 120 104.4V87.6405C122.351 88.3545 124.385 89.6906 125.819 91.4614C127.253 93.2322 128.014 95.3491 127.996 97.5151C127.977 99.6812 127.18 101.788 125.716 103.54C124.252 105.292 122.194 106.602 119.832 107.285ZM128 83.6107C125.645 82.0288 122.911 80.9285 120 80.3917V76.5602H128V83.6107ZM8.0002 69.6002V59.1601H136V69.6002H8.0002Z" fill="black"/>
</svg>
