<svg width="689" height="476" viewBox="0 0 689 476" fill="none" xmlns="http://www.w3.org/2000/svg">
<path d="M637.222 296.42C637.47 291.704 635.158 286.766 634.79 282.103C634.481 278.188 634.606 273.758 634.811 269.828C634.967 266.845 635.725 261.152 638.81 259.905C642.628 258.362 643.352 262.881 646.358 258.124C650.704 251.243 646.65 242.159 648.781 234.685C649.567 231.929 652.633 228.036 655.732 229.719C659.221 231.614 656.388 236.112 661.34 234.244C663.174 233.552 664.53 231.275 666.867 230.732C668.872 230.265 672.14 230.269 674.19 230.632C678.77 231.441 684.635 235.453 686.973 240.102C692.453 250.997 680.399 250.245 674.202 251.356C671.756 251.794 666.982 252.552 665.65 255.298C663.297 260.151 669.758 261.497 672.19 264.409C681.051 275.018 663.002 273.58 658.438 273.432C655.153 273.327 651.901 273.48 650.79 277.498C649.649 281.627 653.438 283.995 652.416 288.322C650.989 294.366 642.124 299.233 637.222 296.42Z" fill="#295FC5"/>
<path d="M267.43 318.947C267.742 314.21 270.656 310.868 270.644 306.004C270.636 302.657 269.796 299.265 268.255 296.41C266.144 292.496 263.231 290.852 259.391 290.115C256.532 289.566 252.784 290.189 251.735 286.057C251.358 284.575 252.436 282.236 252.558 280.652C252.742 278.255 252.353 276.533 251.756 274.345C249.325 265.448 242.364 264.981 237.373 271.666C231.395 279.673 228.127 287.846 236.48 295.192C239.416 297.774 244.493 300.616 245.635 304.98C247.084 310.515 241.606 309.568 239.774 314.091C237.099 320.697 241.575 320.898 245.725 321.65C252.612 322.897 246.382 325.391 247.402 330.132C251.067 331.401 260.192 338.289 263.811 336.098C268.048 333.535 270.929 320.2 268.636 315.793" fill="#3E89FC"/>
<path d="M642.046 133.462V343.501L524.001 377.742V159.413L642.046 133.462Z" fill="#F4AC38"/>
<path d="M642.045 133.462L524.001 159.413L424.72 102.645L531.912 80.2988L642.045 133.462Z" fill="#FFC962"/>
<path d="M524.001 159.413V377.742L476.314 347.664V248.844L424.72 223.939V102.646L524.001 159.413Z" fill="#E28529"/>
<path d="M476.314 347.664V387.428L358.27 421.669V274.795L424.72 260.188V315.117L476.314 347.664Z" fill="#F4AC38"/>
<path d="M476.314 248.844V347.664L424.72 315.117V260.188L476.314 248.844Z" fill="#F4AC38"/>
<path d="M476.314 248.844L424.72 260.188V223.938L476.314 248.844ZM424.72 223.938V260.188L358.27 274.795L258.989 218.027L366.18 195.681L424.72 223.938Z" fill="#FFC962"/>
<path d="M358.27 274.794V421.668L297.504 383.337V373.777L258.989 351.331V218.027L358.27 274.794Z" fill="#E28529"/>
<path d="M297.504 383.337V441.537L179.46 475.777V399.727L286.265 376.246L297.504 383.337ZM297.504 373.777V383.337L286.265 376.246L297.504 373.777Z" fill="#F4AC38"/>
<path d="M297.504 373.777L286.265 376.246L258.989 359.044V351.331L297.504 373.777Z" fill="#FFC962"/>
<path d="M286.265 376.246L179.46 399.728L80.1783 342.96L197.756 315.64L258.989 351.331V359.044L286.265 376.246Z" fill="#FFC962"/>
<path d="M179.46 399.727V475.778L80.1783 413.153V342.96L179.46 399.727Z" fill="#E28529"/>
<path d="M467.6 0.419434L431.023 63.0436V34.66L223.192 176.506L217.46 149.6L422.984 17.5397L411.729 2.6721L467.6 0.419434Z" fill="#E22953"/>
<path d="M227.235 347.781C233.264 349.583 234.47 358.143 234.068 359.269C233.666 360.396 185.03 359.72 184.226 359.269C183.423 358.819 187.836 338.13 187.836 338.13C191.277 340.644 203.729 340.825 207.941 340.815L207.138 345.302C207.138 345.302 221.206 345.979 227.235 347.781Z" fill="#1E1950"/>
<path d="M154.386 235.742C154.386 235.742 226.029 275.921 225.627 286.734C225.225 297.547 209.348 340.798 209.348 340.798C209.348 340.798 208.826 340.816 207.942 340.816C203.729 340.826 191.277 340.646 187.836 338.132C187.45 337.852 187.177 337.537 187.04 337.194L197.089 295.295L129.964 276.128L129.473 275.938L138.051 248.068V248.059C149.643 242.229 154.482 236.498 154.482 236.498L154.386 235.742Z" fill="#403882"/>
<path d="M218.191 248.06C221.005 253.511 221.302 272.091 218.891 270.848C216.479 269.613 209.855 253.962 208.946 253.727C208.946 253.727 211.061 263.873 209.75 263.531C208.81 263.288 203.809 258.395 200.94 253.889C201.012 252.421 201.358 250.736 202.145 248.88C204.179 244.086 204.284 237.715 204.083 233.615C208.191 237.076 216.133 244.077 218.191 248.06Z" fill="#FDA181"/>
<path d="M204.083 233.616C204.284 237.716 204.179 244.086 202.145 248.88C201.358 250.736 201.012 252.421 200.94 253.89C199.798 252.106 198.994 250.385 198.906 249.033C203.287 242.203 202.145 234.21 201.583 231.552H201.591C201.591 231.552 202.58 232.345 204.083 233.616Z" fill="#F77556"/>
<path d="M201.583 231.552C202.145 234.21 203.287 242.203 198.906 249.033C198.6 249.519 198.263 249.997 197.893 250.465C197.893 250.465 175.191 235.616 161.026 219.063C161.026 219.054 161.018 219.045 161.018 219.045C156.227 205.223 154.193 170.766 153.445 153.385C152.489 164.684 151.315 184.03 152.023 205.484C152.344 215.324 153.06 225.596 154.386 235.742L154.482 236.499C154.482 236.499 149.643 242.23 138.051 248.06V248.069C127.23 253.502 110.517 259.026 86.3522 260.053C86.3522 260.053 85.9744 234.499 86.6255 211.819C89.415 199.105 94.6243 178.912 97.8962 166.45C94.9459 172.902 91.264 180.993 87.9037 188.481C83.5948 198.068 79.8004 206.683 78.7152 209.62C75.8372 217.423 70.3386 245.212 70.3386 245.212C69.1649 245.717 67.951 246.104 66.7211 246.393C61.0375 247.744 55.2334 247.041 53.5452 246.789C53.2236 246.744 53.0548 246.708 53.0548 246.708C53.0548 246.708 55.8684 215.477 57.8782 209.016C59.8879 202.556 79.8567 140.085 82.6704 135.877C84.7444 132.786 95.5166 127.172 101.064 124.415L123.653 131.642L129.441 142.049H129.433L125.205 151.799L119.65 215.774L123.323 228.389L131.169 216.378L136.129 151.799L131.539 142.049L135.149 130.894L152.207 123.983C155.021 125.181 157.859 126.632 158.502 127.767C159.844 130.173 166.139 189.346 166.139 189.346C166.139 189.346 186.775 221.929 201.374 230.642C201.374 230.642 201.47 230.966 201.583 231.552Z" fill="#FD7401"/>
<path d="M161.018 219.045C157.183 214.567 153.976 209.954 152.022 205.484C151.315 184.03 152.489 164.684 153.445 153.385C154.193 170.766 156.227 205.223 161.018 219.045ZM152.207 123.983L135.149 130.894L135.551 129.651L146.041 121.613C146.041 121.613 149.104 122.649 152.207 123.983Z" fill="#FD7401"/>
<path d="M152.207 86.1744C152.207 86.1744 149.418 89.6255 146.443 91.2744L145.004 78.3892C145.093 78.6324 145.173 78.8307 145.238 78.9659C146.307 81.0653 152.207 86.1744 152.207 86.1744Z" fill="#F77556"/>
<path d="M146.46 94.2745C146.693 94.5268 146.709 94.9413 146.484 95.2116C146.419 95.2837 145.374 96.5001 142.649 96.5001C141.339 96.5001 139.635 96.2208 137.472 95.3918C137.321 95.3337 137.197 95.2112 137.126 95.0509C137.055 94.8906 137.044 94.7055 137.094 94.5358C137.199 94.1844 137.544 93.9952 137.858 94.1123C143.678 96.3289 145.591 94.3015 145.607 94.2835C145.841 94.0222 146.218 94.0132 146.46 94.2745Z" fill="black"/>
<path d="M146.444 91.2739C146.444 91.2739 148.188 105.096 146.444 105.691C144.699 106.295 134.787 108.701 134.787 108.701C134.787 108.701 129.079 108.998 125.598 106.52C125.598 106.52 129.57 112.728 135.591 114.458C135.872 116.369 136.178 118.243 136.395 119.207L129.964 133.93L115.63 116.81C115.63 115.459 114.368 105.493 114.368 105.493L121.257 103.141L120.855 93.5266C120.855 93.5266 116.965 93.833 116.032 87.5255C115.092 81.2181 119.111 81.1099 120.582 82.8129C122.061 84.516 123.131 86.0207 123.131 86.0207L126.611 84.3718L124.336 73.1084C124.336 73.1084 120.864 72.5047 120.719 68.2967C120.454 60.4935 140.68 60.043 140.68 60.043C140.68 60.043 141.331 63.1697 142.151 66.9001C138.477 65.5034 134.409 69.7114 134.24 69.8916C134.162 69.9715 134.099 70.0679 134.055 70.1754C134.011 70.2828 133.986 70.3991 133.982 70.5174C133.979 70.6357 133.996 70.7537 134.033 70.8644C134.071 70.9751 134.127 71.0763 134.2 71.1621C134.361 71.3514 134.57 71.4505 134.787 71.4505C134.988 71.4505 135.181 71.3694 135.334 71.2072C136.371 70.1169 139.57 67.5579 141.918 68.7112C142.127 68.8194 142.36 68.8103 142.561 68.7202C143.437 72.6128 144.41 76.7037 145.005 78.3887L146.444 91.2739ZM146.484 95.2116C146.591 95.0833 146.648 94.9129 146.643 94.7375C146.639 94.5621 146.573 94.3957 146.46 94.2745C146.345 94.15 146.191 94.0812 146.032 94.0828C145.872 94.0845 145.72 94.1566 145.607 94.2835C145.591 94.3016 143.678 96.329 137.858 94.1123C137.707 94.0558 137.541 94.0687 137.398 94.148C137.255 94.2273 137.146 94.3667 137.094 94.5358C136.99 94.8872 137.158 95.2747 137.472 95.3918C139.635 96.2208 141.339 96.5001 142.649 96.5001C145.374 96.5001 146.419 95.2837 146.484 95.2116ZM142.239 76.7848C142.239 75.6675 141.789 74.7574 141.234 74.7574C140.68 74.7574 140.229 75.6675 140.229 76.7848C140.229 77.9021 140.68 78.8122 141.234 78.8122C141.789 78.8122 142.239 77.9021 142.239 76.7848Z" fill="#FDA181"/>
<path d="M146.041 121.613L135.551 129.651L132.568 131.939H132.56L129.964 133.931L136.395 119.207L146.041 121.613Z" fill="#FD7401"/>
<path d="M142.561 67.0716C142.97 67.2698 143.155 67.8015 142.97 68.252C142.89 68.4682 142.737 68.6304 142.561 68.7205C142.416 68.0988 142.279 67.4861 142.151 66.9004C142.287 66.9454 142.424 66.9995 142.561 67.0716Z" fill="black"/>
<path d="M142.151 66.8997C142.279 67.4854 142.416 68.0981 142.561 68.7199C142.36 68.81 142.126 68.819 141.917 68.7109C139.57 67.5575 136.371 70.1165 135.334 71.2068C135.181 71.369 134.988 71.4501 134.787 71.4501C134.57 71.4501 134.361 71.351 134.2 71.1618C134.127 71.076 134.071 70.9747 134.033 70.864C133.996 70.7533 133.978 70.6354 133.982 70.5171C133.986 70.3988 134.011 70.2825 134.055 70.175C134.099 70.0676 134.162 69.9711 134.24 69.8913C134.409 69.7111 138.477 65.5031 142.151 66.8997Z" fill="black"/>
<path d="M141.234 78.8126C141.789 78.8126 142.239 77.9049 142.239 76.7852C142.239 75.6655 141.789 74.7578 141.234 74.7578C140.679 74.7578 140.229 75.6655 140.229 76.7852C140.229 77.9049 140.679 78.8126 141.234 78.8126Z" fill="#231F20"/>
<path d="M141.885 54.1863C142.561 58.5384 140.68 60.0432 140.68 60.0432C140.68 60.0432 120.453 60.4937 120.719 68.297C120.863 72.5049 124.336 73.1087 124.336 73.1087L126.611 84.372L123.13 86.021C123.13 86.021 122.061 84.5162 120.582 82.8132C119.111 81.1102 115.091 81.2183 116.032 87.5258C116.965 93.8332 120.855 93.5269 120.855 93.5269L121.257 103.141L114.368 105.493L113.347 105.844C113.347 105.844 113.218 104.195 112.013 98.9333C110.807 93.68 100.083 79.5603 99.1502 78.0646C98.2097 76.5598 101.827 72.505 101.827 72.505C96.4652 62.44 108.395 50.2756 121.659 47.2751C134.924 44.2745 141.218 49.8251 141.885 54.1863Z" fill="#816246"/>
<path d="M138.051 248.069L129.473 275.939L108.998 342.474L107.189 341.771L104.376 278.472L95.9346 275.093L84.7524 275.695L86.3522 260.053C110.517 259.026 127.23 253.502 138.051 248.069Z" fill="#295FC5"/>
<path d="M131.539 142.049L136.129 151.799L131.169 216.378L123.323 228.39L119.65 215.775L125.204 151.799L129.433 142.049H129.441L130.767 144.437L131.539 142.049ZM135.551 129.651L135.149 130.894L132.568 131.939L135.551 129.651Z" fill="#1E1950"/>
<path d="M135.149 130.894L131.539 142.049L130.767 144.437L129.441 142.049L123.653 131.642L127.592 132.903H127.6L129.963 133.93L132.56 131.939H132.568L135.149 130.894Z" fill="#1E1950"/>
<path d="M134.787 108.701C134.787 108.701 135.173 111.611 135.591 114.458C129.57 112.728 125.598 106.52 125.598 106.52C129.079 108.998 134.787 108.701 134.787 108.701Z" fill="#F77556"/>
<path d="M115.63 116.81L129.964 133.931L127.6 132.903H127.592L123.323 131.047L104.375 122.811L115.63 116.81Z" fill="#FD7401"/>
<path d="M127.592 132.903L123.653 131.642L123.323 131.047L127.592 132.903Z" fill="#1E1950"/>
<path d="M123.323 131.047L123.653 131.642L101.063 124.415C103.057 123.433 104.376 122.812 104.376 122.812L123.323 131.047Z" fill="#FD7401"/>
<path d="M112.68 425.002C117.302 427.894 116.9 434.058 114.89 435.635C112.881 437.211 67.0585 436.31 66.2546 435.635C65.4507 434.959 68.4734 413.495 68.4734 413.495C81.0705 415.586 87.5016 415.216 90.3796 414.739L89.9696 419.866C89.9696 419.866 108.057 422.119 112.68 425.002Z" fill="#1E1950"/>
<path d="M108.998 342.474L106.048 352.061L92.3814 414.235C92.3814 414.235 91.8267 414.496 90.3797 414.739C87.5017 415.217 81.0706 415.586 68.4735 413.496C68.1439 413.451 67.8143 413.388 67.4767 413.334L80.122 344.023V343.564L97.9444 343.429L107.189 341.771L108.998 342.474Z" fill="#295FC5"/>
<path d="M104.375 278.471L107.189 341.771L97.9442 343.429L95.9344 275.092L104.375 278.471Z" fill="#E28529"/>
<path d="M95.9347 275.092L97.9444 343.429L80.122 343.564L19.6931 344.023L21.3089 279.147C21.3089 279.147 41.4787 302.836 54.5822 306.107V306.116L55.3379 314.288H60.5632V306.116L60.5069 305.899C73.2326 301.511 95.9347 275.092 95.9347 275.092Z" fill="#F4AC38"/>
<path d="M84.7525 275.695L95.9347 275.092C95.9347 275.092 73.2326 301.511 60.507 305.898C59.9683 306.079 59.4538 306.232 58.9554 306.331C57.629 306.601 56.1579 306.502 54.5822 306.106C41.4787 302.835 21.309 279.146 21.309 279.146L43.3679 277.947H44.2924V277.893L79.3181 275.992L84.7525 275.695Z" fill="#FFC962"/>
<path d="M87.9037 188.481C91.264 180.993 94.9458 172.902 97.8961 166.45C94.6243 178.912 89.415 199.105 86.6255 211.819C86.8667 203.069 87.2686 194.743 87.9037 188.481Z" fill="#FD7401"/>
<path d="M79.3181 261.125V275.974L75.9659 276.128L76.3678 264.846L67.4847 264.999L69.2694 261.575L71.9544 261.278L79.3181 261.125Z" fill="#E28529"/>
<path d="M70.8772 253.322C72.485 257.377 71.9544 261.279 71.9544 261.279L69.2694 261.576L67.4847 265H67.4767C67.332 265.288 67.1712 265.595 66.9944 265.937C64.7113 270.289 61.769 272.542 57.4762 271.344C56.0694 270.948 55.161 268.163 54.5822 264.604C54.3577 263.207 54.1807 261.8 54.0516 260.387C53.6658 256.251 53.5612 251.917 53.5452 249.285C55.5549 249.069 63.2803 248.366 68.98 249.565C69.6311 250.619 70.3144 251.899 70.8772 253.322Z" fill="#FDA181"/>
<path d="M66.721 246.393C66.721 246.393 67.7902 247.6 68.9799 249.565C63.2803 248.366 55.5549 249.069 53.5451 249.285C53.529 247.744 53.5451 246.789 53.5451 246.789C55.2333 247.042 61.0374 247.744 66.721 246.393Z" fill="#F77556"/>
<path d="M60.5631 306.116V314.288H55.3378L54.5822 306.116V306.107C56.1578 306.503 57.6289 306.602 58.9554 306.332C59.4538 306.233 59.9683 306.08 60.5069 305.899L60.5631 306.116Z" fill="white"/>
<path d="M54.5822 264.603L44.7505 263.982L44.2923 277.894L43.3678 277.948H41.6073C41.6073 277.948 42.2022 261.125 42.2022 260.386C42.2022 259.657 53.6899 260.36 54.0516 260.386C54.1883 261.846 54.3651 263.279 54.5822 264.603Z" fill="#E28529"/>
<path d="M87.9037 189.157C87.8005 189.157 87.699 189.127 87.609 189.071C87.519 189.014 87.4434 188.933 87.3895 188.834C87.3356 188.735 87.3052 188.623 87.3012 188.507C87.2972 188.392 87.3198 188.277 87.3667 188.174L100.69 158.85C100.763 158.691 100.889 158.57 101.041 158.514C101.194 158.459 101.359 158.473 101.502 158.555C101.644 158.636 101.752 158.778 101.801 158.948C101.851 159.119 101.838 159.304 101.765 159.464L88.4415 188.787C88.391 188.899 88.3141 188.992 88.2191 189.057C88.1242 189.122 88.015 189.157 87.9037 189.157ZM152.154 206.401H152.143C152.064 206.399 151.986 206.38 151.913 206.344C151.841 206.309 151.775 206.258 151.72 206.194C151.665 206.13 151.622 206.054 151.593 205.972C151.564 205.889 151.55 205.801 151.551 205.712C151.583 203.788 152.314 158.507 153.002 151.551C153.025 151.377 153.107 151.22 153.231 151.112C153.355 151.005 153.511 150.955 153.667 150.975C153.823 150.994 153.965 151.081 154.065 151.216C154.165 151.352 154.214 151.525 154.202 151.7C153.519 158.594 152.765 205.266 152.758 205.737C152.755 205.914 152.69 206.083 152.577 206.207C152.464 206.331 152.312 206.4 152.154 206.401ZM258.99 335.932C258.901 335.932 258.813 335.91 258.732 335.867C258.651 335.825 258.58 335.763 258.523 335.685C258.467 335.608 258.426 335.518 258.404 335.421C258.382 335.324 258.38 335.223 258.397 335.125C258.427 334.953 261.254 317.58 247.899 294.687C247.855 294.613 247.825 294.53 247.81 294.442C247.795 294.355 247.796 294.265 247.812 294.178C247.828 294.09 247.859 294.008 247.904 293.934C247.949 293.86 248.006 293.797 248.073 293.749C248.139 293.7 248.214 293.667 248.292 293.65C248.37 293.634 248.45 293.635 248.528 293.654C248.605 293.672 248.679 293.708 248.745 293.758C248.81 293.809 248.866 293.873 248.909 293.948C262.553 317.337 259.708 334.661 259.58 335.387C259.553 335.54 259.48 335.678 259.372 335.778C259.264 335.877 259.129 335.932 258.99 335.932ZM642.046 295.294C641.961 295.294 641.877 295.274 641.8 295.235C641.722 295.196 641.652 295.139 641.596 295.068C641.539 294.997 641.497 294.913 641.471 294.822C641.445 294.731 641.437 294.635 641.447 294.54C641.492 294.106 646.174 250.954 669.134 239.575C669.206 239.539 669.284 239.52 669.363 239.518C669.443 239.515 669.521 239.531 669.595 239.563C669.669 239.595 669.737 239.643 669.794 239.704C669.851 239.765 669.897 239.839 669.929 239.92C669.961 240.001 669.979 240.088 669.981 240.177C669.983 240.266 669.969 240.354 669.94 240.437C669.912 240.52 669.869 240.595 669.814 240.66C669.76 240.724 669.694 240.775 669.622 240.811C647.285 251.88 642.688 294.268 642.644 294.695C642.627 294.86 642.557 295.012 642.447 295.122C642.337 295.232 642.194 295.293 642.046 295.294Z" fill="#231F20"/>
<path d="M484.884 404.999C482.23 399.979 474.308 392.065 479.146 385.052C480.814 382.634 484.689 383.611 485.708 379.792C486.637 376.315 483.648 372.997 483.678 369.407C483.714 364.959 485.018 363.022 488.589 362.977C493.045 362.921 492.246 364.767 494.218 359.505C496.817 352.569 505.021 344.447 509.302 354.989C510.97 359.099 509.905 360.199 508.216 363.188C506.004 367.105 504.873 368.541 507.404 372.448C508.98 374.881 512.966 376.681 511.834 380.667C510.611 384.969 506.546 382.916 503.775 383.8C494.971 386.609 501.9 395.886 499.775 401.867C498.018 406.81 486.55 407.747 484.482 403.647" fill="#3E89FC"/>
<path d="M484.079 417.839C483.928 417.839 483.782 417.775 483.671 417.66C483.56 417.545 483.491 417.387 483.479 417.218C483.462 416.996 481.995 394.673 494.463 377.318C494.513 377.249 494.574 377.191 494.644 377.149C494.713 377.106 494.789 377.08 494.868 377.07C494.947 377.061 495.027 377.069 495.103 377.094C495.179 377.119 495.249 377.16 495.311 377.216C495.373 377.272 495.424 377.341 495.462 377.419C495.5 377.497 495.524 377.582 495.532 377.67C495.541 377.759 495.533 377.848 495.511 377.933C495.489 378.018 495.452 378.098 495.402 378.167C483.244 395.091 484.665 416.892 484.68 417.11C484.693 417.289 484.642 417.466 484.539 417.602C484.435 417.739 484.287 417.824 484.128 417.838L484.079 417.839Z" fill="#231F20"/>
<path d="M465.992 403.197C463.476 404.733 459.627 406.537 456.838 404.874C452.771 402.449 456.079 400.447 455.147 397.327C454.136 393.94 449 393.414 446.678 391.145C443.267 387.812 444.191 383.908 446.308 379.769C448.657 375.176 450.858 375.811 455.138 378.307C458.012 379.982 463.755 384.549 465.196 387.979C465.825 389.476 464.913 391.907 465.561 393.293C466.278 394.826 468.666 394.544 469.617 396.077C471.752 399.521 468.127 402.331 465.59 403.196" fill="#295FC5"/>
<path d="M469.207 417.839C469.061 417.838 468.92 417.779 468.811 417.671C468.701 417.563 468.63 417.414 468.611 417.252C468.583 417.016 465.723 393.673 456.085 388.487C456.011 388.451 455.945 388.398 455.889 388.332C455.834 388.266 455.791 388.188 455.763 388.104C455.735 388.019 455.723 387.928 455.726 387.838C455.73 387.747 455.75 387.659 455.785 387.577C455.82 387.495 455.869 387.423 455.93 387.363C455.99 387.303 456.061 387.257 456.137 387.228C456.214 387.2 456.295 387.188 456.375 387.195C456.456 387.202 456.534 387.227 456.606 387.269C466.832 392.77 469.689 416.084 469.805 417.074C469.817 417.169 469.81 417.266 469.785 417.359C469.76 417.451 469.718 417.536 469.661 417.609C469.605 417.681 469.535 417.739 469.456 417.779C469.378 417.819 469.293 417.839 469.207 417.839Z" fill="#231F20"/>
<path d="M14.4701 415.111C22.4618 415.111 28.9403 413.122 28.9403 410.667C28.9403 408.213 22.4618 406.223 14.4701 406.223C6.4785 406.223 0 408.213 0 410.667C0 413.122 6.4785 415.111 14.4701 415.111Z" fill="white"/>
<path d="M36.5716 428.969C42.9351 428.969 48.0938 427.193 48.0938 425.003C48.0938 422.813 42.9351 421.038 36.5716 421.038C30.208 421.038 25.0493 422.813 25.0493 425.003C25.0493 427.193 30.208 428.969 36.5716 428.969Z" fill="white"/>
<path d="M48.0939 375.748C51.2581 375.748 53.8232 374.866 53.8232 373.777C53.8232 372.688 51.2581 371.805 48.0939 371.805C44.9296 371.805 42.3645 372.688 42.3645 373.777C42.3645 374.866 44.9296 375.748 48.0939 375.748Z" fill="white"/>
<path d="M560.75 392.926C563.914 392.926 566.479 392.043 566.479 390.954C566.479 389.865 563.914 388.982 560.75 388.982C557.586 388.982 555.021 389.865 555.021 390.954C555.021 392.043 557.586 392.926 560.75 392.926Z" fill="white"/>
</svg>
