<svg width="70" height="24" viewBox="0 0 70 24" fill="none" xmlns="http://www.w3.org/2000/svg">
<path d="M12 22.75C6.07 22.75 1.25 17.93 1.25 12C1.25 6.07 6.07 1.25 12 1.25C17.93 1.25 22.75 6.07 22.75 12C22.75 17.93 17.93 22.75 12 22.75ZM12 2.75C6.9 2.75 2.75 6.9 2.75 12C2.75 17.1 6.9 21.25 12 21.25C17.1 21.25 21.25 17.1 21.25 12C21.25 6.9 17.1 2.75 12 2.75Z" fill="#FD7401"/>
<path d="M13.2599 16.28C13.0699 16.28 12.8799 16.21 12.7299 16.06L9.19992 12.53C8.90992 12.24 8.90992 11.76 9.19992 11.47L12.7299 7.94C13.0199 7.65 13.4999 7.65 13.7899 7.94C14.0799 8.23 14.0799 8.71 13.7899 9L10.7899 12L13.7899 15C14.0799 15.29 14.0799 15.77 13.7899 16.06C13.6499 16.21 13.4599 16.28 13.2599 16.28Z" fill="#FD7401"/>
<path d="M40.6 10.692C41.1227 10.948 41.5333 11.3053 41.832 11.764C42.1307 12.2227 42.28 12.7453 42.28 13.332C42.28 14.228 41.9653 14.98 41.336 15.588C40.7067 16.196 39.9387 16.5 39.032 16.5H34.2V5.3H38.68C39.5653 5.3 40.3067 5.59333 40.904 6.18C41.512 6.76667 41.816 7.492 41.816 8.356C41.816 9.35867 41.4107 10.1373 40.6 10.692ZM38.68 6.692H35.688V10.116H38.68C39.1493 10.116 39.544 9.95067 39.864 9.62C40.184 9.28933 40.344 8.884 40.344 8.404C40.344 7.93467 40.1787 7.53467 39.848 7.204C39.528 6.86267 39.1387 6.692 38.68 6.692ZM35.688 15.108H39.032C39.5333 15.108 39.9547 14.932 40.296 14.58C40.6373 14.228 40.808 13.796 40.808 13.284C40.808 12.7827 40.632 12.356 40.28 12.004C39.9493 11.652 39.5333 11.476 39.032 11.476H35.688V15.108ZM50.5706 9.876V8.5H51.9626V16.5H50.5706V15.124C49.888 16.18 48.88 16.708 47.5466 16.708C46.416 16.708 45.4613 16.3027 44.6826 15.492C43.8933 14.6707 43.4986 13.6733 43.4986 12.5C43.4986 11.3373 43.8933 10.3453 44.6826 9.524C45.472 8.70267 46.4266 8.292 47.5466 8.292C48.88 8.292 49.888 8.82 50.5706 9.876ZM47.7226 15.364C48.5333 15.364 49.2106 15.092 49.7546 14.548C50.2986 13.9827 50.5706 13.3 50.5706 12.5C50.5706 11.6893 50.2986 11.012 49.7546 10.468C49.2106 9.91333 48.5333 9.636 47.7226 9.636C46.9226 9.636 46.2506 9.91333 45.7066 10.468C45.1626 11.012 44.8906 11.6893 44.8906 12.5C44.8906 13.3 45.1626 13.9827 45.7066 14.548C46.2506 15.092 46.9226 15.364 47.7226 15.364ZM57.8316 16.708C56.6263 16.708 55.6236 16.308 54.8236 15.508C54.0236 14.6973 53.6236 13.6947 53.6236 12.5C53.6236 11.3053 54.0236 10.308 54.8236 9.508C55.6236 8.69733 56.6263 8.292 57.8316 8.292C58.621 8.292 59.3303 8.484 59.9596 8.868C60.589 9.24133 61.0583 9.748 61.3676 10.388L60.1996 11.06C59.997 10.6333 59.6823 10.292 59.2556 10.036C58.8396 9.78 58.365 9.652 57.8316 9.652C57.0316 9.652 56.3596 9.924 55.8156 10.468C55.2823 11.0227 55.0156 11.7 55.0156 12.5C55.0156 13.2893 55.2823 13.9613 55.8156 14.516C56.3596 15.06 57.0316 15.332 57.8316 15.332C58.365 15.332 58.845 15.2093 59.2716 14.964C59.6983 14.708 60.0236 14.3667 60.2476 13.94L61.4316 14.628C61.0796 15.268 60.5836 15.7747 59.9436 16.148C59.3036 16.5213 58.5996 16.708 57.8316 16.708ZM65.622 12.372L69.574 16.5H67.846L64.198 12.708V16.5H62.806V5.3H64.198V12.036L67.654 8.5H69.446L65.622 12.372Z" fill="black"/>
</svg>
