<svg width="64" height="76" viewBox="0 0 64 76" fill="none" xmlns="http://www.w3.org/2000/svg">
<path d="M52.9231 59.3735H46.7692C44.8267 59.2392 43.0052 58.413 41.6587 57.0553C40.3121 55.6976 39.5367 53.9054 39.4831 52.0269L42.8332 49.6755C45.2768 47.9585 47.0563 45.5033 47.8892 42.6994L48.2166 41.5902C48.4259 41.625 48.6372 41.648 48.8492 41.6591C50.075 41.6585 51.2639 41.2547 52.2198 40.5143C53.1757 39.7738 53.8413 38.741 54.1069 37.5864C54.3725 36.4317 54.2222 35.2241 53.6807 34.163C53.1393 33.1019 52.239 32.2506 51.1286 31.7497L51.4314 30.7283C52.1895 30.5326 52.8626 30.1075 53.3519 29.5155C53.8412 28.9235 54.121 28.1957 54.1502 27.439C54.1794 26.6823 53.9565 25.9364 53.5141 25.311C53.0717 24.6855 52.4332 24.2133 51.6923 23.9637V23.7452C51.6976 21.2496 51.1898 18.7779 50.1981 16.473C49.2064 14.1682 47.7506 12.0762 45.9151 10.3181C45.4082 9.84609 44.8714 9.40502 44.3077 8.99748V8.30629C44.3077 7.36137 43.9187 6.45515 43.2262 5.78699C42.5338 5.11883 41.5946 4.74346 40.6154 4.74346H37.3957L37.3735 4.5677C37.2076 3.30585 36.5704 2.14574 35.5814 1.30484C34.5923 0.463938 33.3194 0 32.0012 0C30.683 0 29.4101 0.463938 28.4211 1.30484C27.4321 2.14574 26.7949 3.30585 26.6289 4.5677L26.6043 4.74346H23.3846C22.4054 4.74346 21.4662 5.11883 20.7738 5.78699C20.0813 6.45515 19.6923 7.36137 19.6923 8.30629V8.99035C17.3945 10.7588 15.5378 13.0029 14.2596 15.5568C12.9815 18.1107 12.3144 20.9091 12.3077 23.7452V23.9637C11.5658 24.2127 10.9263 24.6848 10.4831 25.3106C10.04 25.9364 9.81657 26.6829 9.84578 27.4403C9.87498 28.1977 10.1552 28.9261 10.6454 29.5184C11.1355 30.1107 11.8096 30.5356 12.5686 30.7307L12.8714 31.7521C11.761 32.253 10.8607 33.1042 10.3193 34.1654C9.77781 35.2265 9.62747 36.4341 9.89307 37.5887C10.1587 38.7434 10.8243 39.7762 11.7802 40.5166C12.7361 41.2571 13.925 41.6609 15.1508 41.6615C15.3628 41.6503 15.5741 41.6273 15.7834 41.5926L16.1108 42.7018C16.9449 45.5052 18.7252 47.9595 21.1692 49.6755L24.5194 52.0269C24.4657 53.9058 23.6899 55.6983 22.3429 57.0561C20.9958 58.4138 19.1738 59.2398 17.2308 59.3735H11.0769C8.13914 59.3735 5.32168 60.4996 3.24436 62.5041C1.16703 64.5085 0 67.2272 0 70.062V74.8124C0 75.1274 0.12967 75.4294 0.360484 75.6522C0.591298 75.8749 0.904349 76 1.23077 76H62.7692C63.0957 76 63.4087 75.8749 63.6395 75.6522C63.8703 75.4294 64 75.1274 64 74.8124V70.062C64 67.2272 62.833 64.5085 60.7556 62.5041C58.6783 60.4996 55.8609 59.3735 52.9231 59.3735ZM51.6923 37.0939C51.5405 37.699 51.1837 38.2379 50.6785 38.6252C50.1733 39.0124 49.5486 39.2258 48.9034 39.2316L50.4197 34.113C50.9232 34.4238 51.3154 34.8766 51.5431 35.4098C51.7708 35.9431 51.8229 36.5311 51.6923 37.0939ZM19.6923 12.1779V15.4319C19.6923 15.7469 19.822 16.049 20.0528 16.2717C20.2836 16.4944 20.5967 16.6196 20.9231 16.6196C21.2495 16.6196 21.5625 16.4944 21.7934 16.2717C22.0242 16.049 22.1538 15.7469 22.1538 15.4319V8.30629C22.1538 7.99131 22.2835 7.68924 22.5143 7.46652C22.7451 7.2438 23.0582 7.11868 23.3846 7.11868H26.1637C26.1969 7.1746 26.2348 7.22782 26.2769 7.27782L24.6154 20.0351C24.5941 20.1913 24.6051 20.3499 24.6479 20.5019C24.6908 20.6539 24.7645 20.7961 24.8648 20.9204C24.9652 21.0446 25.0901 21.1483 25.2324 21.2255C25.3746 21.3027 25.5314 21.3518 25.6935 21.37C26.0192 21.4051 26.3462 21.316 26.6047 21.1216C26.8632 20.9272 27.0327 20.643 27.0769 20.3296L29.0708 4.86222C29.1611 4.17377 29.5086 3.54076 30.0481 3.08191C30.5876 2.62306 31.2821 2.3699 32.0012 2.3699C32.7204 2.3699 33.4149 2.62306 33.9544 3.08191C34.4939 3.54076 34.8414 4.17377 34.9317 4.86222L36.9231 20.3296C36.9605 20.6185 37.1065 20.884 37.3334 21.0757C37.5602 21.2675 37.8522 21.3722 38.1538 21.37C38.2055 21.373 38.2573 21.373 38.3089 21.37C38.4708 21.3515 38.6273 21.3022 38.7693 21.2249C38.9113 21.1476 39.036 21.0438 39.136 20.9196C39.2361 20.7954 39.3096 20.6533 39.3523 20.5014C39.395 20.3496 39.406 20.1911 39.3846 20.0351L37.7231 7.20894C37.7428 7.18044 37.7698 7.15906 37.7895 7.13056H40.6154C40.9418 7.13056 41.2549 7.25568 41.4857 7.4784C41.7165 7.70112 41.8462 8.00319 41.8462 8.31816V15.4438C41.8462 15.7588 41.9758 16.0609 42.2066 16.2836C42.4375 16.5063 42.7505 16.6314 43.0769 16.6314C43.4033 16.6314 43.7164 16.5063 43.9472 16.2836C44.178 16.0609 44.3077 15.7588 44.3077 15.4438V12.1375C47.4681 15.2307 49.2371 19.4015 49.2308 23.7452H14.7692C14.7816 19.417 16.5486 15.2652 19.6923 12.1779ZM13.5385 26.1204H50.4615C50.788 26.1204 51.101 26.2455 51.3318 26.4683C51.5626 26.691 51.6923 26.9931 51.6923 27.308C51.6923 27.623 51.5626 27.9251 51.3318 28.1478C51.101 28.3705 50.788 28.4956 50.4615 28.4956H13.5385C13.212 28.4956 12.899 28.3705 12.6682 28.1478C12.4374 27.9251 12.3077 27.623 12.3077 27.308C12.3077 26.9931 12.4374 26.691 12.6682 26.4683C12.899 26.2455 13.212 26.1204 13.5385 26.1204ZM12.3077 37.0963C12.1769 36.5331 12.2289 35.9448 12.4566 35.4111C12.6843 34.8774 13.0766 34.4242 13.5803 34.113L15.0966 39.2316C14.4518 39.226 13.8273 39.0129 13.3221 38.6261C12.817 38.2393 12.46 37.701 12.3077 37.0963ZM18.4886 42.0486L15.1705 30.8709H48.8295L45.5212 42.0486C44.8355 44.3391 43.3799 46.3445 41.3834 47.7492L35.6185 51.787C34.5675 52.5273 33.3 52.9263 31.9988 52.9263C30.6976 52.9263 29.43 52.5273 28.3791 51.787L22.6142 47.7492C20.6186 46.3442 19.1638 44.3388 18.4788 42.0486H18.4886ZM26.7938 53.6183L26.944 53.7228C28.415 54.7596 30.1895 55.3183 32.0111 55.3183C33.8327 55.3183 35.6072 54.7596 37.0782 53.7228L37.2283 53.6183C37.5342 55.0973 38.1691 56.4947 39.0892 57.7138C40.0093 58.933 41.1927 59.945 42.5575 60.6798C41.477 62.4521 39.9355 63.9213 38.0858 64.9421C36.236 65.9629 34.142 66.4998 32.0111 66.4998C29.8802 66.4998 27.7862 65.9629 25.9364 64.9421C24.0866 63.9213 22.5452 62.4521 21.4646 60.6798C22.8277 59.9439 24.0091 58.9315 24.9274 57.7124C25.8458 56.4933 26.4792 55.0965 26.784 53.6183H26.7938ZM61.5385 73.6248H2.46154V70.062C2.46154 67.8571 3.36923 65.7426 4.98493 64.1836C6.60063 62.6245 8.79198 61.7487 11.0769 61.7487H17.2308C17.874 61.7485 18.5153 61.6808 19.1434 61.5468C20.4107 63.7668 22.2721 65.6179 24.5335 66.9072C26.7949 68.1964 29.3734 68.8765 32 68.8765C34.6266 68.8765 37.2051 68.1964 39.4665 66.9072C41.7279 65.6179 43.5893 63.7668 44.8566 61.5468C45.4847 61.6808 46.126 61.7485 46.7692 61.7487H52.9231C55.208 61.7487 57.3994 62.6245 59.0151 64.1836C60.6308 65.7426 61.5385 67.8571 61.5385 70.062V73.6248Z" fill="#FD7401"/>
</svg>
