<svg width="20" height="20" viewBox="0 0 20 20" fill="none" xmlns="http://www.w3.org/2000/svg">
<path d="M10 0C4.4768 0 0 4.4768 0 10C0 15.5232 4.4768 20 10 20C15.5232 20 20 15.5232 20 10C20 4.4768 15.5232 0 10 0ZM15.2 10.8H4.8C4.58783 10.8 4.38434 10.7157 4.23431 10.5657C4.08429 10.4157 4 10.2122 4 10C4 9.78783 4.08429 9.58434 4.23431 9.43431C4.38434 9.28429 4.58783 9.2 4.8 9.2H15.2C15.4122 9.2 15.6157 9.28429 15.7657 9.43431C15.9157 9.58434 16 9.78783 16 10C16 10.2122 15.9157 10.4157 15.7657 10.5657C15.6157 10.7157 15.4122 10.8 15.2 10.8Z" fill="#0E7490"/>
</svg>
